<?xml version="1.0" encoding="UTF-8"?><svg id="Layer_1" xmlns="http://www.w3.org/2000/svg" viewBox="0 0 154.14 141.96"><defs><style>.cls-1{fill:#fff;}</style></defs><rect class="cls-1" x="63.23" y="137.85" width="4.1" height="4" transform="translate(-76.62 200.55) rotate(-88.13)"/><rect class="cls-1" x="59.24" y="137.69" width="4.1" height="4" transform="translate(-80.33 196.4) rotate(-88.13)"/><rect class="cls-1" x="63.36" y="133.7" width="4.1" height="4" transform="translate(-72.35 196.65) rotate(-88.13)"/><rect class="cls-1" x="59.35" y="133.64" width="4.1" height="4" transform="translate(-76.16 192.59) rotate(-88.13)"/><rect class="cls-1" x="39.26" y="132.93" width="4.1" height="4" transform="translate(-94.89 171.82) rotate(-88.13)"/><rect class="cls-1" x="59.47" y="129.48" width="4.1" height="4" transform="translate(-71.89 188.69) rotate(-88.13)"/><rect class="cls-1" x="39.38" y="128.88" width="4.1" height="4" transform="translate(-90.73 168.02) rotate(-88.13)"/><rect class="cls-1" x="59.59" y="125.43" width="4.1" height="4" transform="translate(-67.73 184.89) rotate(-88.13)"/><rect class="cls-1" x="55.59" y="125.27" width="4.1" height="4" transform="translate(-71.43 180.74) rotate(-88.13)"/><rect class="cls-1" x="39.49" y="124.82" width="4.1" height="4" transform="translate(-86.56 164.22) rotate(-88.13)"/><rect class="cls-1" x="35.5" y="124.66" width="4.1" height="4" transform="translate(-90.27 160.07) rotate(-88.13)"/><rect class="cls-1" x="55.71" y="121.22" width="4.1" height="4" transform="translate(-67.27 176.94) rotate(-88.13)"/><rect class="cls-1" x="39.62" y="120.67" width="4.1" height="4" transform="translate(-82.3 160.32) rotate(-88.13)"/><rect class="cls-1" x="35.61" y="120.61" width="4.1" height="4" transform="translate(-86.11 156.26) rotate(-88.13)"/><rect class="cls-1" x="55.83" y="117.16" width="4.1" height="4" transform="translate(-63.1 173.13) rotate(-88.13)"/><rect class="cls-1" x="39.73" y="116.62" width="4.1" height="4" transform="translate(-78.13 156.52) rotate(-88.13)"/><rect class="cls-1" x="56.05" y="113.01" width="4.1" height="4" transform="translate(-58.74 169.34) rotate(-88.13)"/><rect class="cls-1" x="51.95" y="112.95" width="4.1" height="4" transform="translate(-62.65 165.18) rotate(-88.13)"/><rect class="cls-1" x="39.85" y="112.56" width="4.1" height="4" transform="translate(-73.97 152.71) rotate(-88.13)"/><rect class="cls-1" x="56.17" y="108.96" width="4.1" height="4" transform="translate(-54.58 165.54) rotate(-88.13)"/><rect class="cls-1" x="52.07" y="108.8" width="4.1" height="4" transform="translate(-58.38 161.28) rotate(-88.13)"/><rect class="cls-1" x="44.07" y="108.57" width="4.1" height="4" transform="translate(-65.9 153.07) rotate(-88.13)"/><rect class="cls-1" x="39.97" y="108.41" width="4.1" height="4" transform="translate(-69.7 148.82) rotate(-88.13)"/><rect class="cls-1" x="60.29" y="104.97" width="4.1" height="4" transform="translate(-46.6 165.79) rotate(-88.13)"/><rect class="cls-1" x="56.29" y="104.91" width="4.1" height="4" transform="translate(-50.41 161.73) rotate(-88.13)"/><rect class="cls-1" x="52.19" y="104.74" width="4.1" height="4" transform="translate(-54.21 157.48) rotate(-88.13)"/><rect class="cls-1" x="48.19" y="104.58" width="4.1" height="4" transform="translate(-57.92 153.33) rotate(-88.13)"/><rect class="cls-1" x="44.19" y="104.52" width="4.1" height="4" transform="translate(-61.73 149.27) rotate(-88.13)"/><rect class="cls-1" x="40.19" y="104.36" width="4.1" height="4" transform="translate(-65.44 145.12) rotate(-88.13)"/><rect class="cls-1" x="64.5" y="101.08" width="4.1" height="4" transform="translate(-38.64 166.24) rotate(-88.13)"/><rect class="cls-1" x="60.41" y="100.91" width="4.1" height="4" transform="translate(-42.44 161.99) rotate(-88.13)"/><rect class="cls-1" x="56.41" y="100.75" width="4.1" height="4" transform="translate(-46.15 157.83) rotate(-88.13)"/><rect class="cls-1" x="52.41" y="100.69" width="4.1" height="4" transform="translate(-49.96 153.78) rotate(-88.13)"/><rect class="cls-1" x="48.31" y="100.53" width="4.1" height="4" transform="translate(-53.76 149.52) rotate(-88.13)"/><rect class="cls-1" x="44.31" y="100.37" width="4.1" height="4" transform="translate(-57.46 145.37) rotate(-88.13)"/><rect class="cls-1" x="20.11" y="99.6" width="4.1" height="4" transform="translate(-80.1 120.44) rotate(-88.13)"/><rect class="cls-1" x="16.12" y="99.44" width="4.1" height="4" transform="translate(-83.81 116.29) rotate(-88.13)"/><rect class="cls-1" x="12.01" y="99.37" width="4.1" height="4" transform="translate(-87.71 112.13) rotate(-88.13)"/><rect class="cls-1" x=".02" y="98.99" width="4.1" height="4" transform="translate(-98.94 99.77) rotate(-88.13)"/><rect class="cls-1" x="68.62" y="97.09" width="4.1" height="4" transform="translate(-30.66 166.5) rotate(-88.13)"/><rect class="cls-1" x="64.62" y="96.93" width="4.1" height="4" transform="translate(-34.37 162.34) rotate(-88.13)"/><rect class="cls-1" x="60.52" y="96.86" width="4.1" height="4" transform="translate(-38.27 158.18) rotate(-88.13)"/><rect class="cls-1" x="56.53" y="96.7" width="4.1" height="4" transform="translate(-41.98 154.03) rotate(-88.13)"/><rect class="cls-1" x="52.53" y="96.54" width="4.1" height="4" transform="translate(-45.69 149.88) rotate(-88.13)"/><rect class="cls-1" x="48.43" y="96.48" width="4.1" height="4" transform="translate(-49.59 145.72) rotate(-88.13)"/><rect class="cls-1" x="32.33" y="95.93" width="4.1" height="4" transform="translate(-64.62 129.1) rotate(-88.13)"/><rect class="cls-1" x="28.33" y="95.77" width="4.1" height="4" transform="translate(-68.33 124.95) rotate(-88.13)"/><rect class="cls-1" x="24.33" y="95.61" width="4.1" height="4" transform="translate(-72.03 120.8) rotate(-88.13)"/><rect class="cls-1" x="20.23" y="95.54" width="4.1" height="4" transform="translate(-75.94 116.64) rotate(-88.13)"/><rect class="cls-1" x="16.23" y="95.38" width="4.1" height="4" transform="translate(-79.64 112.49) rotate(-88.13)"/><rect class="cls-1" x="12.23" y="95.22" width="4.1" height="4" transform="translate(-83.35 108.33) rotate(-88.13)"/><rect class="cls-1" x="8.13" y="95.16" width="4.1" height="4" transform="translate(-87.26 104.17) rotate(-88.13)"/><rect class="cls-1" x="68.74" y="93.03" width="4.1" height="4" transform="translate(-26.5 162.69) rotate(-88.13)"/><rect class="cls-1" x="64.74" y="92.87" width="4.1" height="4" transform="translate(-30.2 158.54) rotate(-88.13)"/><rect class="cls-1" x="60.74" y="92.71" width="4.1" height="4" transform="translate(-33.91 154.39) rotate(-88.13)"/><rect class="cls-1" x="56.64" y="92.65" width="4.1" height="4" transform="translate(-37.82 150.23) rotate(-88.13)"/><rect class="cls-1" x="52.64" y="92.49" width="4.1" height="4" transform="translate(-41.52 146.08) rotate(-88.13)"/><rect class="cls-1" x="48.65" y="92.33" width="4.1" height="4" transform="translate(-45.23 141.92) rotate(-88.13)"/><rect class="cls-1" x="36.55" y="91.94" width="4.1" height="4" transform="translate(-56.55 129.46) rotate(-88.13)"/><rect class="cls-1" x="32.45" y="91.88" width="4.1" height="4" transform="translate(-60.45 125.3) rotate(-88.13)"/><rect class="cls-1" x="28.45" y="91.72" width="4.1" height="4" transform="translate(-64.16 121.15) rotate(-88.13)"/><rect class="cls-1" x="24.45" y="91.55" width="4.1" height="4" transform="translate(-67.87 117) rotate(-88.13)"/><rect class="cls-1" x="20.35" y="91.39" width="4.1" height="4" transform="translate(-71.67 112.74) rotate(-88.13)"/><rect class="cls-1" x="16.35" y="91.33" width="4.1" height="4" transform="translate(-75.48 108.68) rotate(-88.13)"/><rect class="cls-1" x="12.35" y="91.17" width="4.1" height="4" transform="translate(-79.19 104.53) rotate(-88.13)"/><rect class="cls-1" x="8.25" y="91.01" width="4.1" height="4" transform="translate(-82.99 100.28) rotate(-88.13)"/><rect class="cls-1" x="4.25" y="90.94" width="4.1" height="4" transform="translate(-86.8 96.22) rotate(-88.13)"/><rect class="cls-1" x="145.44" y="91.45" width="4.1" height="4" transform="translate(49.29 237.83) rotate(-88.13)"/><rect class="cls-1" x="141.45" y="91.29" width="4.1" height="4" transform="translate(45.58 233.68) rotate(-88.13)"/><rect class="cls-1" x="137.45" y="91.13" width="4.1" height="4" transform="translate(41.87 229.52) rotate(-88.13)"/><rect class="cls-1" x="72.96" y="89.04" width="4.1" height="4" transform="translate(-18.43 163.05) rotate(-88.13)"/><rect class="cls-1" x="68.86" y="88.88" width="4.1" height="4" transform="translate(-22.23 158.79) rotate(-88.13)"/><rect class="cls-1" x="64.86" y="88.82" width="4.1" height="4" transform="translate(-26.04 154.74) rotate(-88.13)"/><rect class="cls-1" x="60.86" y="88.66" width="4.1" height="4" transform="translate(-29.75 150.59) rotate(-88.13)"/><rect class="cls-1" x="56.76" y="88.49" width="4.1" height="4" transform="translate(-33.55 146.33) rotate(-88.13)"/><rect class="cls-1" x="52.76" y="88.43" width="4.1" height="4" transform="translate(-37.36 142.27) rotate(-88.13)"/><rect class="cls-1" x="48.76" y="88.27" width="4.1" height="4" transform="translate(-41.07 138.12) rotate(-88.13)"/><rect class="cls-1" x="36.67" y="87.89" width="4.1" height="4" transform="translate(-52.38 125.66) rotate(-88.13)"/><rect class="cls-1" x="32.57" y="87.72" width="4.1" height="4" transform="translate(-56.18 121.4) rotate(-88.13)"/><rect class="cls-1" x="28.57" y="87.56" width="4.1" height="4" transform="translate(-59.89 117.25) rotate(-88.13)"/><rect class="cls-1" x="24.57" y="87.5" width="4.1" height="4" transform="translate(-63.7 113.19) rotate(-88.13)"/><rect class="cls-1" x="20.57" y="87.34" width="4.1" height="4" transform="translate(-67.41 109.04) rotate(-88.13)"/><rect class="cls-1" x="16.47" y="87.18" width="4.1" height="4" transform="translate(-71.21 104.79) rotate(-88.13)"/><rect class="cls-1" x="149.66" y="87.46" width="4.1" height="4" transform="translate(57.36 238.18) rotate(-88.13)"/><rect class="cls-1" x="145.57" y="87.3" width="4.1" height="4" transform="translate(53.56 233.93) rotate(-88.13)"/><rect class="cls-1" x="141.56" y="87.24" width="4.1" height="4" transform="translate(49.75 229.87) rotate(-88.13)"/><rect class="cls-1" x="121.47" y="86.53" width="4.1" height="4" transform="translate(31.01 209.1) rotate(-88.13)"/><rect class="cls-1" x="77.08" y="85.05" width="4.1" height="4" transform="translate(-10.45 163.3) rotate(-88.13)"/><rect class="cls-1" x="73.08" y="84.99" width="4.1" height="4" transform="translate(-14.26 159.25) rotate(-88.13)"/><rect class="cls-1" x="68.98" y="84.83" width="4.1" height="4" transform="translate(-18.06 154.99) rotate(-88.13)"/><rect class="cls-1" x="64.98" y="84.67" width="4.1" height="4" transform="translate(-21.77 150.84) rotate(-88.13)"/><rect class="cls-1" x="60.98" y="84.6" width="4.1" height="4" transform="translate(-25.58 146.78) rotate(-88.13)"/><rect class="cls-1" x="56.98" y="84.44" width="4.1" height="4" transform="translate(-29.29 142.63) rotate(-88.13)"/><rect class="cls-1" x="52.88" y="84.28" width="4.1" height="4" transform="translate(-33.09 138.38) rotate(-88.13)"/><rect class="cls-1" x="48.88" y="84.22" width="4.1" height="4" transform="translate(-36.9 134.32) rotate(-88.13)"/><rect class="cls-1" x="36.78" y="83.83" width="4.1" height="4" transform="translate(-48.22 121.85) rotate(-88.13)"/><rect class="cls-1" x="32.79" y="83.67" width="4.1" height="4" transform="translate(-51.93 117.7) rotate(-88.13)"/><rect class="cls-1" x="28.69" y="83.51" width="4.1" height="4" transform="translate(-55.73 113.45) rotate(-88.13)"/><rect class="cls-1" x="24.69" y="83.35" width="4.1" height="4" transform="translate(-59.43 109.29) rotate(-88.13)"/><rect class="cls-1" x="20.69" y="83.29" width="4.1" height="4" transform="translate(-63.25 105.24) rotate(-88.13)"/><rect class="cls-1" x="16.59" y="83.12" width="4.1" height="4" transform="translate(-67.05 100.98) rotate(-88.13)"/><rect class="cls-1" x="12.59" y="82.96" width="4.1" height="4" transform="translate(-70.75 96.83) rotate(-88.13)"/><rect class="cls-1" x="8.59" y="82.9" width="4.1" height="4" transform="translate(-74.56 92.77) rotate(-88.13)"/><rect class="cls-1" x="4.49" y="82.74" width="4.1" height="4" transform="translate(-78.36 88.52) rotate(-88.13)"/><rect class="cls-1" x=".49" y="82.58" width="4.1" height="4" transform="translate(-82.07 84.37) rotate(-88.13)"/><rect class="cls-1" x="149.78" y="83.41" width="4.1" height="4" transform="translate(61.52 234.38) rotate(-88.13)"/><rect class="cls-1" x="133.69" y="82.86" width="4.1" height="4" transform="translate(46.5 217.76) rotate(-88.13)"/><rect class="cls-1" x="129.59" y="82.7" width="4.1" height="4" transform="translate(42.7 213.51) rotate(-88.13)"/><rect class="cls-1" x="125.59" y="82.54" width="4.1" height="4" transform="translate(38.99 209.36) rotate(-88.13)"/><rect class="cls-1" x="121.59" y="82.48" width="4.1" height="4" transform="translate(35.18 205.3) rotate(-88.13)"/><rect class="cls-1" x="89.3" y="81.38" width="4.1" height="4" transform="translate(5.03 171.97) rotate(-88.13)"/><rect class="cls-1" x="85.29" y="81.32" width="4.1" height="4" transform="translate(1.22 167.91) rotate(-88.13)"/><rect class="cls-1" x="81.3" y="81.16" width="4.1" height="4" transform="translate(-2.49 163.76) rotate(-88.13)"/><rect class="cls-1" x="77.2" y="81" width="4.1" height="4" transform="translate(-6.29 159.5) rotate(-88.13)"/><rect class="cls-1" x="73.2" y="80.84" width="4.1" height="4" transform="translate(-9.99 155.35) rotate(-88.13)"/><rect class="cls-1" x="69.2" y="80.78" width="4.1" height="4" transform="translate(-13.8 151.29) rotate(-88.13)"/><rect class="cls-1" x="65.1" y="80.61" width="4.1" height="4" transform="translate(-17.61 147.04) rotate(-88.13)"/><rect class="cls-1" x="61.1" y="80.45" width="4.1" height="4" transform="translate(-21.31 142.88) rotate(-88.13)"/><rect class="cls-1" x="57.1" y="80.39" width="4.1" height="4" transform="translate(-25.12 138.83) rotate(-88.13)"/><rect class="cls-1" x="53" y="80.23" width="4.1" height="4" transform="translate(-28.92 134.57) rotate(-88.13)"/><rect class="cls-1" x="49" y="80.07" width="4.1" height="4" transform="translate(-32.63 130.42) rotate(-88.13)"/><rect class="cls-1" x="45" y="80.01" width="4.1" height="4" transform="translate(-36.44 126.36) rotate(-88.13)"/><rect class="cls-1" x="36.91" y="79.68" width="4.1" height="4" transform="translate(-43.95 117.96) rotate(-88.13)"/><rect class="cls-1" x="32.9" y="79.62" width="4.1" height="4" transform="translate(-47.76 113.9) rotate(-88.13)"/><rect class="cls-1" x="28.81" y="79.46" width="4.1" height="4" transform="translate(-51.56 109.64) rotate(-88.13)"/><rect class="cls-1" x="24.81" y="79.3" width="4.1" height="4" transform="translate(-55.27 105.49) rotate(-88.13)"/><rect class="cls-1" x="149.9" y="79.26" width="4.1" height="4" transform="translate(65.79 230.48) rotate(-88.13)"/><rect class="cls-1" x="133.8" y="78.81" width="4.1" height="4" transform="translate(50.66 213.96) rotate(-88.13)"/><rect class="cls-1" x="129.71" y="78.65" width="4.1" height="4" transform="translate(46.86 209.71) rotate(-88.13)"/><rect class="cls-1" x="97.51" y="77.55" width="4.1" height="4" transform="translate(16.81 176.47) rotate(-88.13)"/><rect class="cls-1" x="93.51" y="77.49" width="4.1" height="4" transform="translate(13 172.42) rotate(-88.13)"/><rect class="cls-1" x="89.41" y="77.33" width="4.1" height="4" transform="translate(9.2 168.16) rotate(-88.13)"/><rect class="cls-1" x="85.41" y="77.17" width="4.1" height="4" transform="translate(5.49 164.01) rotate(-88.13)"/><rect class="cls-1" x="81.41" y="77.11" width="4.1" height="4" transform="translate(1.68 159.95) rotate(-88.13)"/><rect class="cls-1" x="77.32" y="76.94" width="4.1" height="4" transform="translate(-2.12 155.7) rotate(-88.13)"/><rect class="cls-1" x="73.32" y="76.78" width="4.1" height="4" transform="translate(-5.83 151.55) rotate(-88.13)"/><rect class="cls-1" x="69.32" y="76.62" width="4.1" height="4" transform="translate(-9.54 147.39) rotate(-88.13)"/><rect class="cls-1" x="65.22" y="76.56" width="4.1" height="4" transform="translate(-13.44 143.23) rotate(-88.13)"/><rect class="cls-1" x="61.22" y="76.4" width="4.1" height="4" transform="translate(-17.15 139.08) rotate(-88.13)"/><rect class="cls-1" x="57.22" y="76.24" width="4.1" height="4" transform="translate(-20.86 134.93) rotate(-88.13)"/><rect class="cls-1" x="53.12" y="76.17" width="4.1" height="4" transform="translate(-24.76 130.77) rotate(-88.13)"/><rect class="cls-1" x="49.12" y="76.01" width="4.1" height="4" transform="translate(-28.47 126.62) rotate(-88.13)"/><rect class="cls-1" x="45.12" y="75.85" width="4.1" height="4" transform="translate(-32.17 122.46) rotate(-88.13)"/><rect class="cls-1" x="37.02" y="75.63" width="4.1" height="4" transform="translate(-39.79 114.15) rotate(-88.13)"/><rect class="cls-1" x="33.02" y="75.47" width="4.1" height="4" transform="translate(-43.49 110) rotate(-88.13)"/><rect class="cls-1" x="29.03" y="75.31" width="4.1" height="4" transform="translate(-47.2 105.85) rotate(-88.13)"/><rect class="cls-1" x="24.92" y="75.24" width="4.1" height="4" transform="translate(-51.1 101.69) rotate(-88.13)"/><rect class="cls-1" x="150.02" y="75.2" width="4.1" height="4" transform="translate(69.96 226.68) rotate(-88.13)"/><rect class="cls-1" x="146.02" y="75.04" width="4.1" height="4" transform="translate(66.25 222.53) rotate(-88.13)"/><rect class="cls-1" x="133.92" y="74.66" width="4.1" height="4" transform="translate(54.93 210.06) rotate(-88.13)"/><rect class="cls-1" x="101.63" y="73.66" width="4.1" height="4" transform="translate(24.68 176.82) rotate(-88.13)"/><rect class="cls-1" x="97.63" y="73.5" width="4.1" height="4" transform="translate(20.97 172.67) rotate(-88.13)"/><rect class="cls-1" x="93.63" y="73.34" width="4.1" height="4" transform="translate(17.27 168.52) rotate(-88.13)"/><rect class="cls-1" x="89.53" y="73.28" width="4.1" height="4" transform="translate(13.36 164.36) rotate(-88.13)"/><rect class="cls-1" x="85.53" y="73.12" width="4.1" height="4" transform="translate(9.65 160.21) rotate(-88.13)"/><rect class="cls-1" x="81.53" y="72.96" width="4.1" height="4" transform="translate(5.95 156.05) rotate(-88.13)"/><rect class="cls-1" x="77.44" y="72.79" width="4.1" height="4" transform="translate(2.15 151.8) rotate(-88.13)"/><rect class="cls-1" x="73.43" y="72.73" width="4.1" height="4" transform="translate(-1.66 147.74) rotate(-88.13)"/><rect class="cls-1" x="69.44" y="72.57" width="4.1" height="4" transform="translate(-5.37 143.59) rotate(-88.13)"/><rect class="cls-1" x="65.44" y="72.41" width="4.1" height="4" transform="translate(-9.08 139.44) rotate(-88.13)"/><rect class="cls-1" x="61.34" y="72.35" width="4.1" height="4" transform="translate(-12.98 135.28) rotate(-88.13)"/><rect class="cls-1" x="57.34" y="72.18" width="4.1" height="4" transform="translate(-16.69 131.13) rotate(-88.13)"/><rect class="cls-1" x="53.34" y="72.02" width="4.1" height="4" transform="translate(-20.4 126.97) rotate(-88.13)"/><rect class="cls-1" x="49.24" y="71.96" width="4.1" height="4" transform="translate(-24.3 122.81) rotate(-88.13)"/><rect class="cls-1" x="45.24" y="71.8" width="4.1" height="4" transform="translate(-28.01 118.66) rotate(-88.13)"/><rect class="cls-1" x="37.14" y="71.57" width="4.1" height="4" transform="translate(-35.62 110.35) rotate(-88.13)"/><rect class="cls-1" x="33.14" y="71.41" width="4.1" height="4" transform="translate(-39.33 106.2) rotate(-88.13)"/><rect class="cls-1" x="29.14" y="71.25" width="4.1" height="4" transform="translate(-43.04 102.05) rotate(-88.13)"/><rect class="cls-1" x="25.05" y="71.09" width="4.1" height="4" transform="translate(-46.84 97.79) rotate(-88.13)"/><rect class="cls-1" x="146.14" y="70.99" width="4.1" height="4" transform="translate(70.41 218.73) rotate(-88.13)"/><rect class="cls-1" x="134.04" y="70.6" width="4.1" height="4" transform="translate(59.1 206.26) rotate(-88.13)"/><rect class="cls-1" x="113.85" y="69.89" width="4.1" height="4" transform="translate(40.27 185.39) rotate(-88.13)"/><rect class="cls-1" x="109.85" y="69.83" width="4.1" height="4" transform="translate(36.46 181.33) rotate(-88.13)"/><rect class="cls-1" x="105.85" y="69.67" width="4.1" height="4" transform="translate(32.75 177.18) rotate(-88.13)"/><rect class="cls-1" x="101.85" y="69.51" width="4.1" height="4" transform="translate(29.04 173.03) rotate(-88.13)"/><rect class="cls-1" x="97.75" y="69.45" width="4.1" height="4" transform="translate(25.14 168.87) rotate(-88.13)"/><rect class="cls-1" x="93.75" y="69.29" width="4.1" height="4" transform="translate(21.43 164.72) rotate(-88.13)"/><rect class="cls-1" x="89.75" y="69.13" width="4.1" height="4" transform="translate(17.72 160.56) rotate(-88.13)"/><rect class="cls-1" x="85.65" y="69.06" width="4.1" height="4" transform="translate(13.82 156.4) rotate(-88.13)"/><rect class="cls-1" x="81.65" y="68.9" width="4.1" height="4" transform="translate(10.11 152.25) rotate(-88.13)"/><rect class="cls-1" x="77.65" y="68.74" width="4.1" height="4" transform="translate(6.4 148.1) rotate(-88.13)"/><rect class="cls-1" x="73.56" y="68.58" width="4.1" height="4" transform="translate(2.6 143.85) rotate(-88.13)"/><rect class="cls-1" x="69.55" y="68.52" width="4.1" height="4" transform="translate(-1.21 139.79) rotate(-88.13)"/><rect class="cls-1" x="65.56" y="68.36" width="4.1" height="4" transform="translate(-4.91 135.64) rotate(-88.13)"/><rect class="cls-1" x="61.46" y="68.19" width="4.1" height="4" transform="translate(-8.71 131.38) rotate(-88.13)"/><rect class="cls-1" x="57.46" y="68.13" width="4.1" height="4" transform="translate(-12.53 127.32) rotate(-88.13)"/><rect class="cls-1" x="53.46" y="67.97" width="4.1" height="4" transform="translate(-16.23 123.17) rotate(-88.13)"/><rect class="cls-1" x="49.36" y="67.81" width="4.1" height="4" transform="translate(-20.03 118.92) rotate(-88.13)"/><rect class="cls-1" x="45.36" y="67.75" width="4.1" height="4" transform="translate(-23.84 114.86) rotate(-88.13)"/><rect class="cls-1" x="37.36" y="67.42" width="4.1" height="4" transform="translate(-31.26 106.55) rotate(-88.13)"/><rect class="cls-1" x="33.26" y="67.36" width="4.1" height="4" transform="translate(-35.16 102.39) rotate(-88.13)"/><rect class="cls-1" x="29.26" y="67.2" width="4.1" height="4" transform="translate(-38.87 98.24) rotate(-88.13)"/><rect class="cls-1" x="25.26" y="67.04" width="4.1" height="4" transform="translate(-42.58 94.09) rotate(-88.13)"/><rect class="cls-1" x="146.26" y="66.94" width="4.1" height="4" transform="translate(74.58 214.92) rotate(-88.13)"/><rect class="cls-1" x="134.16" y="66.55" width="4.1" height="4" transform="translate(63.26 202.46) rotate(-88.13)"/><rect class="cls-1" x="130.16" y="66.39" width="4.1" height="4" transform="translate(59.55 198.31) rotate(-88.13)"/><rect class="cls-1" x="126.16" y="66.23" width="4.1" height="4" transform="translate(55.85 194.15) rotate(-88.13)"/><rect class="cls-1" x="122.07" y="66.07" width="4.1" height="4" transform="translate(52.04 189.9) rotate(-88.13)"/><rect class="cls-1" x="118.06" y="66.01" width="4.1" height="4" transform="translate(48.23 185.84) rotate(-88.13)"/><rect class="cls-1" x="114.07" y="65.84" width="4.1" height="4" transform="translate(44.53 181.69) rotate(-88.13)"/><rect class="cls-1" x="109.97" y="65.68" width="4.1" height="4" transform="translate(40.73 177.43) rotate(-88.13)"/><rect class="cls-1" x="105.97" y="65.62" width="4.1" height="4" transform="translate(36.92 173.38) rotate(-88.13)"/><rect class="cls-1" x="101.97" y="65.46" width="4.1" height="4" transform="translate(33.21 169.22) rotate(-88.13)"/><rect class="cls-1" x="97.87" y="65.29" width="4.1" height="4" transform="translate(29.41 164.97) rotate(-88.13)"/><rect class="cls-1" x="93.87" y="65.23" width="4.1" height="4" transform="translate(25.6 160.91) rotate(-88.13)"/><rect class="cls-1" x="89.87" y="65.07" width="4.1" height="4" transform="translate(21.89 156.76) rotate(-88.13)"/><rect class="cls-1" x="85.77" y="64.91" width="4.1" height="4" transform="translate(18.09 152.51) rotate(-88.13)"/><rect class="cls-1" x="81.77" y="64.85" width="4.1" height="4" transform="translate(14.28 148.45) rotate(-88.13)"/><rect class="cls-1" x="77.77" y="64.69" width="4.1" height="4" transform="translate(10.57 144.3) rotate(-88.13)"/><rect class="cls-1" x="73.67" y="64.52" width="4.1" height="4" transform="translate(6.77 140.04) rotate(-88.13)"/><rect class="cls-1" x="69.68" y="64.36" width="4.1" height="4" transform="translate(3.06 135.89) rotate(-88.13)"/><rect class="cls-1" x="65.67" y="64.3" width="4.1" height="4" transform="translate(-.75 131.83) rotate(-88.13)"/><rect class="cls-1" x="61.68" y="64.14" width="4.1" height="4" transform="translate(-4.46 127.68) rotate(-88.13)"/><rect class="cls-1" x="57.58" y="63.98" width="4.1" height="4" transform="translate(-8.26 123.43) rotate(-88.13)"/><rect class="cls-1" x="53.58" y="63.92" width="4.1" height="4" transform="translate(-12.07 119.37) rotate(-88.13)"/><rect class="cls-1" x="49.58" y="63.76" width="4.1" height="4" transform="translate(-15.78 115.22) rotate(-88.13)"/><rect class="cls-1" x="41.48" y="63.53" width="4.1" height="4" transform="translate(-23.39 106.9) rotate(-88.13)"/><rect class="cls-1" x="37.48" y="63.37" width="4.1" height="4" transform="translate(-27.09 102.75) rotate(-88.13)"/><rect class="cls-1" x="33.38" y="63.21" width="4.1" height="4" transform="translate(-30.9 98.5) rotate(-88.13)"/><rect class="cls-1" x="29.38" y="63.15" width="4.1" height="4" transform="translate(-34.71 94.44) rotate(-88.13)"/><rect class="cls-1" x="142.38" y="62.72" width="4.1" height="4" transform="translate(75.04 206.97) rotate(-88.13)"/><rect class="cls-1" x="134.28" y="62.4" width="4.1" height="4" transform="translate(67.53 198.56) rotate(-88.13)"/><rect class="cls-1" x="130.28" y="62.34" width="4.1" height="4" transform="translate(63.72 194.5) rotate(-88.13)"/><rect class="cls-1" x="126.28" y="62.18" width="4.1" height="4" transform="translate(60.01 190.35) rotate(-88.13)"/><rect class="cls-1" x="122.18" y="62.01" width="4.1" height="4" transform="translate(56.21 186.1) rotate(-88.13)"/><rect class="cls-1" x="118.18" y="61.85" width="4.1" height="4" transform="translate(52.5 181.94) rotate(-88.13)"/><rect class="cls-1" x="114.18" y="61.79" width="4.1" height="4" transform="translate(48.69 177.89) rotate(-88.13)"/><rect class="cls-1" x="110.09" y="61.63" width="4.1" height="4" transform="translate(44.89 173.63) rotate(-88.13)"/><rect class="cls-1" x="106.09" y="61.47" width="4.1" height="4" transform="translate(41.18 169.48) rotate(-88.13)"/><rect class="cls-1" x="102.09" y="61.41" width="4.1" height="4" transform="translate(37.37 165.42) rotate(-88.13)"/><rect class="cls-1" x="97.99" y="61.24" width="4.1" height="4" transform="translate(33.57 161.17) rotate(-88.13)"/><rect class="cls-1" x="93.99" y="61.08" width="4.1" height="4" transform="translate(29.86 157.02) rotate(-88.13)"/><rect class="cls-1" x="89.99" y="61.02" width="4.1" height="4" transform="translate(26.05 152.96) rotate(-88.13)"/><rect class="cls-1" x="85.99" y="60.86" width="4.1" height="4" transform="translate(22.35 148.81) rotate(-88.13)"/><rect class="cls-1" x="81.89" y="60.7" width="4.1" height="4" transform="translate(18.55 144.55) rotate(-88.13)"/><rect class="cls-1" x="77.89" y="60.63" width="4.1" height="4" transform="translate(14.73 140.49) rotate(-88.13)"/><rect class="cls-1" x="73.89" y="60.47" width="4.1" height="4" transform="translate(11.03 136.34) rotate(-88.13)"/><rect class="cls-1" x="69.79" y="60.31" width="4.1" height="4" transform="translate(7.23 132.09) rotate(-88.13)"/><rect class="cls-1" x="65.79" y="60.15" width="4.1" height="4" transform="translate(3.52 127.93) rotate(-88.13)"/><rect class="cls-1" x="61.79" y="60.09" width="4.1" height="4" transform="translate(-.29 123.88) rotate(-88.13)"/><rect class="cls-1" x="57.69" y="59.92" width="4.1" height="4" transform="translate(-4.09 119.62) rotate(-88.13)"/><rect class="cls-1" x="53.7" y="59.76" width="4.1" height="4" transform="translate(-7.8 115.47) rotate(-88.13)"/><rect class="cls-1" x="49.7" y="59.7" width="4.1" height="4" transform="translate(-11.61 111.41) rotate(-88.13)"/><rect class="cls-1" x="41.6" y="59.38" width="4.1" height="4" transform="translate(-19.12 103.01) rotate(-88.13)"/><rect class="cls-1" x="37.6" y="59.32" width="4.1" height="4" transform="translate(-22.93 98.95) rotate(-88.13)"/><rect class="cls-1" x="33.5" y="59.15" width="4.1" height="4" transform="translate(-26.73 94.69) rotate(-88.13)"/><rect class="cls-1" x="142.5" y="58.57" width="4.1" height="4" transform="translate(79.3 203.07) rotate(-88.13)"/><rect class="cls-1" x="138.5" y="58.51" width="4.1" height="4" transform="translate(75.49 199.01) rotate(-88.13)"/><rect class="cls-1" x="130.4" y="58.18" width="4.1" height="4" transform="translate(67.99 190.6) rotate(-88.13)"/><rect class="cls-1" x="126.4" y="58.12" width="4.1" height="4" transform="translate(64.18 186.55) rotate(-88.13)"/><rect class="cls-1" x="122.4" y="57.96" width="4.1" height="4" transform="translate(60.47 182.4) rotate(-88.13)"/><rect class="cls-1" x="118.3" y="57.8" width="4.1" height="4" transform="translate(56.67 178.14) rotate(-88.13)"/><rect class="cls-1" x="114.3" y="57.64" width="4.1" height="4" transform="translate(52.96 173.99) rotate(-88.13)"/><rect class="cls-1" x="110.3" y="57.58" width="4.1" height="4" transform="translate(49.15 169.93) rotate(-88.13)"/><rect class="cls-1" x="106.2" y="57.41" width="4.1" height="4" transform="translate(45.35 165.68) rotate(-88.13)"/><rect class="cls-1" x="102.21" y="57.25" width="4.1" height="4" transform="translate(41.64 161.52) rotate(-88.13)"/><rect class="cls-1" x="98.2" y="57.19" width="4.1" height="4" transform="translate(37.83 157.47) rotate(-88.13)"/><rect class="cls-1" x="94.11" y="57.03" width="4.1" height="4" transform="translate(34.03 153.21) rotate(-88.13)"/><rect class="cls-1" x="90.11" y="56.87" width="4.1" height="4" transform="translate(30.32 149.06) rotate(-88.13)"/><rect class="cls-1" x="86.11" y="56.81" width="4.1" height="4" transform="translate(26.51 145) rotate(-88.13)"/><rect class="cls-1" x="82.01" y="56.64" width="4.1" height="4" transform="translate(22.71 140.75) rotate(-88.13)"/><rect class="cls-1" x="78.01" y="56.48" width="4.1" height="4" transform="translate(19 136.6) rotate(-88.13)"/><rect class="cls-1" x="74.01" y="56.32" width="4.1" height="4" transform="translate(15.3 132.44) rotate(-88.13)"/><rect class="cls-1" x="69.91" y="56.26" width="4.1" height="4" transform="translate(11.39 128.28) rotate(-88.13)"/><rect class="cls-1" x="65.91" y="56.1" width="4.1" height="4" transform="translate(7.68 124.13) rotate(-88.13)"/><rect class="cls-1" x="61.91" y="55.94" width="4.1" height="4" transform="translate(3.98 119.98) rotate(-88.13)"/><rect class="cls-1" x="57.81" y="55.87" width="4.1" height="4" transform="translate(.07 115.82) rotate(-88.13)"/><rect class="cls-1" x="138.62" y="54.36" width="4.1" height="4" transform="translate(79.76 195.11) rotate(-88.13)"/><rect class="cls-1" x="134.62" y="54.29" width="4.1" height="4" transform="translate(75.95 191.06) rotate(-88.13)"/><rect class="cls-1" x="130.52" y="54.13" width="4.1" height="4" transform="translate(72.15 186.8) rotate(-88.13)"/><rect class="cls-1" x="126.52" y="53.97" width="4.1" height="4" transform="translate(68.44 182.65) rotate(-88.13)"/><rect class="cls-1" x="122.52" y="53.81" width="4.1" height="4" transform="translate(64.74 178.5) rotate(-88.13)"/><rect class="cls-1" x="118.42" y="53.75" width="4.1" height="4" transform="translate(60.83 174.34) rotate(-88.13)"/><rect class="cls-1" x="114.42" y="53.58" width="4.1" height="4" transform="translate(57.12 170.19) rotate(-88.13)"/><rect class="cls-1" x="110.42" y="53.42" width="4.1" height="4" transform="translate(53.42 166.03) rotate(-88.13)"/><rect class="cls-1" x="106.32" y="53.36" width="4.1" height="4" transform="translate(49.51 161.87) rotate(-88.13)"/><rect class="cls-1" x="102.32" y="53.2" width="4.1" height="4" transform="translate(45.81 157.72) rotate(-88.13)"/><rect class="cls-1" x="98.33" y="53.04" width="4.1" height="4" transform="translate(42.1 153.57) rotate(-88.13)"/><rect class="cls-1" x="94.22" y="52.97" width="4.1" height="4" transform="translate(38.19 149.41) rotate(-88.13)"/><rect class="cls-1" x="90.23" y="52.81" width="4.1" height="4" transform="translate(34.49 145.26) rotate(-88.13)"/><rect class="cls-1" x="86.23" y="52.65" width="4.1" height="4" transform="translate(30.78 141.1) rotate(-88.13)"/><rect class="cls-1" x="82.23" y="52.59" width="4.1" height="4" transform="translate(26.97 137.05) rotate(-88.13)"/><rect class="cls-1" x="78.13" y="52.43" width="4.1" height="4" transform="translate(23.17 132.79) rotate(-88.13)"/><rect class="cls-1" x="134.74" y="50.14" width="4.1" height="4" transform="translate(80.22 187.16) rotate(-88.13)"/><rect class="cls-1" x="118.54" y="49.59" width="4.1" height="4" transform="translate(65.1 170.44) rotate(-88.13)"/><rect class="cls-1" x="114.54" y="49.53" width="4.1" height="4" transform="translate(61.29 166.38) rotate(-88.13)"/><rect class="cls-1" x="110.54" y="49.37" width="4.1" height="4" transform="translate(57.58 162.23) rotate(-88.13)"/><rect class="cls-1" x="106.54" y="49.21" width="4.1" height="4" transform="translate(53.87 158.08) rotate(-88.13)"/><rect class="cls-1" x="102.44" y="49.15" width="4.1" height="4" transform="translate(49.97 153.92) rotate(-88.13)"/><rect class="cls-1" x="98.44" y="48.99" width="4.1" height="4" transform="translate(46.26 149.77) rotate(-88.13)"/><rect class="cls-1" x="94.45" y="48.82" width="4.1" height="4" transform="translate(42.56 145.61) rotate(-88.13)"/><rect class="cls-1" x="90.34" y="48.76" width="4.1" height="4" transform="translate(38.65 141.45) rotate(-88.13)"/><rect class="cls-1" x="86.35" y="48.6" width="4.1" height="4" transform="translate(34.94 137.3) rotate(-88.13)"/><rect class="cls-1" x="82.35" y="48.44" width="4.1" height="4" transform="translate(31.24 133.15) rotate(-88.13)"/><rect class="cls-1" x="118.76" y="45.54" width="4.1" height="4" transform="translate(69.36 166.74) rotate(-88.13)"/><rect class="cls-1" x="114.66" y="45.38" width="4.1" height="4" transform="translate(65.56 162.48) rotate(-88.13)"/><rect class="cls-1" x="110.66" y="45.32" width="4.1" height="4" transform="translate(61.75 158.43) rotate(-88.13)"/><rect class="cls-1" x="106.66" y="45.16" width="4.1" height="4" transform="translate(58.04 154.28) rotate(-88.13)"/><rect class="cls-1" x="102.56" y="44.99" width="4.1" height="4" transform="translate(54.24 150.02) rotate(-88.13)"/><rect class="cls-1" x="98.56" y="44.93" width="4.1" height="4" transform="translate(50.43 145.96) rotate(-88.13)"/><rect class="cls-1" x="94.56" y="44.77" width="4.1" height="4" transform="translate(46.72 141.81) rotate(-88.13)"/><rect class="cls-1" x="90.46" y="44.61" width="4.1" height="4" transform="translate(42.92 137.56) rotate(-88.13)"/><rect class="cls-1" x="86.46" y="44.55" width="4.1" height="4" transform="translate(39.11 133.5) rotate(-88.13)"/><rect class="cls-1" x="114.78" y="41.33" width="4.1" height="4" transform="translate(69.72 158.68) rotate(-88.13)"/><rect class="cls-1" x="110.78" y="41.16" width="4.1" height="4" transform="translate(66.02 154.53) rotate(-88.13)"/><rect class="cls-1" x="106.78" y="41.1" width="4.1" height="4" transform="translate(62.2 150.47) rotate(-88.13)"/><rect class="cls-1" x="102.78" y="40.94" width="4.1" height="4" transform="translate(58.5 146.32) rotate(-88.13)"/><rect class="cls-1" x="98.68" y="40.78" width="4.1" height="4" transform="translate(54.7 142.07) rotate(-88.13)"/><rect class="cls-1" x="94.68" y="40.72" width="4.1" height="4" transform="translate(50.89 138.01) rotate(-88.13)"/><rect class="cls-1" x="90.68" y="40.56" width="4.1" height="4" transform="translate(47.18 133.86) rotate(-88.13)"/><rect class="cls-1" x="86.58" y="40.39" width="4.1" height="4" transform="translate(43.38 129.6) rotate(-88.13)"/><rect class="cls-1" x="110.9" y="37.11" width="4.1" height="4" transform="translate(70.18 150.73) rotate(-88.13)"/><rect class="cls-1" x="106.9" y="36.95" width="4.1" height="4" transform="translate(66.47 146.57) rotate(-88.13)"/><rect class="cls-1" x="102.9" y="36.89" width="4.1" height="4" transform="translate(62.66 142.52) rotate(-88.13)"/><rect class="cls-1" x="98.8" y="36.73" width="4.1" height="4" transform="translate(58.86 138.26) rotate(-88.13)"/><rect class="cls-1" x="94.8" y="36.57" width="4.1" height="4" transform="translate(55.15 134.11) rotate(-88.13)"/><rect class="cls-1" x="90.8" y="36.5" width="4.1" height="4" transform="translate(51.34 130.05) rotate(-88.13)"/><rect class="cls-1" x="86.7" y="36.34" width="4.1" height="4" transform="translate(47.54 125.8) rotate(-88.13)"/><rect class="cls-1" x="82.7" y="36.18" width="4.1" height="4" transform="translate(43.84 121.65) rotate(-88.13)"/><rect class="cls-1" x="78.7" y="36.12" width="4.1" height="4" transform="translate(40.02 117.59) rotate(-88.13)"/><rect class="cls-1" x="74.6" y="35.95" width="4.1" height="4" transform="translate(36.22 113.33) rotate(-88.13)"/><rect class="cls-1" x="111.02" y="33.06" width="4.1" height="4" transform="translate(74.35 146.92) rotate(-88.13)"/><rect class="cls-1" x="107.02" y="32.9" width="4.1" height="4" transform="translate(70.64 142.77) rotate(-88.13)"/><rect class="cls-1" x="103.02" y="32.74" width="4.1" height="4" transform="translate(66.93 138.62) rotate(-88.13)"/><rect class="cls-1" x="98.92" y="32.67" width="4.1" height="4" transform="translate(63.03 134.46) rotate(-88.13)"/><rect class="cls-1" x="94.92" y="32.51" width="4.1" height="4" transform="translate(59.32 130.31) rotate(-88.13)"/><rect class="cls-1" x="90.92" y="32.35" width="4.1" height="4" transform="translate(55.61 126.15) rotate(-88.13)"/><rect class="cls-1" x="86.92" y="32.29" width="4.1" height="4" transform="translate(51.8 122.1) rotate(-88.13)"/><rect class="cls-1" x="82.82" y="32.13" width="4.1" height="4" transform="translate(48 117.84) rotate(-88.13)"/><rect class="cls-1" x="78.82" y="31.97" width="4.1" height="4" transform="translate(44.29 113.69) rotate(-88.13)"/><rect class="cls-1" x="74.83" y="31.8" width="4.1" height="4" transform="translate(40.59 109.54) rotate(-88.13)"/><rect class="cls-1" x="70.72" y="31.74" width="4.1" height="4" transform="translate(36.68 105.38) rotate(-88.13)"/><rect class="cls-1" x="66.73" y="31.58" width="4.1" height="4" transform="translate(32.97 101.23) rotate(-88.13)"/><rect class="cls-1" x="111.24" y="28.91" width="4.1" height="4" transform="translate(78.71 143.13) rotate(-88.13)"/><rect class="cls-1" x="107.14" y="28.84" width="4.1" height="4" transform="translate(74.8 138.97) rotate(-88.13)"/><rect class="cls-1" x="103.14" y="28.68" width="4.1" height="4" transform="translate(71.1 134.82) rotate(-88.13)"/><rect class="cls-1" x="99.14" y="28.52" width="4.1" height="4" transform="translate(67.39 130.66) rotate(-88.13)"/><rect class="cls-1" x="95.04" y="28.46" width="4.1" height="4" transform="translate(63.48 126.5) rotate(-88.13)"/><rect class="cls-1" x="91.04" y="28.3" width="4.1" height="4" transform="translate(59.78 122.35) rotate(-88.13)"/><rect class="cls-1" x="87.04" y="28.14" width="4.1" height="4" transform="translate(56.07 118.2) rotate(-88.13)"/><rect class="cls-1" x="82.94" y="28.07" width="4.1" height="4" transform="translate(52.17 114.04) rotate(-88.13)"/><rect class="cls-1" x="78.94" y="27.91" width="4.1" height="4" transform="translate(48.46 109.89) rotate(-88.13)"/><rect class="cls-1" x="74.94" y="27.75" width="4.1" height="4" transform="translate(44.75 105.74) rotate(-88.13)"/><rect class="cls-1" x="70.84" y="27.59" width="4.1" height="4" transform="translate(40.95 101.48) rotate(-88.13)"/><rect class="cls-1" x="131.45" y="25.56" width="4.1" height="4" transform="translate(101.61 160.09) rotate(-88.13)"/><rect class="cls-1" x="127.45" y="25.4" width="4.1" height="4" transform="translate(97.9 155.94) rotate(-88.13)"/><rect class="cls-1" x="107.26" y="24.69" width="4.1" height="4" transform="translate(79.07 135.07) rotate(-88.13)"/><rect class="cls-1" x="103.26" y="24.63" width="4.1" height="4" transform="translate(75.26 131.01) rotate(-88.13)"/><rect class="cls-1" x="99.26" y="24.47" width="4.1" height="4" transform="translate(71.55 126.86) rotate(-88.13)"/><rect class="cls-1" x="95.16" y="24.31" width="4.1" height="4" transform="translate(67.75 122.61) rotate(-88.13)"/><rect class="cls-1" x="91.16" y="24.24" width="4.1" height="4" transform="translate(63.94 118.55) rotate(-88.13)"/><rect class="cls-1" x="87.16" y="24.08" width="4.1" height="4" transform="translate(60.23 114.4) rotate(-88.13)"/><rect class="cls-1" x="83.16" y="23.92" width="4.1" height="4" transform="translate(56.53 110.24) rotate(-88.13)"/><rect class="cls-1" x="79.06" y="23.86" width="4.1" height="4" transform="translate(52.62 106.08) rotate(-88.13)"/><rect class="cls-1" x="75.06" y="23.7" width="4.1" height="4" transform="translate(48.92 101.93) rotate(-88.13)"/><rect class="cls-1" x="71.06" y="23.54" width="4.1" height="4" transform="translate(45.21 97.78) rotate(-88.13)"/><rect class="cls-1" x="131.57" y="21.41" width="4.1" height="4" transform="translate(105.87 156.2) rotate(-88.13)"/><rect class="cls-1" x="127.57" y="21.35" width="4.1" height="4" transform="translate(102.06 152.14) rotate(-88.13)"/><rect class="cls-1" x="123.57" y="21.19" width="4.1" height="4" transform="translate(98.36 147.99) rotate(-88.13)"/><rect class="cls-1" x="119.47" y="21.02" width="4.1" height="4" transform="translate(94.55 143.73) rotate(-88.13)"/><rect class="cls-1" x="115.47" y="20.86" width="4.1" height="4" transform="translate(90.85 139.58) rotate(-88.13)"/><rect class="cls-1" x="111.47" y="20.8" width="4.1" height="4" transform="translate(87.04 135.52) rotate(-88.13)"/><rect class="cls-1" x="107.47" y="20.64" width="4.1" height="4" transform="translate(83.33 131.37) rotate(-88.13)"/><rect class="cls-1" x="103.38" y="20.48" width="4.1" height="4" transform="translate(79.53 127.12) rotate(-88.13)"/><rect class="cls-1" x="99.37" y="20.42" width="4.1" height="4" transform="translate(75.72 123.06) rotate(-88.13)"/><rect class="cls-1" x="95.38" y="20.26" width="4.1" height="4" transform="translate(72.01 118.91) rotate(-88.13)"/><rect class="cls-1" x="91.28" y="20.09" width="4.1" height="4" transform="translate(68.21 114.65) rotate(-88.13)"/><rect class="cls-1" x="87.28" y="20.03" width="4.1" height="4" transform="translate(64.4 110.59) rotate(-88.13)"/><rect class="cls-1" x="83.28" y="19.87" width="4.1" height="4" transform="translate(60.69 106.44) rotate(-88.13)"/><rect class="cls-1" x="71.18" y="19.48" width="4.1" height="4" transform="translate(49.37 93.98) rotate(-88.13)"/><rect class="cls-1" x="131.79" y="17.36" width="4.1" height="4" transform="translate(110.13 152.5) rotate(-88.13)"/><rect class="cls-1" x="127.69" y="17.19" width="4.1" height="4" transform="translate(106.33 148.24) rotate(-88.13)"/><rect class="cls-1" x="123.69" y="17.13" width="4.1" height="4" transform="translate(102.52 144.18) rotate(-88.13)"/><rect class="cls-1" x="119.69" y="16.97" width="4.1" height="4" transform="translate(98.81 140.03) rotate(-88.13)"/><rect class="cls-1" x="115.59" y="16.81" width="4.1" height="4" transform="translate(95.01 135.78) rotate(-88.13)"/><rect class="cls-1" x="111.59" y="16.65" width="4.1" height="4" transform="translate(91.3 131.62) rotate(-88.13)"/><rect class="cls-1" x="107.59" y="16.59" width="4.1" height="4" transform="translate(87.49 127.57) rotate(-88.13)"/><rect class="cls-1" x="103.49" y="16.42" width="4.1" height="4" transform="translate(83.69 123.31) rotate(-88.13)"/><rect class="cls-1" x="99.5" y="16.26" width="4.1" height="4" transform="translate(79.99 119.16) rotate(-88.13)"/><rect class="cls-1" x="95.49" y="16.2" width="4.1" height="4" transform="translate(76.18 115.1) rotate(-88.13)"/><rect class="cls-1" x="91.4" y="16.04" width="4.1" height="4" transform="translate(72.37 110.85) rotate(-88.13)"/><rect class="cls-1" x="87.4" y="15.88" width="4.1" height="4" transform="translate(68.67 106.7) rotate(-88.13)"/><rect class="cls-1" x="83.4" y="15.82" width="4.1" height="4" transform="translate(64.86 102.64) rotate(-88.13)"/><rect class="cls-1" x="75.3" y="15.49" width="4.1" height="4" transform="translate(57.35 94.23) rotate(-88.13)"/><rect class="cls-1" x="127.81" y="13.14" width="4.1" height="4" transform="translate(110.5 144.44) rotate(-88.13)"/><rect class="cls-1" x="123.81" y="12.98" width="4.1" height="4" transform="translate(106.79 140.29) rotate(-88.13)"/><rect class="cls-1" x="119.81" y="12.82" width="4.1" height="4" transform="translate(103.08 136.13) rotate(-88.13)"/><rect class="cls-1" x="115.71" y="12.76" width="4.1" height="4" transform="translate(99.18 131.97) rotate(-88.13)"/><rect class="cls-1" x="111.71" y="12.6" width="4.1" height="4" transform="translate(95.47 127.82) rotate(-88.13)"/><rect class="cls-1" x="107.71" y="12.43" width="4.1" height="4" transform="translate(91.76 123.67) rotate(-88.13)"/><rect class="cls-1" x="103.61" y="12.37" width="4.1" height="4" transform="translate(87.86 119.51) rotate(-88.13)"/><rect class="cls-1" x="99.61" y="12.21" width="4.1" height="4" transform="translate(84.15 115.36) rotate(-88.13)"/><rect class="cls-1" x="95.62" y="12.05" width="4.1" height="4" transform="translate(80.44 111.21) rotate(-88.13)"/><rect class="cls-1" x="91.61" y="11.99" width="4.1" height="4" transform="translate(76.63 107.15) rotate(-88.13)"/><rect class="cls-1" x="87.52" y="11.82" width="4.1" height="4" transform="translate(72.83 102.89) rotate(-88.13)"/><rect class="cls-1" x="83.52" y="11.66" width="4.1" height="4" transform="translate(69.12 98.74) rotate(-88.13)"/><rect class="cls-1" x="123.93" y="8.93" width="4.1" height="4" transform="translate(110.95 136.48) rotate(-88.13)"/><rect class="cls-1" x="119.93" y="8.77" width="4.1" height="4" transform="translate(107.25 132.33) rotate(-88.13)"/><rect class="cls-1" x="115.93" y="8.61" width="4.1" height="4" transform="translate(103.54 128.18) rotate(-88.13)"/><rect class="cls-1" x="111.83" y="8.54" width="4.1" height="4" transform="translate(99.63 124.02) rotate(-88.13)"/><rect class="cls-1" x="107.83" y="8.38" width="4.1" height="4" transform="translate(95.93 119.87) rotate(-88.13)"/><rect class="cls-1" x="103.83" y="8.22" width="4.1" height="4" transform="translate(92.22 115.71) rotate(-88.13)"/><rect class="cls-1" x="99.73" y="8.16" width="4.1" height="4" transform="translate(88.32 111.55) rotate(-88.13)"/><rect class="cls-1" x="95.73" y="8" width="4.1" height="4" transform="translate(84.61 107.4) rotate(-88.13)"/><rect class="cls-1" x="91.73" y="7.84" width="4.1" height="4" transform="translate(80.9 103.25) rotate(-88.13)"/><rect class="cls-1" x="79.64" y="7.45" width="4.1" height="4" transform="translate(69.58 90.79) rotate(-88.13)"/><rect class="cls-1" x="124.04" y="4.87" width="4.1" height="4" transform="translate(115.12 132.68) rotate(-88.13)"/><rect class="cls-1" x="120.05" y="4.71" width="4.1" height="4" transform="translate(111.41 128.53) rotate(-88.13)"/><rect class="cls-1" x="116.05" y="4.55" width="4.1" height="4" transform="translate(107.7 124.38) rotate(-88.13)"/><rect class="cls-1" x="111.95" y="4.39" width="4.1" height="4" transform="translate(103.9 120.12) rotate(-88.13)"/><rect class="cls-1" x="107.95" y="4.33" width="4.1" height="4" transform="translate(100.09 116.06) rotate(-88.13)"/><rect class="cls-1" x="103.95" y="4.17" width="4.1" height="4" transform="translate(96.39 111.91) rotate(-88.13)"/><rect class="cls-1" x="99.85" y="4" width="4.1" height="4" transform="translate(92.58 107.66) rotate(-88.13)"/><rect class="cls-1" x="95.85" y="3.94" width="4.1" height="4" transform="translate(88.77 103.6) rotate(-88.13)"/><rect class="cls-1" x="120.17" y=".56" width="4.1" height="4" transform="translate(115.68 124.63) rotate(-88.13)"/><rect class="cls-1" x="116.17" y=".5" width="4.1" height="4" transform="translate(111.87 120.57) rotate(-88.13)"/><rect class="cls-1" x="112.17" y=".34" width="4.1" height="4" transform="translate(108.16 116.42) rotate(-88.13)"/><rect class="cls-1" x="108.07" y=".17" width="4.1" height="4" transform="translate(104.36 112.17) rotate(-88.13)"/><rect class="cls-1" x="104.07" y=".11" width="4.1" height="4" transform="translate(100.55 108.11) rotate(-88.13)"/></svg>