<svg width="743" height="283" viewBox="0 0 743 283" fill="none" xmlns="http://www.w3.org/2000/svg">
<path d="M61.8221 98.0768C61.1565 98.0768 60.624 98.6093 60.624 99.2749V136.815C60.624 137.48 61.1565 138.013 61.8221 138.013H62.0883C62.7539 138.013 63.2864 138.545 63.2864 139.211V139.477C63.2864 140.143 63.8189 140.675 64.4845 140.675H64.7507C65.4163 140.675 65.9488 141.208 65.9488 141.873V142.14C65.9488 142.805 66.4813 143.338 67.1469 143.338H70.0755C70.7411 143.338 71.2736 143.87 71.2736 144.536V144.802C71.2736 145.468 70.7411 146 70.0755 146H40.5229C39.8573 146 39.3248 145.468 39.3248 144.802V144.536C39.3248 143.87 39.8573 143.338 40.5229 143.338H43.4515C44.1171 143.338 44.6496 142.805 44.6496 142.14V141.873C44.6496 141.208 45.1821 140.675 45.8477 140.675H46.1139C46.7795 140.675 47.312 140.143 47.312 139.477V139.211C47.312 138.545 47.8445 138.013 48.5101 138.013H48.7763C49.4419 138.013 49.9744 137.48 49.9744 136.815V54.0141C49.9744 53.3485 49.4419 52.816 48.7763 52.816H48.5101C47.8445 52.816 47.312 52.2835 47.312 51.6179V51.3517C47.312 50.6861 46.7795 50.1536 46.1139 50.1536H45.8477C45.1821 50.1536 44.6496 49.6211 44.6496 48.9555V48.6893C44.6496 48.0237 44.1171 47.4912 43.4515 47.4912H40.5229C39.8573 47.4912 39.3248 46.9587 39.3248 46.2931V46.0269C39.3248 45.3613 39.8573 44.8288 40.5229 44.8288H94.0371C94.7027 44.8288 95.2352 45.3613 95.2352 46.0269V67.5923C95.2352 68.2579 94.7027 68.7904 94.0371 68.7904H93.7709C93.1053 68.7904 92.5728 68.2579 92.5728 67.5923V62.0013C92.5728 61.3357 92.0403 60.8032 91.3747 60.8032H91.1085C90.4429 60.8032 89.9104 60.2707 89.9104 59.6051V56.6765C89.9104 56.0109 89.3779 55.4784 88.7123 55.4784H88.4461C87.7805 55.4784 87.248 54.9459 87.248 54.2803V54.0141C87.248 53.3485 86.7155 52.816 86.0499 52.816H85.7837C85.1181 52.816 84.5856 52.2835 84.5856 51.6179V51.3517C84.5856 50.6861 84.0531 50.1536 83.3875 50.1536H64.4845C63.8189 50.1536 63.2864 50.6861 63.2864 51.3517V51.6179C63.2864 52.2835 62.7539 52.816 62.0883 52.816H61.8221C61.1565 52.816 60.624 53.3485 60.624 54.0141V91.5539C60.624 92.2195 61.1565 92.752 61.8221 92.752H78.0627C78.7283 92.752 79.2608 92.2195 79.2608 91.5539V91.2877C79.2608 90.6221 79.7933 90.0896 80.4589 90.0896H80.7251C81.3907 90.0896 81.9232 89.5571 81.9232 88.8915V88.6253C81.9232 87.9597 82.4557 87.4272 83.1213 87.4272H83.3875C84.0531 87.4272 84.5856 86.8947 84.5856 86.2291V85.9629C84.5856 85.2973 85.1181 84.7648 85.7837 84.7648H86.0499C86.7155 84.7648 87.248 84.2323 87.248 83.5667V77.9757C87.248 77.3101 87.7805 76.7776 88.4461 76.7776H88.7123C89.3779 76.7776 89.9104 77.3101 89.9104 77.9757V112.853C89.9104 113.519 89.3779 114.051 88.7123 114.051H88.4461C87.7805 114.051 87.248 113.519 87.248 112.853V107.262C87.248 106.596 86.7155 106.064 86.0499 106.064H85.7837C85.1181 106.064 84.5856 105.532 84.5856 104.866V104.6C84.5856 103.934 84.0531 103.402 83.3875 103.402H83.1213C82.4557 103.402 81.9232 102.869 81.9232 102.204V101.937C81.9232 101.272 81.3907 100.739 80.7251 100.739H80.4589C79.7933 100.739 79.2608 100.207 79.2608 99.5411V99.2749C79.2608 98.6093 78.7283 98.0768 78.0627 98.0768H61.8221ZM101.758 146C101.092 146 100.56 145.468 100.56 144.802V144.536C100.56 143.87 101.092 143.338 101.758 143.338H104.687C105.352 143.338 105.885 142.805 105.885 142.14V141.873C105.885 141.208 106.417 140.675 107.083 140.675H107.349C108.015 140.675 108.547 140.143 108.547 139.477V139.211C108.547 138.545 109.08 138.013 109.745 138.013H110.012C110.677 138.013 111.21 137.48 111.21 136.815V54.0141C111.21 53.3485 110.677 52.816 110.012 52.816H109.745C109.08 52.816 108.547 52.2835 108.547 51.6179V51.3517C108.547 50.6861 108.015 50.1536 107.349 50.1536H107.083C106.417 50.1536 105.885 49.6211 105.885 48.9555V48.6893C105.885 48.0237 105.352 47.4912 104.687 47.4912H101.758C101.092 47.4912 100.56 46.9587 100.56 46.2931V46.0269C100.56 45.3613 101.092 44.8288 101.758 44.8288H131.311C131.976 44.8288 132.509 45.3613 132.509 46.0269V46.2931C132.509 46.9587 131.976 47.4912 131.311 47.4912H128.382C127.716 47.4912 127.184 48.0237 127.184 48.6893V48.9555C127.184 49.6211 126.652 50.1536 125.986 50.1536H125.72C125.054 50.1536 124.522 50.6861 124.522 51.3517V51.6179C124.522 52.2835 123.989 52.816 123.324 52.816H123.057C122.392 52.816 121.859 53.3485 121.859 54.0141V136.815C121.859 137.48 122.392 138.013 123.057 138.013H123.324C123.989 138.013 124.522 138.545 124.522 139.211V139.477C124.522 140.143 125.054 140.675 125.72 140.675H147.285C147.951 140.675 148.483 140.143 148.483 139.477V139.211C148.483 138.545 149.016 138.013 149.681 138.013H149.948C150.613 138.013 151.146 137.48 151.146 136.815V136.548C151.146 135.883 151.678 135.35 152.344 135.35H152.61C153.276 135.35 153.808 134.818 153.808 134.152V131.224C153.808 130.558 154.34 130.026 155.006 130.026H155.272C155.938 130.026 156.47 129.493 156.47 128.828V120.574C156.47 119.908 157.003 119.376 157.668 119.376H157.935C158.6 119.376 159.133 119.908 159.133 120.574V142.14C159.133 142.805 158.6 143.338 157.935 143.338H157.668C157.003 143.338 156.47 143.87 156.47 144.536V144.802C156.47 145.468 155.938 146 155.272 146H101.758ZM187.017 146C186.352 146 185.819 145.468 185.819 144.802V144.536C185.819 143.87 185.287 143.338 184.621 143.338H181.692C181.027 143.338 180.494 142.805 180.494 142.14V141.873C180.494 141.208 179.962 140.675 179.296 140.675H179.03C178.364 140.675 177.832 140.143 177.832 139.477V139.211C177.832 138.545 177.3 138.013 176.634 138.013H176.368C175.702 138.013 175.17 137.48 175.17 136.815V136.548C175.17 135.883 174.637 135.35 173.972 135.35H173.705C173.04 135.35 172.507 134.818 172.507 134.152V133.886C172.507 133.22 171.975 132.688 171.309 132.688H171.043C170.377 132.688 169.845 132.156 169.845 131.49V131.224C169.845 130.558 169.312 130.026 168.647 130.026H168.38C167.715 130.026 167.182 129.493 167.182 128.828V125.899C167.182 125.233 166.65 124.701 165.984 124.701H165.718C165.052 124.701 164.52 124.168 164.52 123.503V117.912C164.52 117.246 163.988 116.714 163.322 116.714H163.056C162.39 116.714 161.858 116.181 161.858 115.516V75.3133C161.858 74.6477 162.39 74.1152 163.056 74.1152H163.322C163.988 74.1152 164.52 73.5827 164.52 72.9171V69.9885C164.52 69.3229 165.052 68.7904 165.718 68.7904H165.984C166.65 68.7904 167.182 68.2579 167.182 67.5923V62.0013C167.182 61.3357 167.715 60.8032 168.38 60.8032H168.647C169.312 60.8032 169.845 60.2707 169.845 59.6051V59.3389C169.845 58.6733 170.377 58.1408 171.043 58.1408H171.309C171.975 58.1408 172.507 57.6083 172.507 56.9427V56.6765C172.507 56.0109 173.04 55.4784 173.705 55.4784H173.972C174.637 55.4784 175.17 54.9459 175.17 54.2803V54.0141C175.17 53.3485 175.702 52.816 176.368 52.816H176.634C177.3 52.816 177.832 52.2835 177.832 51.6179V51.3517C177.832 50.6861 178.364 50.1536 179.03 50.1536H179.296C179.962 50.1536 180.494 49.6211 180.494 48.9555V48.6893C180.494 48.0237 181.027 47.4912 181.692 47.4912H184.621C185.287 47.4912 185.819 46.9587 185.819 46.2931V46.0269C185.819 45.3613 186.352 44.8288 187.017 44.8288H203.258C203.924 44.8288 204.456 45.3613 204.456 46.0269V46.2931C204.456 46.9587 204.988 47.4912 205.654 47.4912H208.583C209.248 47.4912 209.781 48.0237 209.781 48.6893V48.9555C209.781 49.6211 210.313 50.1536 210.979 50.1536H211.245C211.911 50.1536 212.443 50.6861 212.443 51.3517V51.6179C212.443 52.2835 212.976 52.816 213.641 52.816H213.908C214.573 52.816 215.106 53.3485 215.106 54.0141V54.2803C215.106 54.9459 215.638 55.4784 216.304 55.4784H216.57C217.236 55.4784 217.768 56.0109 217.768 56.6765V56.9427C217.768 57.6083 218.3 58.1408 218.966 58.1408H219.232C219.898 58.1408 220.43 58.6733 220.43 59.3389V59.6051C220.43 60.2707 220.963 60.8032 221.628 60.8032H221.895C222.56 60.8032 223.093 61.3357 223.093 62.0013V67.5923C223.093 68.2579 223.625 68.7904 224.291 68.7904H224.557C225.223 68.7904 225.755 69.3229 225.755 69.9885V72.9171C225.755 73.5827 226.288 74.1152 226.953 74.1152H227.22C227.885 74.1152 228.418 74.6477 228.418 75.3133V115.516C228.418 116.181 227.885 116.714 227.22 116.714H226.953C226.288 116.714 225.755 117.246 225.755 117.912V123.503C225.755 124.168 225.223 124.701 224.557 124.701H224.291C223.625 124.701 223.093 125.233 223.093 125.899V128.828C223.093 129.493 222.56 130.026 221.895 130.026H221.628C220.963 130.026 220.43 130.558 220.43 131.224V131.49C220.43 132.156 219.898 132.688 219.232 132.688H218.966C218.3 132.688 217.768 133.22 217.768 133.886V134.152C217.768 134.818 217.236 135.35 216.57 135.35H216.304C215.638 135.35 215.106 135.883 215.106 136.548V136.815C215.106 137.48 214.573 138.013 213.908 138.013H213.641C212.976 138.013 212.443 138.545 212.443 139.211V139.477C212.443 140.143 211.911 140.675 211.245 140.675H210.979C210.313 140.675 209.781 141.208 209.781 141.873V142.14C209.781 142.805 209.248 143.338 208.583 143.338H205.654C204.988 143.338 204.456 143.87 204.456 144.536V144.802C204.456 145.468 203.924 146 203.258 146H187.017ZM172.507 112.853C172.507 113.519 173.04 114.051 173.705 114.051H173.972C174.637 114.051 175.17 114.584 175.17 115.249V123.503C175.17 124.168 175.702 124.701 176.368 124.701H176.634C177.3 124.701 177.832 125.233 177.832 125.899V128.828C177.832 129.493 178.364 130.026 179.03 130.026H179.296C179.962 130.026 180.494 130.558 180.494 131.224V134.152C180.494 134.818 181.027 135.35 181.692 135.35H181.959C182.624 135.35 183.157 135.883 183.157 136.548V136.815C183.157 137.48 183.689 138.013 184.355 138.013H187.284C187.949 138.013 188.482 138.545 188.482 139.211V139.477C188.482 140.143 189.014 140.675 189.68 140.675H200.596C201.261 140.675 201.794 140.143 201.794 139.477V139.211C201.794 138.545 202.326 138.013 202.992 138.013H205.92C206.586 138.013 207.118 137.48 207.118 136.815V136.548C207.118 135.883 207.651 135.35 208.316 135.35H208.583C209.248 135.35 209.781 134.818 209.781 134.152V131.224C209.781 130.558 210.313 130.026 210.979 130.026H211.245C211.911 130.026 212.443 129.493 212.443 128.828V125.899C212.443 125.233 212.976 124.701 213.641 124.701H213.908C214.573 124.701 215.106 124.168 215.106 123.503V115.249C215.106 114.584 215.638 114.051 216.304 114.051H216.57C217.236 114.051 217.768 113.519 217.768 112.853V75.3133C217.768 74.6477 217.236 74.1152 216.57 74.1152H216.304C215.638 74.1152 215.106 73.5827 215.106 72.9171V69.9885C215.106 69.3229 214.573 68.7904 213.908 68.7904H213.641C212.976 68.7904 212.443 68.2579 212.443 67.5923V62.0013C212.443 61.3357 211.911 60.8032 211.245 60.8032H210.979C210.313 60.8032 209.781 60.2707 209.781 59.6051V59.3389C209.781 58.6733 209.248 58.1408 208.583 58.1408H208.316C207.651 58.1408 207.118 57.6083 207.118 56.9427V56.6765C207.118 56.0109 206.586 55.4784 205.92 55.4784H205.654C204.988 55.4784 204.456 54.9459 204.456 54.2803V54.0141C204.456 53.3485 203.924 52.816 203.258 52.816H202.992C202.326 52.816 201.794 52.2835 201.794 51.6179V51.3517C201.794 50.6861 201.261 50.1536 200.596 50.1536H189.68C189.014 50.1536 188.482 50.6861 188.482 51.3517V51.6179C188.482 52.2835 187.949 52.816 187.284 52.816H187.017C186.352 52.816 185.819 53.3485 185.819 54.0141V54.2803C185.819 54.9459 185.287 55.4784 184.621 55.4784H184.355C183.689 55.4784 183.157 56.0109 183.157 56.6765V56.9427C183.157 57.6083 182.624 58.1408 181.959 58.1408H181.692C181.027 58.1408 180.494 58.6733 180.494 59.3389V59.6051C180.494 60.2707 179.962 60.8032 179.296 60.8032H179.03C178.364 60.8032 177.832 61.3357 177.832 62.0013V67.5923C177.832 68.2579 177.3 68.7904 176.634 68.7904H176.368C175.702 68.7904 175.17 69.3229 175.17 69.9885V72.9171C175.17 73.5827 174.637 74.1152 173.972 74.1152H173.705C173.04 74.1152 172.507 74.6477 172.507 75.3133V112.853ZM256.584 44.8288C257.25 44.8288 257.782 45.3613 257.782 46.0269V46.2931C257.782 46.9587 257.25 47.4912 256.584 47.4912H256.318C255.652 47.4912 255.12 48.0237 255.12 48.6893V48.9555C255.12 49.6211 254.587 50.1536 253.922 50.1536H250.993C250.327 50.1536 249.795 50.6861 249.795 51.3517V62.2675C249.795 62.9331 250.327 63.4656 250.993 63.4656H251.259C251.925 63.4656 252.457 63.9981 252.457 64.6637V72.9171C252.457 73.5827 252.99 74.1152 253.655 74.1152H253.922C254.587 74.1152 255.12 74.6477 255.12 75.3133V83.5667C255.12 84.2323 255.652 84.7648 256.318 84.7648H256.584C257.25 84.7648 257.782 85.2973 257.782 85.9629V94.2163C257.782 94.8819 258.315 95.4144 258.98 95.4144H259.246C259.912 95.4144 260.444 95.9469 260.444 96.6125V104.866C260.444 105.532 260.977 106.064 261.643 106.064H261.909C262.574 106.064 263.107 106.596 263.107 107.262V115.516C263.107 116.181 263.639 116.714 264.305 116.714H264.571C265.237 116.714 265.769 116.181 265.769 115.516V112.587C265.769 111.921 266.302 111.389 266.967 111.389H267.234C267.899 111.389 268.432 110.856 268.432 110.191V101.937C268.432 101.272 268.964 100.739 269.63 100.739H269.896C270.562 100.739 271.094 100.207 271.094 99.5411V91.2877C271.094 90.6221 271.627 90.0896 272.292 90.0896H272.558C273.224 90.0896 273.756 89.5571 273.756 88.8915V80.6381C273.756 79.9725 274.289 79.44 274.955 79.44H275.221C275.886 79.44 276.419 78.9075 276.419 78.2419V64.6637C276.419 63.9981 275.886 63.4656 275.221 63.4656H274.955C274.289 63.4656 273.756 62.9331 273.756 62.2675V56.6765C273.756 56.0109 273.224 55.4784 272.558 55.4784H272.292C271.627 55.4784 271.094 54.9459 271.094 54.2803V51.3517C271.094 50.6861 270.562 50.1536 269.896 50.1536H266.967C266.302 50.1536 265.769 49.6211 265.769 48.9555V48.6893C265.769 48.0237 265.237 47.4912 264.571 47.4912H264.305C263.639 47.4912 263.107 46.9587 263.107 46.2931V46.0269C263.107 45.3613 263.639 44.8288 264.305 44.8288H291.195C291.861 44.8288 292.393 45.3613 292.393 46.0269V46.2931C292.393 46.9587 291.861 47.4912 291.195 47.4912H290.929C290.263 47.4912 289.731 48.0237 289.731 48.6893V48.9555C289.731 49.6211 289.198 50.1536 288.533 50.1536H285.604C284.939 50.1536 284.406 50.6861 284.406 51.3517V62.2675C284.406 62.9331 284.939 63.4656 285.604 63.4656H285.87C286.536 63.4656 287.068 63.9981 287.068 64.6637V72.9171C287.068 73.5827 287.601 74.1152 288.267 74.1152H288.533C289.198 74.1152 289.731 74.6477 289.731 75.3133V83.5667C289.731 84.2323 290.263 84.7648 290.929 84.7648H291.195C291.861 84.7648 292.393 85.2973 292.393 85.9629V94.2163C292.393 94.8819 292.926 95.4144 293.591 95.4144H293.858C294.523 95.4144 295.056 95.9469 295.056 96.6125V104.866C295.056 105.532 295.588 106.064 296.254 106.064H296.52C297.186 106.064 297.718 106.596 297.718 107.262V115.516C297.718 116.181 298.251 116.714 298.916 116.714H299.182C299.848 116.714 300.38 116.181 300.38 115.516V107.262C300.38 106.596 300.913 106.064 301.579 106.064H301.845C302.51 106.064 303.043 105.532 303.043 104.866V96.6125C303.043 95.9469 303.575 95.4144 304.241 95.4144H304.507C305.173 95.4144 305.705 94.8819 305.705 94.2163V85.9629C305.705 85.2973 306.238 84.7648 306.903 84.7648H307.17C307.835 84.7648 308.368 84.2323 308.368 83.5667V75.3133C308.368 74.6477 308.9 74.1152 309.566 74.1152H309.832C310.498 74.1152 311.03 73.5827 311.03 72.9171V64.6637C311.03 63.9981 311.563 63.4656 312.228 63.4656H312.494C313.16 63.4656 313.692 62.9331 313.692 62.2675V51.3517C313.692 50.6861 313.16 50.1536 312.494 50.1536H309.566C308.9 50.1536 308.368 49.6211 308.368 48.9555V48.6893C308.368 48.0237 307.835 47.4912 307.17 47.4912H306.903C306.238 47.4912 305.705 46.9587 305.705 46.2931V46.0269C305.705 45.3613 306.238 44.8288 306.903 44.8288H328.469C329.134 44.8288 329.667 45.3613 329.667 46.0269V46.2931C329.667 46.9587 329.134 47.4912 328.469 47.4912H328.203C327.537 47.4912 327.004 48.0237 327.004 48.6893V48.9555C327.004 49.6211 326.472 50.1536 325.806 50.1536H322.878C322.212 50.1536 321.68 50.6861 321.68 51.3517V51.6179C321.68 52.2835 321.147 52.816 320.482 52.816H320.215C319.55 52.816 319.017 53.3485 319.017 54.0141V62.2675C319.017 62.9331 318.485 63.4656 317.819 63.4656H317.553C316.887 63.4656 316.355 63.9981 316.355 64.6637V72.9171C316.355 73.5827 315.822 74.1152 315.157 74.1152H314.891C314.225 74.1152 313.692 74.6477 313.692 75.3133V83.5667C313.692 84.2323 313.16 84.7648 312.494 84.7648H312.228C311.563 84.7648 311.03 85.2973 311.03 85.9629V94.2163C311.03 94.8819 310.498 95.4144 309.832 95.4144H309.566C308.9 95.4144 308.368 95.9469 308.368 96.6125V104.866C308.368 105.532 307.835 106.064 307.17 106.064H306.903C306.238 106.064 305.705 106.596 305.705 107.262V120.84C305.705 121.506 305.173 122.038 304.507 122.038H304.241C303.575 122.038 303.043 122.571 303.043 123.236V136.815C303.043 137.48 302.51 138.013 301.845 138.013H301.579C300.913 138.013 300.38 138.545 300.38 139.211V144.802C300.38 145.468 299.848 146 299.182 146H296.254C295.588 146 295.056 145.468 295.056 144.802V141.873C295.056 141.208 294.523 140.675 293.858 140.675H293.591C292.926 140.675 292.393 140.143 292.393 139.477V128.561C292.393 127.896 291.861 127.363 291.195 127.363H290.929C290.263 127.363 289.731 126.831 289.731 126.165V117.912C289.731 117.246 289.198 116.714 288.533 116.714H288.267C287.601 116.714 287.068 116.181 287.068 115.516V107.262C287.068 106.596 286.536 106.064 285.87 106.064H285.604C284.939 106.064 284.406 105.532 284.406 104.866V96.6125C284.406 95.9469 283.874 95.4144 283.208 95.4144H282.942C282.276 95.4144 281.744 94.8819 281.744 94.2163V85.9629C281.744 85.2973 281.211 84.7648 280.546 84.7648H280.279C279.614 84.7648 279.081 85.2973 279.081 85.9629V88.8915C279.081 89.5571 278.549 90.0896 277.883 90.0896H277.617C276.951 90.0896 276.419 90.6221 276.419 91.2877V99.5411C276.419 100.207 275.886 100.739 275.221 100.739H274.955C274.289 100.739 273.756 101.272 273.756 101.937V110.191C273.756 110.856 273.224 111.389 272.558 111.389H272.292C271.627 111.389 271.094 111.921 271.094 112.587V126.165C271.094 126.831 270.562 127.363 269.896 127.363H269.63C268.964 127.363 268.432 127.896 268.432 128.561V136.815C268.432 137.48 267.899 138.013 267.234 138.013H266.967C266.302 138.013 265.769 138.545 265.769 139.211V144.802C265.769 145.468 265.237 146 264.571 146H261.643C260.977 146 260.444 145.468 260.444 144.802V141.873C260.444 141.208 259.912 140.675 259.246 140.675H258.98C258.315 140.675 257.782 140.143 257.782 139.477V128.561C257.782 127.896 257.25 127.363 256.584 127.363H256.318C255.652 127.363 255.12 126.831 255.12 126.165V117.912C255.12 117.246 254.587 116.714 253.922 116.714H253.655C252.99 116.714 252.457 116.181 252.457 115.516V107.262C252.457 106.596 251.925 106.064 251.259 106.064H250.993C250.327 106.064 249.795 105.532 249.795 104.866V96.6125C249.795 95.9469 249.262 95.4144 248.597 95.4144H248.331C247.665 95.4144 247.132 94.8819 247.132 94.2163V85.9629C247.132 85.2973 246.6 84.7648 245.934 84.7648H245.668C245.003 84.7648 244.47 84.2323 244.47 83.5667V75.3133C244.47 74.6477 243.938 74.1152 243.272 74.1152H243.006C242.34 74.1152 241.808 73.5827 241.808 72.9171V64.6637C241.808 63.9981 241.275 63.4656 240.61 63.4656H240.343C239.678 63.4656 239.145 62.9331 239.145 62.2675V56.6765C239.145 56.0109 238.613 55.4784 237.947 55.4784H237.681C237.015 55.4784 236.483 54.9459 236.483 54.2803V51.3517C236.483 50.6861 235.95 50.1536 235.285 50.1536H232.356C231.691 50.1536 231.158 49.6211 231.158 48.9555V48.6893C231.158 48.0237 230.626 47.4912 229.96 47.4912H229.694C229.028 47.4912 228.496 46.9587 228.496 46.2931V46.0269C228.496 45.3613 229.028 44.8288 229.694 44.8288H256.584Z" fill="white"/>
<path d="M314.204 146C313.539 146 313.006 145.468 313.006 144.802V144.536C313.006 143.87 313.539 143.338 314.204 143.338H317.133C317.799 143.338 318.331 142.805 318.331 142.14V141.873C318.331 141.208 318.864 140.675 319.529 140.675H322.458C323.124 140.675 323.656 140.143 323.656 139.477V139.211C323.656 138.545 324.188 138.013 324.854 138.013H325.12C325.786 138.013 326.318 137.48 326.318 136.815V133.886C326.318 133.22 326.851 132.688 327.516 132.688H327.783C328.448 132.688 328.981 132.156 328.981 131.49V123.236C328.981 122.571 329.513 122.038 330.179 122.038H330.445C331.111 122.038 331.643 121.506 331.643 120.84V115.249C331.643 114.584 332.176 114.051 332.841 114.051H333.108C333.773 114.051 334.306 113.519 334.306 112.853V104.6C334.306 103.934 334.838 103.402 335.504 103.402H335.77C336.436 103.402 336.968 102.869 336.968 102.204V96.6125C336.968 95.9469 337.5 95.4144 338.166 95.4144H338.432C339.098 95.4144 339.63 94.8819 339.63 94.2163V85.9629C339.63 85.2973 340.163 84.7648 340.828 84.7648H341.095C341.76 84.7648 342.293 84.2323 342.293 83.5667V77.9757C342.293 77.3101 342.825 76.7776 343.491 76.7776H343.757C344.423 76.7776 344.955 76.2451 344.955 75.5795V67.3261C344.955 66.6605 345.488 66.128 346.153 66.128H346.42C347.085 66.128 347.618 65.5955 347.618 64.9299V59.3389C347.618 58.6733 348.15 58.1408 348.816 58.1408H349.082C349.748 58.1408 350.28 57.6083 350.28 56.9427V51.3517C350.28 50.6861 349.748 50.1536 349.082 50.1536H348.816C348.15 50.1536 347.618 49.6211 347.618 48.9555V48.6893C347.618 48.0237 347.085 47.4912 346.42 47.4912H343.491C342.825 47.4912 342.293 46.9587 342.293 46.2931V46.0269C342.293 45.3613 342.825 44.8288 343.491 44.8288H383.693C384.359 44.8288 384.891 45.3613 384.891 46.0269V46.2931C384.891 46.9587 385.424 47.4912 386.089 47.4912H389.018C389.684 47.4912 390.216 48.0237 390.216 48.6893V48.9555C390.216 49.6211 390.748 50.1536 391.414 50.1536H394.343C395.008 50.1536 395.541 50.6861 395.541 51.3517V54.2803C395.541 54.9459 396.073 55.4784 396.739 55.4784H397.005C397.671 55.4784 398.203 56.0109 398.203 56.6765V59.6051C398.203 60.2707 398.736 60.8032 399.401 60.8032H399.668C400.333 60.8032 400.866 61.3357 400.866 62.0013V78.2419C400.866 78.9075 400.333 79.44 399.668 79.44H399.401C398.736 79.44 398.203 79.9725 398.203 80.6381V91.5539C398.203 92.2195 397.671 92.752 397.005 92.752H396.739C396.073 92.752 395.541 93.2845 395.541 93.9501V99.5411C395.541 100.207 395.008 100.739 394.343 100.739H394.076C393.411 100.739 392.878 101.272 392.878 101.937V107.528C392.878 108.194 392.346 108.726 391.68 108.726H391.414C390.748 108.726 390.216 109.259 390.216 109.924V115.516C390.216 116.181 389.684 116.714 389.018 116.714H388.752C388.086 116.714 387.554 117.246 387.554 117.912V118.178C387.554 118.844 387.021 119.376 386.356 119.376H386.089C385.424 119.376 384.891 119.908 384.891 120.574V123.503C384.891 124.168 384.359 124.701 383.693 124.701H383.427C382.761 124.701 382.229 125.233 382.229 125.899V128.828C382.229 129.493 381.696 130.026 381.031 130.026H380.764C380.099 130.026 379.566 130.558 379.566 131.224V131.49C379.566 132.156 379.034 132.688 378.368 132.688H378.102C377.436 132.688 376.904 133.22 376.904 133.886V134.152C376.904 134.818 376.372 135.35 375.706 135.35H375.44C374.774 135.35 374.242 135.883 374.242 136.548V136.815C374.242 137.48 373.709 138.013 373.044 138.013H372.777C372.112 138.013 371.579 138.545 371.579 139.211V139.477C371.579 140.143 371.047 140.675 370.381 140.675H367.452C366.787 140.675 366.254 141.208 366.254 141.873V142.14C366.254 142.805 365.722 143.338 365.056 143.338H362.128C361.462 143.338 360.93 143.87 360.93 144.536V144.802C360.93 145.468 360.397 146 359.732 146H314.204ZM336.968 139.477C336.968 140.143 337.5 140.675 338.166 140.675H357.069C357.735 140.675 358.267 140.143 358.267 139.477V139.211C358.267 138.545 358.8 138.013 359.465 138.013H362.394C363.06 138.013 363.592 137.48 363.592 136.815V136.548C363.592 135.883 364.124 135.35 364.79 135.35H365.056C365.722 135.35 366.254 134.818 366.254 134.152V133.886C366.254 133.22 366.787 132.688 367.452 132.688H367.719C368.384 132.688 368.917 132.156 368.917 131.49V131.224C368.917 130.558 369.449 130.026 370.115 130.026H370.381C371.047 130.026 371.579 129.493 371.579 128.828V125.899C371.579 125.233 372.112 124.701 372.777 124.701H373.044C373.709 124.701 374.242 124.168 374.242 123.503V120.574C374.242 119.908 374.774 119.376 375.44 119.376H375.706C376.372 119.376 376.904 118.844 376.904 118.178V117.912C376.904 117.246 377.436 116.714 378.102 116.714H378.368C379.034 116.714 379.566 116.181 379.566 115.516V109.924C379.566 109.259 380.099 108.726 380.764 108.726H381.031C381.696 108.726 382.229 108.194 382.229 107.528V101.937C382.229 101.272 382.761 100.739 383.427 100.739H383.693C384.359 100.739 384.891 100.207 384.891 99.5411V93.9501C384.891 93.2845 385.424 92.752 386.089 92.752H386.356C387.021 92.752 387.554 92.2195 387.554 91.5539V80.6381C387.554 79.9725 388.086 79.44 388.752 79.44H389.018C389.684 79.44 390.216 78.9075 390.216 78.2419V62.0013C390.216 61.3357 389.684 60.8032 389.018 60.8032H388.752C388.086 60.8032 387.554 60.2707 387.554 59.6051V56.6765C387.554 56.0109 387.021 55.4784 386.356 55.4784H386.089C385.424 55.4784 384.891 54.9459 384.891 54.2803V54.0141C384.891 53.3485 384.359 52.816 383.693 52.816H383.427C382.761 52.816 382.229 52.2835 382.229 51.6179V51.3517C382.229 50.6861 381.696 50.1536 381.031 50.1536H364.79C364.124 50.1536 363.592 50.6861 363.592 51.3517V51.6179C363.592 52.2835 363.06 52.816 362.394 52.816H362.128C361.462 52.816 360.93 53.3485 360.93 54.0141V56.9427C360.93 57.6083 360.397 58.1408 359.732 58.1408H359.465C358.8 58.1408 358.267 58.6733 358.267 59.3389V64.9299C358.267 65.5955 357.735 66.128 357.069 66.128H356.803C356.137 66.128 355.605 66.6605 355.605 67.3261V75.5795C355.605 76.2451 355.072 76.7776 354.407 76.7776H354.14C353.475 76.7776 352.942 77.3101 352.942 77.9757V83.5667C352.942 84.2323 352.41 84.7648 351.744 84.7648H351.478C350.812 84.7648 350.28 85.2973 350.28 85.9629V94.2163C350.28 94.8819 349.748 95.4144 349.082 95.4144H348.816C348.15 95.4144 347.618 95.9469 347.618 96.6125V102.204C347.618 102.869 347.085 103.402 346.42 103.402H346.153C345.488 103.402 344.955 103.934 344.955 104.6V112.853C344.955 113.519 344.423 114.051 343.757 114.051H343.491C342.825 114.051 342.293 114.584 342.293 115.249V120.84C342.293 121.506 341.76 122.038 341.095 122.038H340.828C340.163 122.038 339.63 122.571 339.63 123.236V131.49C339.63 132.156 339.098 132.688 338.432 132.688H338.166C337.5 132.688 336.968 133.22 336.968 133.886V139.477ZM389.87 146C389.204 146 388.672 145.468 388.672 144.802V144.536C388.672 143.87 389.204 143.338 389.87 143.338H392.798C393.464 143.338 393.996 142.805 393.996 142.14V141.873C393.996 141.208 394.529 140.675 395.194 140.675H398.123C398.789 140.675 399.321 140.143 399.321 139.477V139.211C399.321 138.545 399.854 138.013 400.519 138.013H400.786C401.451 138.013 401.984 137.48 401.984 136.815V133.886C401.984 133.22 402.516 132.688 403.182 132.688H403.448C404.114 132.688 404.646 132.156 404.646 131.49V123.236C404.646 122.571 405.178 122.038 405.844 122.038H406.11C406.776 122.038 407.308 121.506 407.308 120.84V115.249C407.308 114.584 407.841 114.051 408.506 114.051H408.773C409.438 114.051 409.971 113.519 409.971 112.853V104.6C409.971 103.934 410.503 103.402 411.169 103.402H411.435C412.101 103.402 412.633 102.869 412.633 102.204V96.6125C412.633 95.9469 413.166 95.4144 413.831 95.4144H414.098C414.763 95.4144 415.296 94.8819 415.296 94.2163V85.9629C415.296 85.2973 415.828 84.7648 416.494 84.7648H416.76C417.426 84.7648 417.958 84.2323 417.958 83.5667V77.9757C417.958 77.3101 418.49 76.7776 419.156 76.7776H419.422C420.088 76.7776 420.62 76.2451 420.62 75.5795V67.3261C420.62 66.6605 421.153 66.128 421.818 66.128H422.085C422.75 66.128 423.283 65.5955 423.283 64.9299V59.3389C423.283 58.6733 423.815 58.1408 424.481 58.1408H424.747C425.413 58.1408 425.945 57.6083 425.945 56.9427V51.3517C425.945 50.6861 425.413 50.1536 424.747 50.1536H424.481C423.815 50.1536 423.283 49.6211 423.283 48.9555V48.6893C423.283 48.0237 422.75 47.4912 422.085 47.4912H419.156C418.49 47.4912 417.958 46.9587 417.958 46.2931V46.0269C417.958 45.3613 418.49 44.8288 419.156 44.8288H448.709C449.374 44.8288 449.907 45.3613 449.907 46.0269V46.2931C449.907 46.9587 449.374 47.4912 448.709 47.4912H445.78C445.114 47.4912 444.582 48.0237 444.582 48.6893V48.9555C444.582 49.6211 444.05 50.1536 443.384 50.1536H440.455C439.79 50.1536 439.257 50.6861 439.257 51.3517V51.6179C439.257 52.2835 438.725 52.816 438.059 52.816H437.793C437.127 52.816 436.595 53.3485 436.595 54.0141V56.9427C436.595 57.6083 436.062 58.1408 435.397 58.1408H435.13C434.465 58.1408 433.932 58.6733 433.932 59.3389V64.9299C433.932 65.5955 433.4 66.128 432.734 66.128H432.468C431.802 66.128 431.27 66.6605 431.27 67.3261V75.5795C431.27 76.2451 430.738 76.7776 430.072 76.7776H429.806C429.14 76.7776 428.608 77.3101 428.608 77.9757V83.5667C428.608 84.2323 428.075 84.7648 427.41 84.7648H427.143C426.478 84.7648 425.945 85.2973 425.945 85.9629V94.2163C425.945 94.8819 425.413 95.4144 424.747 95.4144H424.481C423.815 95.4144 423.283 95.9469 423.283 96.6125V102.204C423.283 102.869 422.75 103.402 422.085 103.402H421.818C421.153 103.402 420.62 103.934 420.62 104.6V112.853C420.62 113.519 420.088 114.051 419.422 114.051H419.156C418.49 114.051 417.958 114.584 417.958 115.249V120.84C417.958 121.506 417.426 122.038 416.76 122.038H416.494C415.828 122.038 415.296 122.571 415.296 123.236V131.49C415.296 132.156 414.763 132.688 414.098 132.688H413.831C413.166 132.688 412.633 133.22 412.633 133.886V139.477C412.633 140.143 413.166 140.675 413.831 140.675H414.098C414.763 140.675 415.296 141.208 415.296 141.873V142.14C415.296 142.805 415.828 143.338 416.494 143.338H419.422C420.088 143.338 420.62 143.87 420.62 144.536V144.802C420.62 145.468 420.088 146 419.422 146H389.87ZM441.004 146C440.339 146 439.806 145.468 439.806 144.802V144.536C439.806 143.87 440.339 143.338 441.004 143.338H443.933C444.599 143.338 445.131 142.805 445.131 142.14V141.873C445.131 141.208 445.664 140.675 446.329 140.675H449.258C449.923 140.675 450.456 140.143 450.456 139.477V139.211C450.456 138.545 450.988 138.013 451.654 138.013H451.92C452.586 138.013 453.118 137.48 453.118 136.815V133.886C453.118 133.22 453.651 132.688 454.316 132.688H454.583C455.248 132.688 455.781 132.156 455.781 131.49V123.236C455.781 122.571 456.313 122.038 456.979 122.038H457.245C457.911 122.038 458.443 121.506 458.443 120.84V115.249C458.443 114.584 458.976 114.051 459.641 114.051H459.907C460.573 114.051 461.106 113.519 461.106 112.853V104.6C461.106 103.934 461.638 103.402 462.304 103.402H462.57C463.235 103.402 463.768 102.869 463.768 102.204V96.6125C463.768 95.9469 464.3 95.4144 464.966 95.4144H465.232C465.898 95.4144 466.43 94.8819 466.43 94.2163V85.9629C466.43 85.2973 466.963 84.7648 467.628 84.7648H467.895C468.56 84.7648 469.093 84.2323 469.093 83.5667V77.9757C469.093 77.3101 469.625 76.7776 470.291 76.7776H470.557C471.223 76.7776 471.755 76.2451 471.755 75.5795V67.3261C471.755 66.6605 472.288 66.128 472.953 66.128H473.219C473.885 66.128 474.418 65.5955 474.418 64.9299V59.3389C474.418 58.6733 474.95 58.1408 475.616 58.1408H475.882C476.547 58.1408 477.08 57.6083 477.08 56.9427V51.3517C477.08 50.6861 476.547 50.1536 475.882 50.1536H464.966C464.3 50.1536 463.768 50.6861 463.768 51.3517V51.6179C463.768 52.2835 463.235 52.816 462.57 52.816H459.641C458.976 52.816 458.443 53.3485 458.443 54.0141V54.2803C458.443 54.9459 457.911 55.4784 457.245 55.4784H456.979C456.313 55.4784 455.781 56.0109 455.781 56.6765V59.6051C455.781 60.2707 455.248 60.8032 454.583 60.8032H454.316C453.651 60.8032 453.118 61.3357 453.118 62.0013V64.9299C453.118 65.5955 452.586 66.128 451.92 66.128H451.654C450.988 66.128 450.456 65.5955 450.456 64.9299V56.6765C450.456 56.0109 450.988 55.4784 451.654 55.4784H451.92C452.586 55.4784 453.118 54.9459 453.118 54.2803V51.3517C453.118 50.6861 453.651 50.1536 454.316 50.1536H454.583C455.248 50.1536 455.781 49.6211 455.781 48.9555V46.0269C455.781 45.3613 456.313 44.8288 456.979 44.8288H513.155C513.821 44.8288 514.354 45.3613 514.354 46.0269V48.9555C514.354 49.6211 513.821 50.1536 513.155 50.1536H512.889C512.224 50.1536 511.691 50.6861 511.691 51.3517V59.6051C511.691 60.2707 511.159 60.8032 510.493 60.8032H510.227C509.561 60.8032 509.029 61.3357 509.029 62.0013V64.9299C509.029 65.5955 508.496 66.128 507.831 66.128H507.564C506.899 66.128 506.366 65.5955 506.366 64.9299V54.0141C506.366 53.3485 505.834 52.816 505.168 52.816H502.24C501.574 52.816 501.042 52.2835 501.042 51.6179V51.3517C501.042 50.6861 500.509 50.1536 499.843 50.1536H491.59C490.924 50.1536 490.392 50.6861 490.392 51.3517V51.6179C490.392 52.2835 489.859 52.816 489.194 52.816H488.928C488.262 52.816 487.73 53.3485 487.73 54.0141V56.9427C487.73 57.6083 487.197 58.1408 486.531 58.1408H486.265C485.6 58.1408 485.067 58.6733 485.067 59.3389V64.9299C485.067 65.5955 484.535 66.128 483.869 66.128H483.603C482.937 66.128 482.405 66.6605 482.405 67.3261V75.5795C482.405 76.2451 481.872 76.7776 481.207 76.7776H480.94C480.275 76.7776 479.742 77.3101 479.742 77.9757V83.5667C479.742 84.2323 479.21 84.7648 478.544 84.7648H478.278C477.612 84.7648 477.08 85.2973 477.08 85.9629V94.2163C477.08 94.8819 476.547 95.4144 475.882 95.4144H475.616C474.95 95.4144 474.418 95.9469 474.418 96.6125V102.204C474.418 102.869 473.885 103.402 473.219 103.402H472.953C472.288 103.402 471.755 103.934 471.755 104.6V112.853C471.755 113.519 471.223 114.051 470.557 114.051H470.291C469.625 114.051 469.093 114.584 469.093 115.249V120.84C469.093 121.506 468.56 122.038 467.895 122.038H467.628C466.963 122.038 466.43 122.571 466.43 123.236V131.49C466.43 132.156 465.898 132.688 465.232 132.688H464.966C464.3 132.688 463.768 133.22 463.768 133.886V139.477C463.768 140.143 464.3 140.675 464.966 140.675H465.232C465.898 140.675 466.43 141.208 466.43 141.873V142.14C466.43 142.805 466.963 143.338 467.628 143.338H470.557C471.223 143.338 471.755 143.87 471.755 144.536V144.802C471.755 145.468 471.223 146 470.557 146H441.004ZM491.02 146C490.354 146 489.822 145.468 489.822 144.802V144.536C489.822 143.87 490.354 143.338 491.02 143.338H493.949C494.614 143.338 495.147 142.805 495.147 142.14V141.873C495.147 141.208 495.679 140.675 496.345 140.675H499.274C499.939 140.675 500.472 140.143 500.472 139.477V139.211C500.472 138.545 501.004 138.013 501.67 138.013H501.936C502.602 138.013 503.134 137.48 503.134 136.815V133.886C503.134 133.22 503.666 132.688 504.332 132.688H504.598C505.264 132.688 505.796 132.156 505.796 131.49V123.236C505.796 122.571 506.329 122.038 506.994 122.038H507.261C507.926 122.038 508.459 121.506 508.459 120.84V115.249C508.459 114.584 508.991 114.051 509.657 114.051H509.923C510.589 114.051 511.121 113.519 511.121 112.853V104.6C511.121 103.934 511.654 103.402 512.319 103.402H512.586C513.251 103.402 513.784 102.869 513.784 102.204V96.6125C513.784 95.9469 514.316 95.4144 514.982 95.4144H515.248C515.914 95.4144 516.446 94.8819 516.446 94.2163V85.9629C516.446 85.2973 516.978 84.7648 517.644 84.7648H517.91C518.576 84.7648 519.108 84.2323 519.108 83.5667V77.9757C519.108 77.3101 519.641 76.7776 520.306 76.7776H520.573C521.238 76.7776 521.771 76.2451 521.771 75.5795V67.3261C521.771 66.6605 522.303 66.128 522.969 66.128H523.235C523.901 66.128 524.433 65.5955 524.433 64.9299V59.3389C524.433 58.6733 524.966 58.1408 525.631 58.1408H525.898C526.563 58.1408 527.096 57.6083 527.096 56.9427V51.3517C527.096 50.6861 526.563 50.1536 525.898 50.1536H525.631C524.966 50.1536 524.433 49.6211 524.433 48.9555V48.6893C524.433 48.0237 523.901 47.4912 523.235 47.4912H520.306C519.641 47.4912 519.108 46.9587 519.108 46.2931V46.0269C519.108 45.3613 519.641 44.8288 520.306 44.8288H549.859C550.525 44.8288 551.057 45.3613 551.057 46.0269V46.2931C551.057 46.9587 550.525 47.4912 549.859 47.4912H546.93C546.265 47.4912 545.732 48.0237 545.732 48.6893V48.9555C545.732 49.6211 545.2 50.1536 544.534 50.1536H541.606C540.94 50.1536 540.408 50.6861 540.408 51.3517V51.6179C540.408 52.2835 539.875 52.816 539.21 52.816H538.943C538.278 52.816 537.745 53.3485 537.745 54.0141V56.9427C537.745 57.6083 537.213 58.1408 536.547 58.1408H536.281C535.615 58.1408 535.083 58.6733 535.083 59.3389V64.9299C535.083 65.5955 534.55 66.128 533.885 66.128H533.618C532.953 66.128 532.42 66.6605 532.42 67.3261V75.5795C532.42 76.2451 531.888 76.7776 531.222 76.7776H530.956C530.29 76.7776 529.758 77.3101 529.758 77.9757V83.5667C529.758 84.2323 529.226 84.7648 528.56 84.7648H528.294C527.628 84.7648 527.096 85.2973 527.096 85.9629V88.8915C527.096 89.5571 527.628 90.0896 528.294 90.0896H557.846C558.512 90.0896 559.044 89.5571 559.044 88.8915V85.9629C559.044 85.2973 559.577 84.7648 560.242 84.7648H560.509C561.174 84.7648 561.707 84.2323 561.707 83.5667V77.9757C561.707 77.3101 562.239 76.7776 562.905 76.7776H563.171C563.837 76.7776 564.369 76.2451 564.369 75.5795V67.3261C564.369 66.6605 564.902 66.128 565.567 66.128H565.834C566.499 66.128 567.032 65.5955 567.032 64.9299V59.3389C567.032 58.6733 567.564 58.1408 568.23 58.1408H568.496C569.162 58.1408 569.694 57.6083 569.694 56.9427V51.3517C569.694 50.6861 569.162 50.1536 568.496 50.1536H568.23C567.564 50.1536 567.032 49.6211 567.032 48.9555V48.6893C567.032 48.0237 566.499 47.4912 565.834 47.4912H562.905C562.239 47.4912 561.707 46.9587 561.707 46.2931V46.0269C561.707 45.3613 562.239 44.8288 562.905 44.8288H592.458C593.123 44.8288 593.656 45.3613 593.656 46.0269V46.2931C593.656 46.9587 593.123 47.4912 592.458 47.4912H589.529C588.863 47.4912 588.331 48.0237 588.331 48.6893V48.9555C588.331 49.6211 587.798 50.1536 587.133 50.1536H584.204C583.539 50.1536 583.006 50.6861 583.006 51.3517V51.6179C583.006 52.2835 582.474 52.816 581.808 52.816H581.542C580.876 52.816 580.344 53.3485 580.344 54.0141V56.9427C580.344 57.6083 579.811 58.1408 579.146 58.1408H578.879C578.214 58.1408 577.681 58.6733 577.681 59.3389V64.9299C577.681 65.5955 577.149 66.128 576.483 66.128H576.217C575.551 66.128 575.019 66.6605 575.019 67.3261V75.5795C575.019 76.2451 574.486 76.7776 573.821 76.7776H573.555C572.889 76.7776 572.356 77.3101 572.356 77.9757V83.5667C572.356 84.2323 571.824 84.7648 571.158 84.7648H570.892C570.226 84.7648 569.694 85.2973 569.694 85.9629V94.2163C569.694 94.8819 569.162 95.4144 568.496 95.4144H568.23C567.564 95.4144 567.032 95.9469 567.032 96.6125V102.204C567.032 102.869 566.499 103.402 565.834 103.402H565.567C564.902 103.402 564.369 103.934 564.369 104.6V112.853C564.369 113.519 563.837 114.051 563.171 114.051H562.905C562.239 114.051 561.707 114.584 561.707 115.249V120.84C561.707 121.506 561.174 122.038 560.509 122.038H560.242C559.577 122.038 559.044 122.571 559.044 123.236V131.49C559.044 132.156 558.512 132.688 557.846 132.688H557.58C556.915 132.688 556.382 133.22 556.382 133.886V139.477C556.382 140.143 556.915 140.675 557.58 140.675H557.846C558.512 140.675 559.044 141.208 559.044 141.873V142.14C559.044 142.805 559.577 143.338 560.242 143.338H563.171C563.837 143.338 564.369 143.87 564.369 144.536V144.802C564.369 145.468 563.837 146 563.171 146H533.618C532.953 146 532.42 145.468 532.42 144.802V144.536C532.42 143.87 532.953 143.338 533.618 143.338H536.547C537.213 143.338 537.745 142.805 537.745 142.14V141.873C537.745 141.208 538.278 140.675 538.943 140.675H541.872C542.538 140.675 543.07 140.143 543.07 139.477V139.211C543.07 138.545 543.602 138.013 544.268 138.013H544.534C545.2 138.013 545.732 137.48 545.732 136.815V133.886C545.732 133.22 546.265 132.688 546.93 132.688H547.197C547.862 132.688 548.395 132.156 548.395 131.49V123.236C548.395 122.571 548.927 122.038 549.593 122.038H549.859C550.525 122.038 551.057 121.506 551.057 120.84V115.249C551.057 114.584 551.59 114.051 552.255 114.051H552.522C553.187 114.051 553.72 113.519 553.72 112.853V104.6C553.72 103.934 554.252 103.402 554.918 103.402H555.184C555.85 103.402 556.382 102.869 556.382 102.204V96.6125C556.382 95.9469 555.85 95.4144 555.184 95.4144H525.631C524.966 95.4144 524.433 95.9469 524.433 96.6125V102.204C524.433 102.869 523.901 103.402 523.235 103.402H522.969C522.303 103.402 521.771 103.934 521.771 104.6V112.853C521.771 113.519 521.238 114.051 520.573 114.051H520.306C519.641 114.051 519.108 114.584 519.108 115.249V120.84C519.108 121.506 518.576 122.038 517.91 122.038H517.644C516.978 122.038 516.446 122.571 516.446 123.236V131.49C516.446 132.156 515.914 132.688 515.248 132.688H514.982C514.316 132.688 513.784 133.22 513.784 133.886V139.477C513.784 140.143 514.316 140.675 514.982 140.675H515.248C515.914 140.675 516.446 141.208 516.446 141.873V142.14C516.446 142.805 516.978 143.338 517.644 143.338H520.573C521.238 143.338 521.771 143.87 521.771 144.536V144.802C521.771 145.468 521.238 146 520.573 146H491.02ZM572.015 146C571.35 146 570.817 145.468 570.817 144.802V144.536C570.817 143.87 571.35 143.338 572.015 143.338H574.944C575.61 143.338 576.142 142.805 576.142 142.14V141.873C576.142 141.208 576.675 140.675 577.34 140.675H580.269C580.934 140.675 581.467 140.143 581.467 139.477V139.211C581.467 138.545 581.999 138.013 582.665 138.013H582.931C583.597 138.013 584.129 137.48 584.129 136.815V133.886C584.129 133.22 584.662 132.688 585.327 132.688H585.594C586.259 132.688 586.792 132.156 586.792 131.49V123.236C586.792 122.571 587.324 122.038 587.99 122.038H588.256C588.922 122.038 589.454 121.506 589.454 120.84V115.249C589.454 114.584 589.987 114.051 590.652 114.051H590.918C591.584 114.051 592.116 113.519 592.116 112.853V104.6C592.116 103.934 592.649 103.402 593.315 103.402H593.581C594.246 103.402 594.779 102.869 594.779 102.204V96.6125C594.779 95.9469 595.311 95.4144 595.977 95.4144H596.243C596.909 95.4144 597.441 94.8819 597.441 94.2163V85.9629C597.441 85.2973 597.974 84.7648 598.639 84.7648H598.906C599.571 84.7648 600.104 84.2323 600.104 83.5667V77.9757C600.104 77.3101 600.636 76.7776 601.302 76.7776H601.568C602.234 76.7776 602.766 76.2451 602.766 75.5795V67.3261C602.766 66.6605 603.299 66.128 603.964 66.128H604.23C604.896 66.128 605.428 65.5955 605.428 64.9299V59.3389C605.428 58.6733 605.961 58.1408 606.627 58.1408H606.893C607.558 58.1408 608.091 57.6083 608.091 56.9427V51.3517C608.091 50.6861 607.558 50.1536 606.893 50.1536H606.627C605.961 50.1536 605.428 49.6211 605.428 48.9555V48.6893C605.428 48.0237 604.896 47.4912 604.23 47.4912H601.302C600.636 47.4912 600.104 46.9587 600.104 46.2931V46.0269C600.104 45.3613 600.636 44.8288 601.302 44.8288H652.154C652.819 44.8288 653.352 45.3613 653.352 46.0269V48.9555C653.352 49.6211 652.819 50.1536 652.154 50.1536H651.887C651.222 50.1536 650.689 50.6861 650.689 51.3517V59.6051C650.689 60.2707 650.157 60.8032 649.491 60.8032H649.225C648.559 60.8032 648.027 61.3357 648.027 62.0013V64.9299C648.027 65.5955 647.494 66.128 646.829 66.128H646.563C645.897 66.128 645.364 65.5955 645.364 64.9299V54.0141C645.364 53.3485 644.832 52.816 644.166 52.816H643.9C643.235 52.816 642.702 52.2835 642.702 51.6179V51.3517C642.702 50.6861 642.17 50.1536 641.504 50.1536H622.601C621.935 50.1536 621.403 50.6861 621.403 51.3517V51.6179C621.403 52.2835 620.87 52.816 620.205 52.816H619.939C619.273 52.816 618.74 53.3485 618.74 54.0141V56.9427C618.74 57.6083 618.208 58.1408 617.542 58.1408H617.276C616.611 58.1408 616.078 58.6733 616.078 59.3389V64.9299C616.078 65.5955 615.546 66.128 614.88 66.128H614.614C613.948 66.128 613.416 66.6605 613.416 67.3261V75.5795C613.416 76.2451 612.883 76.7776 612.218 76.7776H611.951C611.286 76.7776 610.753 77.3101 610.753 77.9757V83.5667C610.753 84.2323 610.221 84.7648 609.555 84.7648H609.289C608.623 84.7648 608.091 85.2973 608.091 85.9629V88.8915C608.091 89.5571 608.623 90.0896 609.289 90.0896H625.53C626.195 90.0896 626.728 89.5571 626.728 88.8915V88.6253C626.728 87.9597 627.26 87.4272 627.926 87.4272H628.192C628.858 87.4272 629.39 86.8947 629.39 86.2291V85.9629C629.39 85.2973 629.923 84.7648 630.588 84.7648H630.854C631.52 84.7648 632.052 84.2323 632.052 83.5667V80.6381C632.052 79.9725 632.585 79.44 633.251 79.44H633.517C634.182 79.44 634.715 78.9075 634.715 78.2419V77.9757C634.715 77.3101 635.247 76.7776 635.913 76.7776H636.179C636.845 76.7776 637.377 77.3101 637.377 77.9757V83.5667C637.377 84.2323 636.845 84.7648 636.179 84.7648H635.913C635.247 84.7648 634.715 85.2973 634.715 85.9629V91.5539C634.715 92.2195 634.182 92.752 633.517 92.752H633.251C632.585 92.752 632.052 93.2845 632.052 93.9501V99.5411C632.052 100.207 631.52 100.739 630.854 100.739H630.588C629.923 100.739 629.39 101.272 629.39 101.937V104.866C629.39 105.532 628.858 106.064 628.192 106.064H627.926C627.26 106.064 626.728 106.596 626.728 107.262V107.528C626.728 108.194 626.195 108.726 625.53 108.726H625.263C624.598 108.726 624.065 108.194 624.065 107.528V101.937C624.065 101.272 624.598 100.739 625.263 100.739H625.53C626.195 100.739 626.728 100.207 626.728 99.5411V96.6125C626.728 95.9469 626.195 95.4144 625.53 95.4144H606.627C605.961 95.4144 605.428 95.9469 605.428 96.6125V102.204C605.428 102.869 604.896 103.402 604.23 103.402H603.964C603.299 103.402 602.766 103.934 602.766 104.6V112.853C602.766 113.519 602.234 114.051 601.568 114.051H601.302C600.636 114.051 600.104 114.584 600.104 115.249V120.84C600.104 121.506 599.571 122.038 598.906 122.038H598.639C597.974 122.038 597.441 122.571 597.441 123.236V131.49C597.441 132.156 596.909 132.688 596.243 132.688H595.977C595.311 132.688 594.779 133.22 594.779 133.886V139.477C594.779 140.143 595.311 140.675 595.977 140.675H614.88C615.546 140.675 616.078 140.143 616.078 139.477V139.211C616.078 138.545 616.611 138.013 617.276 138.013H617.542C618.208 138.013 618.74 137.48 618.74 136.815V136.548C618.74 135.883 619.273 135.35 619.939 135.35H620.205C620.87 135.35 621.403 134.818 621.403 134.152V133.886C621.403 133.22 621.935 132.688 622.601 132.688H622.867C623.533 132.688 624.065 132.156 624.065 131.49V131.224C624.065 130.558 624.598 130.026 625.263 130.026H625.53C626.195 130.026 626.728 129.493 626.728 128.828V128.561C626.728 127.896 627.26 127.363 627.926 127.363H628.192C628.858 127.363 629.39 126.831 629.39 126.165V125.899C629.39 125.233 629.923 124.701 630.588 124.701H630.854C631.52 124.701 632.052 124.168 632.052 123.503V123.236C632.052 122.571 632.585 122.038 633.251 122.038H633.517C634.182 122.038 634.715 122.571 634.715 123.236V126.165C634.715 126.831 634.182 127.363 633.517 127.363H633.251C632.585 127.363 632.052 127.896 632.052 128.561V128.828C632.052 129.493 631.52 130.026 630.854 130.026H630.588C629.923 130.026 629.39 130.558 629.39 131.224V134.152C629.39 134.818 628.858 135.35 628.192 135.35H627.926C627.26 135.35 626.728 135.883 626.728 136.548V139.477C626.728 140.143 626.195 140.675 625.53 140.675H625.263C624.598 140.675 624.065 141.208 624.065 141.873V144.802C624.065 145.468 623.533 146 622.867 146H572.015ZM636.761 146C636.095 146 635.562 145.468 635.562 144.802V144.536C635.562 143.87 636.095 143.338 636.761 143.338H639.689C640.355 143.338 640.887 142.805 640.887 142.14V141.873C640.887 141.208 641.42 140.675 642.085 140.675H645.014C645.68 140.675 646.212 140.143 646.212 139.477V139.211C646.212 138.545 646.745 138.013 647.41 138.013H647.676C648.342 138.013 648.874 137.48 648.874 136.815V133.886C648.874 133.22 649.407 132.688 650.073 132.688H650.339C651.004 132.688 651.537 132.156 651.537 131.49V123.236C651.537 122.571 652.069 122.038 652.735 122.038H653.001C653.667 122.038 654.199 121.506 654.199 120.84V115.249C654.199 114.584 654.732 114.051 655.397 114.051H655.664C656.329 114.051 656.862 113.519 656.862 112.853V104.6C656.862 103.934 657.394 103.402 658.06 103.402H658.326C658.992 103.402 659.524 102.869 659.524 102.204V96.6125C659.524 95.9469 660.057 95.4144 660.722 95.4144H660.988C661.654 95.4144 662.186 94.8819 662.186 94.2163V85.9629C662.186 85.2973 662.719 84.7648 663.385 84.7648H663.651C664.316 84.7648 664.849 84.2323 664.849 83.5667V77.9757C664.849 77.3101 665.381 76.7776 666.047 76.7776H666.313C666.979 76.7776 667.511 76.2451 667.511 75.5795V67.3261C667.511 66.6605 668.044 66.128 668.709 66.128H668.976C669.641 66.128 670.174 65.5955 670.174 64.9299V59.3389C670.174 58.6733 670.706 58.1408 671.372 58.1408H671.638C672.304 58.1408 672.836 57.6083 672.836 56.9427V51.3517C672.836 50.6861 672.304 50.1536 671.638 50.1536H671.372C670.706 50.1536 670.174 49.6211 670.174 48.9555V48.6893C670.174 48.0237 669.641 47.4912 668.976 47.4912H666.047C665.381 47.4912 664.849 46.9587 664.849 46.2931V46.0269C664.849 45.3613 665.381 44.8288 666.047 44.8288H700.924C701.59 44.8288 702.122 45.3613 702.122 46.0269V46.2931C702.122 46.9587 702.655 47.4912 703.321 47.4912H706.249C706.915 47.4912 707.447 48.0237 707.447 48.6893V48.9555C707.447 49.6211 707.98 50.1536 708.645 50.1536H708.912C709.577 50.1536 710.11 50.6861 710.11 51.3517V54.2803C710.11 54.9459 710.642 55.4784 711.308 55.4784H711.574C712.24 55.4784 712.772 56.0109 712.772 56.6765V75.5795C712.772 76.2451 712.24 76.7776 711.574 76.7776H711.308C710.642 76.7776 710.11 77.3101 710.11 77.9757V83.5667C710.11 84.2323 709.577 84.7648 708.912 84.7648H708.645C707.98 84.7648 707.447 85.2973 707.447 85.9629V86.2291C707.447 86.8947 706.915 87.4272 706.249 87.4272H705.983C705.317 87.4272 704.785 87.9597 704.785 88.6253V88.8915C704.785 89.5571 704.252 90.0896 703.587 90.0896H703.321C702.655 90.0896 702.122 90.6221 702.122 91.2877V91.5539C702.122 92.2195 701.59 92.752 700.924 92.752H700.658C699.993 92.752 699.46 93.2845 699.46 93.9501V94.2163C699.46 94.8819 698.928 95.4144 698.262 95.4144H697.996C697.33 95.4144 696.798 95.9469 696.798 96.6125V96.8787C696.798 97.5443 696.265 98.0768 695.6 98.0768H692.671C692.005 98.0768 691.473 98.6093 691.473 99.2749V99.5411C691.473 100.207 690.94 100.739 690.275 100.739H690.009C689.343 100.739 688.81 101.272 688.81 101.937V104.866C688.81 105.532 689.343 106.064 690.009 106.064H690.275C690.94 106.064 691.473 106.596 691.473 107.262V115.516C691.473 116.181 692.005 116.714 692.671 116.714H692.937C693.603 116.714 694.135 117.246 694.135 117.912V128.828C694.135 129.493 694.668 130.026 695.333 130.026H695.6C696.265 130.026 696.798 130.558 696.798 131.224V139.477C696.798 140.143 697.33 140.675 697.996 140.675H698.262C698.928 140.675 699.46 141.208 699.46 141.873V142.14C699.46 142.805 699.993 143.338 700.658 143.338H703.587C704.252 143.338 704.785 143.87 704.785 144.536V144.802C704.785 145.468 704.252 146 703.587 146H679.359C678.693 146 678.161 145.468 678.161 144.802V144.536C678.161 143.87 678.693 143.338 679.359 143.338H682.288C682.953 143.338 683.486 142.805 683.486 142.14V141.873C683.486 141.208 684.018 140.675 684.684 140.675H684.95C685.616 140.675 686.148 140.143 686.148 139.477V131.224C686.148 130.558 685.616 130.026 684.95 130.026H684.684C684.018 130.026 683.486 129.493 683.486 128.828V117.912C683.486 117.246 682.953 116.714 682.288 116.714H682.021C681.356 116.714 680.823 116.181 680.823 115.516V107.262C680.823 106.596 680.291 106.064 679.625 106.064H679.359C678.693 106.064 678.161 105.532 678.161 104.866V101.937C678.161 101.272 677.628 100.739 676.963 100.739H671.372C670.706 100.739 670.174 101.272 670.174 101.937V102.204C670.174 102.869 669.641 103.402 668.976 103.402H668.709C668.044 103.402 667.511 103.934 667.511 104.6V112.853C667.511 113.519 666.979 114.051 666.313 114.051H666.047C665.381 114.051 664.849 114.584 664.849 115.249V120.84C664.849 121.506 664.316 122.038 663.651 122.038H663.385C662.719 122.038 662.186 122.571 662.186 123.236V131.49C662.186 132.156 661.654 132.688 660.988 132.688H660.722C660.057 132.688 659.524 133.22 659.524 133.886V139.477C659.524 140.143 660.057 140.675 660.722 140.675H660.988C661.654 140.675 662.186 141.208 662.186 141.873V142.14C662.186 142.805 662.719 143.338 663.385 143.338H666.313C666.979 143.338 667.511 143.87 667.511 144.536V144.802C667.511 145.468 666.979 146 666.313 146H636.761ZM672.836 94.2163C672.836 94.8819 673.369 95.4144 674.034 95.4144H687.612C688.278 95.4144 688.81 94.8819 688.81 94.2163V93.9501C688.81 93.2845 689.343 92.752 690.009 92.752H690.275C690.94 92.752 691.473 92.2195 691.473 91.5539V91.2877C691.473 90.6221 692.005 90.0896 692.671 90.0896H692.937C693.603 90.0896 694.135 89.5571 694.135 88.8915V88.6253C694.135 87.9597 694.668 87.4272 695.333 87.4272H695.6C696.265 87.4272 696.798 86.8947 696.798 86.2291V85.9629C696.798 85.2973 697.33 84.7648 697.996 84.7648H698.262C698.928 84.7648 699.46 84.2323 699.46 83.5667V77.9757C699.46 77.3101 699.993 76.7776 700.658 76.7776H700.924C701.59 76.7776 702.122 76.2451 702.122 75.5795V59.3389C702.122 58.6733 701.59 58.1408 700.924 58.1408H700.658C699.993 58.1408 699.46 57.6083 699.46 56.9427V54.0141C699.46 53.3485 698.928 52.816 698.262 52.816H697.996C697.33 52.816 696.798 52.2835 696.798 51.6179V51.3517C696.798 50.6861 696.265 50.1536 695.6 50.1536H687.346C686.681 50.1536 686.148 50.6861 686.148 51.3517V51.6179C686.148 52.2835 685.616 52.816 684.95 52.816H684.684C684.018 52.816 683.486 53.3485 683.486 54.0141V56.9427C683.486 57.6083 682.953 58.1408 682.288 58.1408H682.021C681.356 58.1408 680.823 58.6733 680.823 59.3389V64.9299C680.823 65.5955 680.291 66.128 679.625 66.128H679.359C678.693 66.128 678.161 66.6605 678.161 67.3261V75.5795C678.161 76.2451 677.628 76.7776 676.963 76.7776H676.697C676.031 76.7776 675.498 77.3101 675.498 77.9757V83.5667C675.498 84.2323 674.966 84.7648 674.3 84.7648H674.034C673.369 84.7648 672.836 85.2973 672.836 85.9629V94.2163Z" fill="#ACACAC"/>
<path d="M66.078 221.242C66.078 225.382 64.8 228.406 62.244 230.314C59.688 232.222 56.178 233.176 51.714 233.176H46.908V247H42.264V209.794H51.714C56.286 209.794 59.814 210.748 62.298 212.656C64.818 214.564 66.078 217.426 66.078 221.242ZM61.056 221.296C61.056 218.596 60.264 216.634 58.68 215.41C57.132 214.15 55.008 213.52 52.308 213.52H46.908V229.45H52.146C54.954 229.45 57.132 228.838 58.68 227.614C60.264 226.39 61.056 224.284 61.056 221.296ZM77.0729 237.496L74.1029 247H69.4589L81.6089 209.794H87.5489L99.6449 247H94.7849L91.8149 237.496H77.0729ZM90.5729 233.608L84.4709 213.79L78.3149 233.608H90.5729ZM129.756 220.27C129.756 222.934 128.928 225.148 127.272 226.912C125.616 228.64 123.42 229.846 120.684 230.53L131.754 247H126.138L115.932 231.07H110.91V247H106.266V209.794H115.77C120.378 209.794 123.852 210.676 126.192 212.44C128.568 214.204 129.756 216.814 129.756 220.27ZM124.788 220.27C124.788 217.894 124.104 216.184 122.736 215.14C121.368 214.096 119.226 213.574 116.31 213.574H110.91V227.398H116.364C119.136 227.398 121.224 226.84 122.628 225.724C124.068 224.572 124.788 222.754 124.788 220.27ZM151.605 247H146.907V213.844H135.297V209.794H163.323L162.837 213.844H151.605V247ZM192.354 213.574H184.092V243.274H192.354V247H171.078V243.274H179.34V213.574H171.078V209.794H192.354V213.574ZM217.227 209.2C219.531 209.2 221.511 209.506 223.167 210.118C224.823 210.694 226.443 211.594 228.027 212.818L225.381 215.896C223.185 214.06 220.575 213.142 217.551 213.142C214.203 213.142 211.467 214.366 209.343 216.814C207.255 219.226 206.211 223.078 206.211 228.37C206.211 233.626 207.237 237.478 209.289 239.926C211.341 242.374 214.077 243.598 217.497 243.598C219.369 243.598 220.971 243.328 222.303 242.788C223.635 242.248 224.913 241.492 226.137 240.52L228.567 243.544C225.795 246.244 222.087 247.594 217.443 247.594C214.383 247.594 211.629 246.856 209.181 245.38C206.733 243.868 204.807 241.672 203.403 238.792C201.999 235.912 201.297 232.438 201.297 228.37C201.297 224.338 201.999 220.882 203.403 218.002C204.843 215.086 206.769 212.89 209.181 211.414C211.629 209.938 214.311 209.2 217.227 209.2ZM237.617 209.794H242.261V242.842H259.271L258.677 247H237.617V209.794ZM274.1 226.21H287.924V230.044H274.1V243.22H291.056V247H269.456V209.794H290.57L290.03 213.682H274.1V226.21ZM339.56 226.696H354.14V230.476H339.56V247H334.862V209.794H356.786L356.246 213.682H339.56V226.696ZM367.133 209.794H371.777V242.842H388.787L388.193 247H367.133V209.794ZM422.03 228.424C422.03 234.22 420.842 238.864 418.466 242.356C416.126 245.848 412.76 247.594 408.368 247.594C403.94 247.594 400.556 245.884 398.216 242.464C395.876 239.044 394.706 234.382 394.706 228.478C394.706 224.698 395.228 221.35 396.272 218.434C397.316 215.518 398.864 213.25 400.916 211.63C402.968 210.01 405.452 209.2 408.368 209.2C412.76 209.2 416.126 210.946 418.466 214.438C420.842 217.894 422.03 222.556 422.03 228.424ZM417.17 228.424C417.17 223.348 416.468 219.532 415.064 216.976C413.66 214.42 411.428 213.142 408.368 213.142C405.308 213.142 403.076 214.438 401.672 217.03C400.268 219.586 399.566 223.402 399.566 228.478C399.566 233.518 400.268 237.316 401.672 239.872C403.112 242.392 405.344 243.652 408.368 243.652C411.428 243.652 413.66 242.392 415.064 239.872C416.468 237.316 417.17 233.5 417.17 228.424ZM451.061 247H444.905L440.639 218.92L436.319 247H430.001L424.817 209.794H429.515L433.457 241.87L437.939 214.114H443.663L447.929 241.87L452.357 209.794H456.677L451.061 247ZM500.753 226.21H514.577V230.044H500.753V243.22H517.709V247H496.109V209.794H517.223L516.683 213.682H500.753V226.21ZM529.892 214.33C529.892 214.582 530 216.148 530.216 219.028C530.432 221.908 530.54 225.022 530.54 228.37V247H526.166V209.794H532.538L545.876 242.626L545.768 240.682C545.408 236.254 545.228 232.168 545.228 228.424V209.794H549.602V247H543.014L529.892 214.33ZM571.019 247.594C566.483 247.594 562.919 245.974 560.327 242.734C557.771 239.458 556.493 234.67 556.493 228.37C556.493 224.266 557.213 220.774 558.653 217.894C560.093 215.014 562.001 212.854 564.377 211.414C566.753 209.938 569.327 209.2 572.099 209.2C574.439 209.2 576.401 209.524 577.985 210.172C579.569 210.82 581.135 211.864 582.683 213.304L579.875 216.22C578.723 215.176 577.517 214.402 576.257 213.898C575.033 213.394 573.647 213.142 572.099 213.142C569.075 213.142 566.555 214.348 564.539 216.76C562.523 219.172 561.515 223.042 561.515 228.37C561.515 233.662 562.325 237.532 563.945 239.98C565.601 242.428 568.085 243.652 571.397 243.652C574.025 243.652 576.383 243.058 578.471 241.87V230.584H571.181L570.641 226.642H583.169V244.354C581.297 245.398 579.407 246.208 577.499 246.784C575.627 247.324 573.467 247.594 571.019 247.594ZM613.279 213.574H605.017V243.274H613.279V247H592.003V243.274H600.265V213.574H592.003V209.794H613.279V213.574ZM627.028 214.33C627.028 214.582 627.136 216.148 627.352 219.028C627.568 221.908 627.676 225.022 627.676 228.37V247H623.302V209.794H629.674L643.012 242.626L642.904 240.682C642.544 236.254 642.364 232.168 642.364 228.424V209.794H646.738V247H640.15L627.028 214.33ZM662.647 226.21H676.471V230.044H662.647V243.22H679.603V247H658.003V209.794H679.117L678.577 213.682H662.647V226.21Z" fill="white"/>
</svg>
