<?xml version="1.0" encoding="UTF-8"?><svg id="Layer_1" xmlns="http://www.w3.org/2000/svg" viewBox="0 0 726.82 141.95"><defs><style>.cls-1{fill:#fff;}</style></defs><rect class="cls-1" x="348.97" y="131.36" width="5.72" height="5.82"/><g><g><g><path class="cls-1" d="M348.26,42.87c0,6.49-6.07,12.13-15.1,17.26-.49,1.88-.99,3.59-1.02,4.96-11.27,52.11-21.3,65.61-50.05,70.05l.08-.85c27.53-6.32,30.03-34.51,37.01-67.32l.12-.51c-9.17,3.76-24.79,11.48-33.86,15.97-16.64,27-34.52,51.94-62.54,51.94-58.61,0-8.04-78.08,33.35-68,11.92,2.9,12.33,11.62,7.47,20.67l18.97-6.49c19.84-32.29,43-73.72,77.51-73.72l-.25,.85c-14.63,2.22-22.37,32.63-26.38,49.72,8.26-4.27,13.23-9.06,13.03-14.18l1.67-.34Zm-67.63,40.92c-6.6,2.22-13.05,4.27-18.64,6.32-4.58,6.83-11.38,13.67-18.09,18.11-6.71,4.44-12.6,5.3-13.8,2.05-2.53-7.86,10.43-14.52,28.68-21.36,4.51-7.52,6.26-15.21-.88-18.11-26.06-10.59-79.4,60.66-33.95,60.66,24.78,0,41.22-22.38,56.67-47.67Zm-42.71,21.19c1.3,4.27,11.43-3.42,18.49-12.64-11.82,4.61-19.38,9.06-18.49,12.64Zm82.1-41.43c7.94-35.03,17.26-50.4,34.16-55.36-27.44,3.93-48.65,40.01-66.71,69.74,9.91-3.25,23.85-10.97,32.55-14.39Z"/><path class="cls-1" d="M281.53,135.73l.18-1.85,.35-.08c24.25-5.57,28.77-28.06,34.5-56.53,.66-3.26,1.33-6.6,2.04-9.98-9.26,3.88-24.45,11.39-32.82,15.53-16.26,26.36-34.51,52.06-62.89,52.06-13.06,0-21.83-3.93-25.37-11.37-4.33-9.11-.47-22.82,10.07-35.78,6.21-7.64,14.11-14.04,22.22-18.02,9.17-4.5,18.35-5.82,26.55-3.82,5.05,1.23,8.37,3.56,9.87,6.92,1.58,3.54,1.05,8.14-1.51,13.37l17.62-6.03c1.12-1.83,2.26-3.69,3.4-5.56,19.53-31.99,41.66-68.24,74.44-68.24h.67l-.53,1.8-.31,.05c-14.55,2.21-22.28,33.65-25.72,48.27,8-4.31,11.96-8.75,11.79-13.21l-.02-.42,2.69-.55v.61c0,6-4.96,11.76-15.17,17.59l-.15,.58c-.4,1.51-.77,2.94-.79,4.05-11.27,52.19-21.18,66.01-50.47,70.54l-.64,.1Zm38.46-70.1l-.33,1.45c-.75,3.52-1.45,6.99-2.13,10.38-5.64,28.05-10.12,50.37-33.29,56.81,27.03-4.82,36.55-19.1,47.4-69.29,.01-1.14,.4-2.62,.82-4.19l.26-.99,.18-.1c9.63-5.46,14.49-10.77,14.83-16.21l-.65,.13c-.07,4.91-4.54,9.69-13.31,14.22l-.96,.5,.25-1.06c3.29-14.03,10.93-46.55,25.97-49.94-1.67,.04-3.3,.19-4.91,.42l.2,.91c-16.67,4.89-25.84,19.79-33.82,54.99l-.06,.26-.25,.1c-3.58,1.41-8.05,3.55-12.79,5.81-6.85,3.28-13.94,6.67-19.79,8.58l-1.29,.42,2.15-3.55c16.81-27.7,35.7-58.82,59.83-66.28-25.93,7.45-44.81,38.38-61.72,66.08-1.18,1.93-2.34,3.84-3.5,5.72l-.09,.15-20.34,6.96,.6-1.12c2.9-5.4,3.61-10.11,2.05-13.6-1.37-3.06-4.46-5.2-9.2-6.35-11.65-2.84-31.15,1.09-47.75,21.5-10.14,12.46-14.04,26.09-9.94,34.71,3.36,7.07,11.82,10.8,24.46,10.8,27.91,0,45.99-25.54,62.12-51.7l.08-.12,.13-.06c8.62-4.26,24.66-12.2,33.89-15.98l.89-.36Zm27.54-55.32c-23.26,7.94-41.73,38.37-58.19,65.5l-.74,1.21c5.52-1.95,12.04-5.07,18.37-8.09,4.65-2.22,9.04-4.32,12.61-5.74,6.97-30.65,14.91-46.04,27.95-52.87Zm-123.59,121.65c-9.11,0-14.88-2.78-17.17-8.26-3.11-7.45,.82-22.81,16.79-38.92,9.72-9.81,23.89-18.75,34.51-14.44,2.42,.98,4,2.55,4.7,4.67,1.45,4.35-1.15,10.1-3.58,14.17l-.09,.15-.16,.06c-21.93,8.21-30.42,14.42-28.38,20.74,.25,.67,.77,1.15,1.54,1.4,2.43,.79,6.84-.63,11.5-3.72,6.65-4.4,13.36-11.12,17.95-17.97l.09-.14,.15-.06c3.93-1.44,8.23-2.87,12.79-4.37,1.93-.64,3.89-1.29,5.86-1.95l1.3-.44-.72,1.17c-14.82,24.24-31.43,47.91-57.1,47.91Zm28.16-61.74c-9.23,0-19.98,7.35-27.82,15.26-11.32,11.42-20.65,28.08-16.58,37.83,2.11,5.07,7.58,7.65,16.25,7.65,24.74,0,41.04-22.67,55.53-46.26-1.54,.51-3.06,1.02-4.56,1.52-4.49,1.49-8.74,2.89-12.61,4.31-4.66,6.91-11.43,13.67-18.14,18.11-4.99,3.3-9.61,4.74-12.37,3.83-1.06-.35-1.81-1.05-2.17-2.03-2.81-8.71,12.16-15.69,28.81-21.94,2.3-3.87,4.72-9.25,3.4-13.19-.61-1.82-2-3.19-4.13-4.06-1.77-.72-3.65-1.05-5.6-1.05Zm-12.53,36.47c-.17,0-.33-.01-.49-.04-.82-.15-1.4-.67-1.66-1.52v-.03c-.9-3.61,5.24-7.94,18.79-13.23l1.67-.65-1.09,1.42c-5.35,6.99-13.33,14.05-17.22,14.05Zm-1.18-1.84c.15,.48,.43,.74,.87,.82,2.71,.49,9.88-5.17,15.59-12.18-14.4,5.81-16.94,9.37-16.46,11.36Z"/></g><g><rect class="cls-1" x="703.92" y="129" width="5.73" height="5.82"/><rect class="cls-1" x="709.65" y="129" width="5.73" height="5.82"/><rect class="cls-1" x="698.2" y="129" width="5.73" height="5.82"/><rect class="cls-1" x="663.85" y="129" width="5.73" height="5.82"/><rect class="cls-1" x="658.12" y="129" width="5.73" height="5.82"/><rect class="cls-1" x="652.4" y="129" width="5.73" height="5.82"/><rect class="cls-1" x="623.77" y="129" width="5.72" height="5.82"/><rect class="cls-1" x="618.05" y="129" width="5.73" height="5.82"/><rect class="cls-1" x="612.32" y="129" width="5.73" height="5.82"/><rect class="cls-1" x="595.15" y="129" width="17.17" height="5.82"/><rect class="cls-1" x="589.42" y="129" width="5.73" height="5.82"/><rect class="cls-1" x="583.7" y="129" width="5.73" height="5.82"/><rect class="cls-1" x="577.97" y="129" width="5.72" height="5.82"/><rect class="cls-1" x="549.35" y="129" width="5.72" height="5.82"/><rect class="cls-1" x="543.62" y="129" width="5.73" height="5.82"/><rect class="cls-1" x="537.9" y="129" width="5.73" height="5.82"/><rect class="cls-1" x="515" y="129" width="5.73" height="5.82"/><rect class="cls-1" x="509.27" y="129" width="5.73" height="5.82"/><rect class="cls-1" x="503.55" y="129" width="5.72" height="5.82"/><rect class="cls-1" x="497.82" y="129" width="5.73" height="5.82"/><rect class="cls-1" x="457.75" y="129" width="5.72" height="5.82"/><rect class="cls-1" x="452.02" y="129" width="5.73" height="5.82"/><rect class="cls-1" x="446.3" y="129" width="5.73" height="5.82"/><rect class="cls-1" x="440.57" y="129" width="5.72" height="5.82"/><rect class="cls-1" x="394.77" y="129" width="5.72" height="5.82"/><rect class="cls-1" x="389.05" y="129" width="5.73" height="5.82"/><rect class="cls-1" x="383.32" y="129" width="5.73" height="5.82"/><rect class="cls-1" x="365.37" y="129" width="17.95" height="5.82"/><rect class="cls-1" x="360.42" y="129" width="5.73" height="5.82"/><rect class="cls-1" x="354.7" y="129" width="5.73" height="5.82"/><rect class="cls-1" x="703.92" y="123.18" width="5.73" height="5.82"/><rect class="cls-1" x="709.65" y="123.18" width="5.73" height="5.82"/><rect class="cls-1" x="698.2" y="123.18" width="5.73" height="5.82"/><rect class="cls-1" x="692.47" y="123.18" width="5.73" height="5.82"/><rect class="cls-1" x="663.85" y="123.18" width="5.73" height="5.82"/><rect class="cls-1" x="658.12" y="123.18" width="5.73" height="5.82"/><rect class="cls-1" x="652.4" y="123.18" width="5.73" height="5.82"/><rect class="cls-1" x="629.5" y="123.18" width="5.73" height="5.82"/><rect class="cls-1" x="623.77" y="123.18" width="5.72" height="5.82"/><rect class="cls-1" x="618.05" y="123.18" width="5.73" height="5.82"/><rect class="cls-1" x="589.42" y="123.18" width="5.73" height="5.82"/><rect class="cls-1" x="583.7" y="123.18" width="5.73" height="5.82"/><rect class="cls-1" x="577.97" y="123.18" width="5.72" height="5.82"/><rect class="cls-1" x="549.35" y="123.18" width="5.72" height="5.82"/><rect class="cls-1" x="543.62" y="123.18" width="5.73" height="5.82"/><rect class="cls-1" x="509.27" y="123.18" width="5.73" height="5.82"/><rect class="cls-1" x="503.55" y="123.18" width="5.72" height="5.82"/><rect class="cls-1" x="457.75" y="123.18" width="5.72" height="5.82"/><rect class="cls-1" x="452.02" y="123.18" width="5.73" height="5.82"/><rect class="cls-1" x="446.3" y="123.18" width="5.73" height="5.82"/><rect class="cls-1" x="400.5" y="123.18" width="5.73" height="5.82"/><rect class="cls-1" x="394.77" y="123.18" width="5.72" height="5.82"/><rect class="cls-1" x="389.05" y="123.18" width="5.73" height="5.82"/><rect class="cls-1" x="360.42" y="123.18" width="5.73" height="5.82"/><rect class="cls-1" x="354.7" y="123.18" width="5.73" height="5.82"/><rect class="cls-1" x="703.92" y="117.36" width="5.73" height="5.82"/><rect class="cls-1" x="709.65" y="117.36" width="5.73" height="5.82"/><rect class="cls-1" x="698.2" y="117.36" width="5.73" height="5.82"/><rect class="cls-1" x="692.47" y="117.36" width="5.73" height="5.82"/><rect class="cls-1" x="686.75" y="117.36" width="5.72" height="5.82"/><rect class="cls-1" x="663.85" y="117.36" width="5.73" height="5.82"/><rect class="cls-1" x="658.12" y="117.36" width="5.73" height="5.82"/><rect class="cls-1" x="629.5" y="117.36" width="5.73" height="5.82"/><rect class="cls-1" x="623.77" y="117.36" width="5.72" height="5.82"/><rect class="cls-1" x="589.42" y="117.36" width="5.73" height="5.82"/><rect class="cls-1" x="583.7" y="117.36" width="5.73" height="5.82"/><rect class="cls-1" x="549.35" y="117.36" width="5.72" height="5.82"/><rect class="cls-1" x="543.62" y="117.36" width="5.73" height="5.82"/><rect class="cls-1" x="509.27" y="117.36" width="5.73" height="5.82"/><rect class="cls-1" x="503.55" y="117.36" width="5.72" height="5.82"/><rect class="cls-1" x="457.75" y="117.36" width="5.72" height="5.82"/><rect class="cls-1" x="452.02" y="117.36" width="5.73" height="5.82"/><rect class="cls-1" x="446.3" y="117.36" width="5.73" height="5.82"/><rect class="cls-1" x="400.5" y="117.36" width="5.73" height="5.82"/><rect class="cls-1" x="360.42" y="117.36" width="5.73" height="5.82"/><rect class="cls-1" x="354.7" y="117.36" width="5.73" height="5.82"/><rect class="cls-1" x="692.47" y="111.55" width="5.73" height="5.82"/><rect class="cls-1" x="686.75" y="111.55" width="5.72" height="5.82"/><rect class="cls-1" x="663.85" y="111.55" width="5.73" height="5.82"/><rect class="cls-1" x="658.12" y="111.55" width="5.73" height="5.82"/><rect class="cls-1" x="629.5" y="105.73" width="5.73" height="11.64"/><rect class="cls-1" x="589.42" y="111.55" width="5.73" height="5.82"/><rect class="cls-1" x="583.7" y="111.55" width="5.73" height="5.82"/><rect class="cls-1" x="549.35" y="111.55" width="5.72" height="5.82"/><rect class="cls-1" x="543.62" y="111.55" width="5.73" height="5.82"/><rect class="cls-1" x="515" y="111.55" width="5.73" height="5.82"/><rect class="cls-1" x="509.27" y="111.55" width="5.73" height="5.82"/><rect class="cls-1" x="503.55" y="111.55" width="5.72" height="5.82"/><rect class="cls-1" x="457.75" y="111.55" width="5.72" height="5.82"/><rect class="cls-1" x="452.02" y="111.55" width="5.73" height="5.82"/><rect class="cls-1" x="446.3" y="111.55" width="5.73" height="5.82"/><rect class="cls-1" x="400.5" y="111.55" width="5.73" height="5.82"/><rect class="cls-1" x="366.15" y="111.55" width="5.72" height="5.82"/><rect class="cls-1" x="360.42" y="111.55" width="5.73" height="5.82"/><rect class="cls-1" x="354.7" y="111.55" width="5.73" height="5.82"/><rect class="cls-1" x="686.75" y="105.73" width="5.72" height="5.82"/><rect class="cls-1" x="681.02" y="105.73" width="5.73" height="5.82"/><rect class="cls-1" x="669.57" y="105.73" width="5.72" height="5.82"/><rect class="cls-1" x="663.85" y="105.73" width="5.73" height="5.82"/><rect class="cls-1" x="658.12" y="105.73" width="5.73" height="5.82"/><rect class="cls-1" x="595.15" y="105.73" width="5.72" height="5.82"/><rect class="cls-1" x="589.42" y="105.73" width="5.73" height="5.82"/><rect class="cls-1" x="583.7" y="105.73" width="5.73" height="5.82"/><rect class="cls-1" x="555.07" y="105.73" width="5.73" height="5.82"/><rect class="cls-1" x="549.35" y="105.73" width="5.72" height="5.82"/><rect class="cls-1" x="543.62" y="105.73" width="5.73" height="5.82"/><rect class="cls-1" x="515" y="105.73" width="5.73" height="5.82"/><rect class="cls-1" x="509.27" y="105.73" width="5.73" height="5.82"/><rect class="cls-1" x="503.55" y="105.73" width="5.72" height="5.82"/><rect class="cls-1" x="457.75" y="105.73" width="5.72" height="5.82"/><rect class="cls-1" x="452.02" y="105.73" width="5.73" height="5.82"/><rect class="cls-1" x="406.22" y="105.73" width="5.73" height="5.82"/><rect class="cls-1" x="366.15" y="105.73" width="5.72" height="5.82"/><rect class="cls-1" x="360.42" y="105.73" width="5.73" height="5.82"/><rect class="cls-1" x="354.7" y="105.73" width="5.73" height="5.82"/><rect class="cls-1" x="681.02" y="99.91" width="5.73" height="5.82"/><rect class="cls-1" x="669.57" y="99.91" width="5.72" height="5.82"/><rect class="cls-1" x="663.85" y="99.91" width="5.73" height="5.82"/><rect class="cls-1" x="658.12" y="99.91" width="5.73" height="5.82"/><rect class="cls-1" x="635.22" y="99.91" width="5.73" height="5.82"/><rect class="cls-1" x="595.15" y="99.91" width="5.72" height="5.82"/><rect class="cls-1" x="589.42" y="99.91" width="5.73" height="5.82"/><rect class="cls-1" x="555.07" y="99.91" width="5.73" height="5.82"/><rect class="cls-1" x="549.35" y="99.91" width="5.72" height="5.82"/><rect class="cls-1" x="515" y="99.91" width="5.73" height="5.82"/><rect class="cls-1" x="509.27" y="99.91" width="5.73" height="5.82"/><rect class="cls-1" x="457.75" y="99.91" width="5.72" height="5.82"/><rect class="cls-1" x="452.02" y="99.91" width="5.73" height="5.82"/><rect class="cls-1" x="406.22" y="99.91" width="5.73" height="5.82"/><rect class="cls-1" x="366.15" y="99.91" width="5.72" height="5.82"/><rect class="cls-1" x="360.42" y="99.91" width="5.73" height="5.82"/><rect class="cls-1" x="675.3" y="94.09" width="5.73" height="5.82"/><rect class="cls-1" x="669.57" y="94.09" width="5.72" height="5.82"/><rect class="cls-1" x="663.85" y="94.09" width="5.73" height="5.82"/><rect class="cls-1" x="595.15" y="94.09" width="5.72" height="5.82"/><rect class="cls-1" x="589.42" y="94.09" width="5.73" height="5.82"/><rect class="cls-1" x="555.07" y="94.09" width="5.73" height="5.82"/><rect class="cls-1" x="549.35" y="94.09" width="5.72" height="5.82"/><rect class="cls-1" x="515" y="94.09" width="5.73" height="5.82"/><rect class="cls-1" x="509.27" y="94.09" width="5.73" height="5.82"/><rect class="cls-1" x="457.75" y="94.09" width="5.72" height="5.82"/><rect class="cls-1" x="452.02" y="94.09" width="5.73" height="5.82"/><rect class="cls-1" x="366.15" y="94.09" width="5.72" height="5.82"/><rect class="cls-1" x="360.42" y="94.09" width="5.73" height="5.82"/><rect class="cls-1" x="675.3" y="88.27" width="5.73" height="5.82"/><rect class="cls-1" x="669.57" y="88.27" width="5.72" height="5.82"/><rect class="cls-1" x="663.85" y="88.27" width="5.73" height="5.82"/><rect class="cls-1" x="595.15" y="88.27" width="5.72" height="5.82"/><rect class="cls-1" x="589.42" y="88.27" width="5.73" height="5.82"/><rect class="cls-1" x="555.07" y="88.27" width="5.73" height="5.82"/><rect class="cls-1" x="549.35" y="88.27" width="5.72" height="5.82"/><rect class="cls-1" x="515" y="88.27" width="5.73" height="5.82"/><rect class="cls-1" x="509.27" y="88.27" width="5.73" height="5.82"/><rect class="cls-1" x="463.47" y="88.27" width="5.73" height="5.82"/><rect class="cls-1" x="457.75" y="88.27" width="5.72" height="5.82"/><rect class="cls-1" x="452.02" y="88.27" width="5.73" height="5.82"/><rect class="cls-1" x="366.15" y="88.27" width="5.72" height="5.82"/><rect class="cls-1" x="360.42" y="88.27" width="5.73" height="5.82"/><rect class="cls-1" x="692.47" y="82.46" width="5.73" height="5.82"/><rect class="cls-1" x="686.75" y="82.46" width="5.72" height="5.82"/><rect class="cls-1" x="672.43" y="82.46" width="14.31" height="5.82"/><rect class="cls-1" x="669.57" y="82.46" width="5.72" height="5.82"/><rect class="cls-1" x="663.85" y="82.46" width="5.73" height="5.82"/><rect class="cls-1" x="595.15" y="82.46" width="5.72" height="5.82"/><rect class="cls-1" x="589.42" y="82.46" width="5.73" height="5.82"/><rect class="cls-1" x="555.07" y="82.46" width="5.73" height="5.82"/><rect class="cls-1" x="549.35" y="82.46" width="5.72" height="5.82"/><rect class="cls-1" x="520.72" y="82.46" width="5.73" height="5.82"/><rect class="cls-1" x="515" y="82.46" width="5.73" height="5.82"/><rect class="cls-1" x="509.27" y="82.46" width="5.73" height="5.82"/><rect class="cls-1" x="463.47" y="82.46" width="5.73" height="5.82"/><rect class="cls-1" x="457.75" y="82.46" width="5.72" height="5.82"/><rect class="cls-1" x="371.87" y="82.46" width="5.73" height="5.82"/><rect class="cls-1" x="366.15" y="82.46" width="5.72" height="5.82"/><rect class="cls-1" x="360.42" y="82.46" width="5.73" height="5.82"/><rect class="cls-1" x="698.2" y="76.64" width="5.73" height="5.82"/><rect class="cls-1" x="692.47" y="76.64" width="5.73" height="5.82"/><rect class="cls-1" x="675.3" y="76.64" width="5.73" height="5.82"/><rect class="cls-1" x="669.57" y="76.64" width="5.72" height="5.82"/><rect class="cls-1" x="663.85" y="76.64" width="5.73" height="5.82"/><rect class="cls-1" x="600.87" y="76.64" width="5.73" height="5.82"/><rect class="cls-1" x="595.15" y="76.64" width="5.72" height="5.82"/><rect class="cls-1" x="589.42" y="76.64" width="5.73" height="5.82"/><rect class="cls-1" x="560.8" y="76.64" width="5.73" height="5.82"/><rect class="cls-1" x="555.07" y="76.64" width="5.73" height="5.82"/><rect class="cls-1" x="549.35" y="76.64" width="5.72" height="5.82"/><rect class="cls-1" x="520.72" y="76.64" width="5.73" height="5.82"/><rect class="cls-1" x="515" y="76.64" width="5.73" height="5.82"/><rect class="cls-1" x="509.27" y="76.64" width="5.73" height="5.82"/><rect class="cls-1" x="463.47" y="76.64" width="5.73" height="5.82"/><rect class="cls-1" x="457.75" y="76.64" width="5.72" height="5.82"/><rect class="cls-1" x="371.87" y="76.64" width="5.73" height="5.82"/><rect class="cls-1" x="366.15" y="76.64" width="5.72" height="5.82"/><rect class="cls-1" x="703.92" y="70.82" width="5.73" height="5.82"/><rect class="cls-1" x="698.2" y="70.82" width="5.73" height="5.82"/><rect class="cls-1" x="675.3" y="70.82" width="5.73" height="5.82"/><rect class="cls-1" x="669.57" y="70.82" width="5.72" height="5.82"/><rect class="cls-1" x="663.85" y="70.82" width="5.73" height="5.82"/><rect class="cls-1" x="600.87" y="70.82" width="5.73" height="5.82"/><rect class="cls-1" x="595.15" y="70.82" width="5.72" height="5.82"/><rect class="cls-1" x="560.8" y="70.82" width="5.73" height="5.82"/><rect class="cls-1" x="555.07" y="70.82" width="5.73" height="5.82"/><rect class="cls-1" x="520.72" y="70.82" width="5.73" height="5.82"/><rect class="cls-1" x="515" y="70.82" width="5.73" height="5.82"/><rect class="cls-1" x="463.47" y="70.82" width="5.73" height="5.82"/><rect class="cls-1" x="457.75" y="70.82" width="5.72" height="5.82"/><rect class="cls-1" x="371.87" y="70.82" width="5.73" height="5.82"/><rect class="cls-1" x="366.15" y="70.82" width="5.72" height="5.82"/><rect class="cls-1" x="709.65" y="65" width="5.73" height="5.82"/><rect class="cls-1" x="703.92" y="65" width="5.73" height="5.82"/><rect class="cls-1" x="675.3" y="65" width="5.73" height="5.82"/><rect class="cls-1" x="669.57" y="65" width="5.72" height="5.82"/><rect class="cls-1" x="629.5" y="65" width="5.73" height="5.82"/><rect class="cls-1" x="623.77" y="65" width="5.72" height="5.82"/><rect class="cls-1" x="600.87" y="65" width="5.73" height="5.82"/><rect class="cls-1" x="595.15" y="65" width="5.72" height="5.82"/><rect class="cls-1" x="560.8" y="65" width="5.73" height="5.82"/><rect class="cls-1" x="555.07" y="65" width="5.73" height="5.82"/><rect class="cls-1" x="520.72" y="65" width="5.73" height="5.82"/><rect class="cls-1" x="515" y="65" width="5.73" height="5.82"/><rect class="cls-1" x="469.2" y="65" width="5.73" height="5.82"/><rect class="cls-1" x="463.47" y="65" width="5.73" height="5.82"/><rect class="cls-1" x="457.75" y="65" width="5.72" height="5.82"/><rect class="cls-1" x="400.5" y="65" width="5.73" height="5.82"/><rect class="cls-1" x="394.77" y="65" width="5.72" height="5.82"/><rect class="cls-1" x="371.87" y="65" width="5.73" height="5.82"/><rect class="cls-1" x="366.15" y="65" width="5.72" height="5.82"/><rect class="cls-1" x="715.37" y="59.18" width="5.72" height="5.82"/><rect class="cls-1" x="709.65" y="59.18" width="5.73" height="5.82"/><rect class="cls-1" x="675.3" y="59.18" width="5.73" height="5.82"/><rect class="cls-1" x="669.57" y="59.18" width="5.72" height="5.82"/><rect class="cls-1" x="629.5" y="59.18" width="5.73" height="5.82"/><rect class="cls-1" x="623.77" y="59.18" width="5.72" height="5.82"/><rect class="cls-1" x="618.05" y="59.18" width="5.73" height="5.82"/><rect class="cls-1" x="612.32" y="59.18" width="5.73" height="5.82"/><rect class="cls-1" x="606.6" y="59.18" width="5.73" height="5.82"/><rect class="cls-1" x="600.87" y="59.18" width="5.73" height="5.82"/><rect class="cls-1" x="595.15" y="59.18" width="5.72" height="5.82"/><rect class="cls-1" x="560.8" y="59.18" width="5.73" height="5.82"/><rect class="cls-1" x="555.07" y="59.18" width="5.73" height="5.82"/><rect class="cls-1" x="520.72" y="59.18" width="5.73" height="5.82"/><rect class="cls-1" x="515" y="59.18" width="5.73" height="5.82"/><rect class="cls-1" x="469.2" y="59.18" width="5.73" height="5.82"/><rect class="cls-1" x="463.47" y="59.18" width="5.73" height="5.82"/><rect class="cls-1" x="457.75" y="59.18" width="5.72" height="5.82"/><rect class="cls-1" x="400.5" y="59.18" width="5.73" height="5.82"/><rect class="cls-1" x="394.77" y="59.18" width="5.72" height="5.82"/><rect class="cls-1" x="389.05" y="59.18" width="5.73" height="5.82"/><rect class="cls-1" x="383.32" y="59.18" width="5.73" height="5.82"/><rect class="cls-1" x="377.6" y="59.18" width="5.73" height="5.82"/><rect class="cls-1" x="371.87" y="59.18" width="5.73" height="5.82"/><rect class="cls-1" x="366.15" y="59.18" width="5.72" height="5.82"/><rect class="cls-1" x="715.37" y="53.36" width="5.72" height="5.82"/><rect class="cls-1" x="709.65" y="53.36" width="5.73" height="5.82"/><rect class="cls-1" x="675.3" y="53.36" width="5.73" height="5.82"/><rect class="cls-1" x="669.57" y="53.36" width="5.72" height="5.82"/><rect class="cls-1" x="629.5" y="53.36" width="5.73" height="5.82"/><rect class="cls-1" x="606.6" y="53.36" width="5.73" height="5.82"/><rect class="cls-1" x="600.87" y="53.36" width="5.73" height="5.82"/><rect class="cls-1" x="595.15" y="53.36" width="5.72" height="5.82"/><rect class="cls-1" x="566.52" y="53.36" width="5.73" height="5.82"/><rect class="cls-1" x="560.8" y="53.36" width="5.73" height="5.82"/><rect class="cls-1" x="555.07" y="53.36" width="5.73" height="5.82"/><rect class="cls-1" x="549.35" y="53.36" width="5.72" height="5.82"/><rect class="cls-1" x="543.62" y="53.36" width="5.73" height="5.82"/><rect class="cls-1" x="537.9" y="53.36" width="5.73" height="5.82"/><rect class="cls-1" x="532.17" y="53.36" width="5.72" height="5.82"/><rect class="cls-1" x="526.45" y="53.36" width="5.73" height="5.82"/><rect class="cls-1" x="520.72" y="53.36" width="5.73" height="5.82"/><rect class="cls-1" x="515" y="53.36" width="5.73" height="5.82"/><rect class="cls-1" x="469.2" y="53.36" width="5.73" height="5.82"/><rect class="cls-1" x="463.47" y="53.36" width="5.73" height="5.82"/><rect class="cls-1" x="400.5" y="53.36" width="5.73" height="5.82"/><rect class="cls-1" x="377.6" y="53.36" width="5.73" height="5.82"/><rect class="cls-1" x="371.87" y="53.36" width="5.73" height="5.82"/><rect class="cls-1" x="366.15" y="53.36" width="5.72" height="5.82"/><rect class="cls-1" x="721.1" y="47.55" width="5.73" height="5.82"/><rect class="cls-1" x="715.37" y="47.55" width="5.72" height="5.82"/><rect class="cls-1" x="709.65" y="47.55" width="5.73" height="5.82"/><rect class="cls-1" x="681.02" y="47.55" width="5.73" height="5.82"/><rect class="cls-1" x="675.3" y="47.55" width="5.73" height="5.82"/><rect class="cls-1" x="669.57" y="47.55" width="5.72" height="5.82"/><rect class="cls-1" x="606.6" y="47.55" width="5.73" height="5.82"/><rect class="cls-1" x="600.87" y="47.55" width="5.73" height="5.82"/><rect class="cls-1" x="595.15" y="47.55" width="5.72" height="5.82"/><rect class="cls-1" x="566.52" y="47.55" width="5.73" height="5.82"/><rect class="cls-1" x="560.8" y="47.55" width="5.73" height="5.82"/><rect class="cls-1" x="555.07" y="47.55" width="5.73" height="5.82"/><rect class="cls-1" x="526.45" y="47.55" width="5.73" height="5.82"/><rect class="cls-1" x="520.72" y="47.55" width="5.73" height="5.82"/><rect class="cls-1" x="469.2" y="47.55" width="5.73" height="5.82"/><rect class="cls-1" x="463.47" y="47.55" width="5.73" height="5.82"/><rect class="cls-1" x="377.6" y="47.55" width="5.73" height="5.82"/><rect class="cls-1" x="371.87" y="47.55" width="5.73" height="5.82"/><rect class="cls-1" x="721.1" y="41.73" width="5.73" height="5.82"/><rect class="cls-1" x="715.37" y="41.73" width="5.72" height="5.82"/><rect class="cls-1" x="709.65" y="41.73" width="5.73" height="5.82"/><rect class="cls-1" x="681.02" y="41.73" width="5.73" height="5.82"/><rect class="cls-1" x="675.3" y="41.73" width="5.73" height="5.82"/><rect class="cls-1" x="606.6" y="41.73" width="5.73" height="5.82"/><rect class="cls-1" x="600.87" y="41.73" width="5.73" height="5.82"/><rect class="cls-1" x="566.52" y="41.73" width="5.73" height="5.82"/><rect class="cls-1" x="560.8" y="41.73" width="5.73" height="5.82"/><rect class="cls-1" x="526.45" y="41.73" width="5.73" height="5.82"/><rect class="cls-1" x="520.72" y="41.73" width="5.73" height="5.82"/><rect class="cls-1" x="497.82" y="41.73" width="5.73" height="5.82"/><rect class="cls-1" x="469.2" y="41.73" width="5.73" height="5.82"/><rect class="cls-1" x="463.47" y="41.73" width="5.73" height="5.82"/><rect class="cls-1" x="377.6" y="41.73" width="5.73" height="5.82"/><rect class="cls-1" x="371.87" y="41.73" width="5.73" height="5.82"/><rect class="cls-1" x="721.1" y="35.91" width="5.73" height="5.82"/><rect class="cls-1" x="715.37" y="35.91" width="5.72" height="5.82"/><rect class="cls-1" x="681.02" y="35.91" width="5.73" height="5.82"/><rect class="cls-1" x="675.3" y="35.91" width="5.73" height="5.82"/><rect class="cls-1" x="606.6" y="35.91" width="5.73" height="5.82"/><rect class="cls-1" x="600.87" y="35.91" width="5.73" height="5.82"/><rect class="cls-1" x="566.52" y="35.91" width="5.73" height="5.82"/><rect class="cls-1" x="560.8" y="35.91" width="5.73" height="5.82"/><rect class="cls-1" x="526.45" y="35.91" width="5.73" height="5.82"/><rect class="cls-1" x="520.72" y="35.91" width="5.73" height="5.82"/><rect class="cls-1" x="497.82" y="35.91" width="5.73" height="5.82"/><rect class="cls-1" x="474.92" y="35.91" width="5.73" height="5.82"/><rect class="cls-1" x="469.2" y="35.91" width="5.73" height="5.82"/><rect class="cls-1" x="463.47" y="35.91" width="5.73" height="5.82"/><rect class="cls-1" x="377.6" y="35.91" width="5.73" height="5.82"/><rect class="cls-1" x="371.87" y="35.91" width="5.73" height="5.82"/><rect class="cls-1" x="721.1" y="30.09" width="5.73" height="5.82"/><rect class="cls-1" x="715.37" y="30.09" width="5.72" height="5.82"/><rect class="cls-1" x="681.02" y="30.09" width="5.73" height="5.82"/><rect class="cls-1" x="675.3" y="30.09" width="5.73" height="5.82"/><rect class="cls-1" x="606.6" y="30.09" width="5.73" height="5.82"/><rect class="cls-1" x="600.87" y="30.09" width="5.73" height="5.82"/><rect class="cls-1" x="566.52" y="30.09" width="5.73" height="5.82"/><rect class="cls-1" x="560.8" y="30.09" width="5.73" height="5.82"/><rect class="cls-1" x="532.17" y="30.09" width="5.72" height="5.82"/><rect class="cls-1" x="526.45" y="30.09" width="5.73" height="5.82"/><rect class="cls-1" x="520.72" y="30.09" width="5.73" height="5.82"/><rect class="cls-1" x="497.82" y="30.09" width="5.73" height="5.82"/><rect class="cls-1" x="474.92" y="30.09" width="5.73" height="5.82"/><rect class="cls-1" x="469.2" y="30.09" width="5.73" height="5.82"/><rect class="cls-1" x="463.47" y="30.09" width="5.73" height="5.82"/><rect class="cls-1" x="440.57" y="30.09" width="5.72" height="5.82"/><rect class="cls-1" x="423.4" y="30.09" width="5.73" height="5.82"/><rect class="cls-1" x="383.32" y="30.09" width="5.73" height="5.82"/><rect class="cls-1" x="377.6" y="30.09" width="5.73" height="5.82"/><rect class="cls-1" x="371.87" y="30.09" width="5.73" height="5.82"/><rect class="cls-1" x="721.1" y="24.27" width="5.73" height="5.82"/><rect class="cls-1" x="715.37" y="24.27" width="5.72" height="5.82"/><rect class="cls-1" x="709.65" y="24.27" width="5.73" height="5.82"/><rect class="cls-1" x="681.02" y="24.27" width="5.73" height="5.82"/><rect class="cls-1" x="675.3" y="24.27" width="5.73" height="5.82"/><rect class="cls-1" x="646.67" y="24.27" width="5.73" height="5.82"/><rect class="cls-1" x="612.32" y="24.27" width="5.73" height="5.82"/><rect class="cls-1" x="606.6" y="24.27" width="5.73" height="5.82"/><rect class="cls-1" x="600.87" y="24.27" width="5.73" height="5.82"/><rect class="cls-1" x="572.25" y="24.27" width="5.73" height="5.82"/><rect class="cls-1" x="566.52" y="24.27" width="5.73" height="5.82"/><rect class="cls-1" x="560.8" y="24.27" width="5.73" height="5.82"/><rect class="cls-1" x="532.17" y="24.27" width="5.72" height="5.82"/><rect class="cls-1" x="526.45" y="24.27" width="5.73" height="5.82"/><rect class="cls-1" x="520.72" y="24.27" width="5.73" height="5.82"/><rect class="cls-1" x="497.82" y="24.27" width="5.73" height="5.82"/><rect class="cls-1" x="474.92" y="24.27" width="5.73" height="5.82"/><rect class="cls-1" x="469.2" y="24.27" width="5.73" height="5.82"/><rect class="cls-1" x="446.3" y="24.27" width="5.73" height="5.82"/><rect class="cls-1" x="423.4" y="24.27" width="5.73" height="5.82"/><rect class="cls-1" x="383.32" y="24.27" width="5.73" height="5.82"/><rect class="cls-1" x="377.6" y="24.27" width="5.73" height="5.82"/><rect class="cls-1" x="371.87" y="24.27" width="5.73" height="5.82"/><rect class="cls-1" x="715.37" y="18.46" width="5.72" height="5.82"/><rect class="cls-1" x="709.65" y="18.46" width="5.73" height="5.82"/><rect class="cls-1" x="686.75" y="18.46" width="5.72" height="5.82"/><rect class="cls-1" x="681.02" y="18.46" width="5.73" height="5.82"/><rect class="cls-1" x="675.3" y="18.46" width="5.73" height="5.82"/><rect class="cls-1" x="646.67" y="18.46" width="5.73" height="5.82"/><rect class="cls-1" x="612.32" y="18.46" width="5.73" height="5.82"/><rect class="cls-1" x="606.6" y="18.46" width="5.73" height="5.82"/><rect class="cls-1" x="572.25" y="18.46" width="5.73" height="5.82"/><rect class="cls-1" x="566.52" y="18.46" width="5.73" height="5.82"/><rect class="cls-1" x="560.8" y="18.46" width="5.73" height="5.82"/><rect class="cls-1" x="532.17" y="18.46" width="5.72" height="5.82"/><rect class="cls-1" x="526.45" y="18.46" width="5.73" height="5.82"/><rect class="cls-1" x="497.82" y="18.46" width="5.73" height="5.82"/><rect class="cls-1" x="474.92" y="18.46" width="5.73" height="5.82"/><rect class="cls-1" x="469.2" y="18.46" width="5.73" height="5.82"/><rect class="cls-1" x="446.3" y="18.46" width="5.73" height="5.82"/><rect class="cls-1" x="423.4" y="18.46" width="5.73" height="5.82"/><rect class="cls-1" x="417.67" y="18.46" width="5.73" height="5.82"/><rect class="cls-1" x="383.32" y="18.46" width="5.73" height="5.82"/><rect class="cls-1" x="377.6" y="18.46" width="5.73" height="5.82"/><rect class="cls-1" x="709.65" y="12.64" width="5.73" height="5.82"/><rect class="cls-1" x="686.75" y="12.64" width="5.72" height="5.82"/><rect class="cls-1" x="681.02" y="12.64" width="5.73" height="5.82"/><rect class="cls-1" x="675.3" y="12.64" width="5.73" height="5.82"/><rect class="cls-1" x="652.4" y="12.64" width="5.73" height="5.82"/><rect class="cls-1" x="646.67" y="12.64" width="5.73" height="5.82"/><rect class="cls-1" x="640.95" y="12.64" width="5.72" height="5.82"/><rect class="cls-1" x="612.32" y="12.64" width="5.73" height="5.82"/><rect class="cls-1" x="606.6" y="12.64" width="5.73" height="5.82"/><rect class="cls-1" x="572.25" y="12.64" width="5.73" height="5.82"/><rect class="cls-1" x="566.52" y="12.64" width="5.73" height="5.82"/><rect class="cls-1" x="532.17" y="12.64" width="5.72" height="5.82"/><rect class="cls-1" x="526.45" y="12.64" width="5.73" height="5.82"/><rect class="cls-1" x="497.82" y="12.64" width="5.73" height="5.82"/><rect class="cls-1" x="492.1" y="12.64" width="5.73" height="5.82"/><rect class="cls-1" x="474.92" y="12.64" width="5.73" height="5.82"/><rect class="cls-1" x="469.2" y="12.64" width="5.73" height="5.82"/><rect class="cls-1" x="457.75" y="12.64" width="5.72" height="5.82"/><rect class="cls-1" x="452.02" y="12.64" width="5.73" height="5.82"/><rect class="cls-1" x="446.3" y="12.64" width="5.73" height="5.82"/><rect class="cls-1" x="423.4" y="12.64" width="5.73" height="5.82"/><rect class="cls-1" x="417.67" y="12.64" width="5.73" height="5.82"/><rect class="cls-1" x="411.95" y="12.64" width="5.72" height="5.82"/><rect class="cls-1" x="383.32" y="12.64" width="5.73" height="5.82"/><rect class="cls-1" x="377.6" y="12.64" width="5.73" height="5.82"/><rect class="cls-1" x="703.92" y="6.82" width="5.73" height="5.82"/><rect class="cls-1" x="692.47" y="6.82" width="11.45" height="5.82"/><rect class="cls-1" x="686.75" y="6.82" width="5.72" height="5.82"/><rect class="cls-1" x="681.02" y="6.82" width="5.73" height="5.82"/><rect class="cls-1" x="675.3" y="6.82" width="5.73" height="5.82"/><rect class="cls-1" x="652.4" y="6.82" width="5.73" height="5.82"/><rect class="cls-1" x="646.67" y="6.82" width="5.73" height="5.82"/><rect class="cls-1" x="640.95" y="6.82" width="5.72" height="5.82"/><rect class="cls-1" x="635.22" y="6.82" width="5.73" height="5.82"/><rect class="cls-1" x="616.42" y="6.82" width="18.8" height="5.82"/><rect class="cls-1" x="612.32" y="6.82" width="5.73" height="5.82"/><rect class="cls-1" x="606.6" y="6.82" width="5.73" height="5.82"/><rect class="cls-1" x="600.87" y="6.82" width="5.73" height="5.82"/><rect class="cls-1" x="577.97" y="6.82" width="5.72" height="5.82"/><rect class="cls-1" x="572.25" y="6.82" width="5.73" height="5.82"/><rect class="cls-1" x="566.52" y="6.82" width="5.73" height="5.82"/><rect class="cls-1" x="560.8" y="6.82" width="5.73" height="5.82"/><rect class="cls-1" x="537.9" y="6.82" width="5.73" height="5.82"/><rect class="cls-1" x="532.17" y="6.82" width="5.72" height="5.82"/><rect class="cls-1" x="526.45" y="6.82" width="5.73" height="5.82"/><rect class="cls-1" x="520.72" y="6.82" width="5.73" height="5.82"/><rect class="cls-1" x="497.82" y="6.82" width="5.73" height="5.82"/><rect class="cls-1" x="492.1" y="6.82" width="5.73" height="5.82"/><rect class="cls-1" x="486.37" y="6.82" width="5.72" height="5.82"/><rect class="cls-1" x="480.65" y="6.82" width="5.73" height="5.82"/><rect class="cls-1" x="474.92" y="6.82" width="5.73" height="5.82"/><rect class="cls-1" x="469.2" y="6.82" width="5.73" height="5.82"/><rect class="cls-1" x="463.47" y="6.82" width="5.73" height="5.82"/><rect class="cls-1" x="457.75" y="6.82" width="5.72" height="5.82"/><rect class="cls-1" x="452.02" y="6.82" width="5.73" height="5.82"/><rect class="cls-1" x="423.4" y="6.82" width="5.73" height="5.82"/><rect class="cls-1" x="417.67" y="6.82" width="5.73" height="5.82"/><rect class="cls-1" x="411.95" y="6.82" width="5.72" height="5.82"/><rect class="cls-1" x="406.22" y="6.82" width="5.73" height="5.82"/><rect class="cls-1" x="389.05" y="6.82" width="17.17" height="5.82"/><rect class="cls-1" x="383.32" y="6.82" width="5.73" height="5.82"/><rect class="cls-1" x="377.6" y="6.82" width="5.73" height="5.82"/><rect class="cls-1" x="371.87" y="6.82" width="5.73" height="5.82"/></g></g><g><rect class="cls-1" x="63.33" y="137.83" width="4.09" height="4.03" transform="translate(-76.53 200.63) rotate(-88.13)"/><rect class="cls-1" x="59.3" y="137.7" width="4.09" height="4.03" transform="translate(-80.3 196.47) rotate(-88.13)"/><rect class="cls-1" x="63.46" y="133.74" width="4.09" height="4.03" transform="translate(-72.32 196.81) rotate(-88.13)"/><rect class="cls-1" x="59.43" y="133.61" width="4.09" height="4.03" transform="translate(-76.08 192.66) rotate(-88.13)"/><rect class="cls-1" x="39.28" y="132.96" width="4.09" height="4.03" transform="translate(-94.92 171.88) rotate(-88.13)"/><rect class="cls-1" x="59.56" y="129.53" width="4.09" height="4.03" transform="translate(-71.87 188.84) rotate(-88.13)"/><rect class="cls-1" x="39.41" y="128.87" width="4.09" height="4.03" transform="translate(-90.71 168.06) rotate(-88.13)"/><rect class="cls-1" x="59.7" y="125.44" width="4.09" height="4.03" transform="translate(-67.66 185.02) rotate(-88.13)"/><rect class="cls-1" x="55.67" y="125.31" width="4.09" height="4.03" transform="translate(-71.43 180.86) rotate(-88.13)"/><rect class="cls-1" x="39.54" y="124.78" width="4.09" height="4.03" transform="translate(-86.5 164.24) rotate(-88.13)"/><rect class="cls-1" x="35.51" y="124.65" width="4.09" height="4.03" transform="translate(-90.27 160.08) rotate(-88.13)"/><rect class="cls-1" x="55.8" y="121.22" width="4.09" height="4.03" transform="translate(-67.21 177.04) rotate(-88.13)"/><rect class="cls-1" x="39.68" y="120.7" width="4.09" height="4.03" transform="translate(-82.29 160.42) rotate(-88.13)"/><rect class="cls-1" x="35.65" y="120.57" width="4.09" height="4.03" transform="translate(-86.05 156.26) rotate(-88.13)"/><rect class="cls-1" x="55.93" y="117.14" width="4.09" height="4.03" transform="translate(-63 173.22) rotate(-88.13)"/><rect class="cls-1" x="39.81" y="116.61" width="4.09" height="4.03" transform="translate(-78.07 156.6) rotate(-88.13)"/><rect class="cls-1" x="56.07" y="113.05" width="4.09" height="4.03" transform="translate(-58.79 169.4) rotate(-88.13)"/><rect class="cls-1" x="52.04" y="112.92" width="4.09" height="4.03" transform="translate(-62.56 165.25) rotate(-88.13)"/><rect class="cls-1" x="39.94" y="112.53" width="4.09" height="4.03" transform="translate(-73.86 152.78) rotate(-88.13)"/><rect class="cls-1" x="56.2" y="108.97" width="4.09" height="4.03" transform="translate(-54.58 165.58) rotate(-88.13)"/><rect class="cls-1" x="52.17" y="108.83" width="4.09" height="4.03" transform="translate(-58.34 161.43) rotate(-88.13)"/><rect class="cls-1" x="44.11" y="108.57" width="4.09" height="4.03" transform="translate(-65.88 153.11) rotate(-88.13)"/><rect class="cls-1" x="40.08" y="108.44" width="4.09" height="4.03" transform="translate(-69.65 148.96) rotate(-88.13)"/><rect class="cls-1" x="60.36" y="105.01" width="4.09" height="4.03" transform="translate(-46.6 165.92) rotate(-88.13)"/><rect class="cls-1" x="56.33" y="104.88" width="4.09" height="4.03" transform="translate(-50.36 161.76) rotate(-88.13)"/><rect class="cls-1" x="52.3" y="104.75" width="4.09" height="4.03" transform="translate(-54.13 157.61) rotate(-88.13)"/><rect class="cls-1" x="48.27" y="104.62" width="4.09" height="4.03" transform="translate(-57.9 153.45) rotate(-88.13)"/><rect class="cls-1" x="44.24" y="104.49" width="4.09" height="4.03" transform="translate(-61.67 149.29) rotate(-88.13)"/><rect class="cls-1" x="40.21" y="104.35" width="4.09" height="4.03" transform="translate(-65.44 145.14) rotate(-88.13)"/><rect class="cls-1" x="64.53" y="101.06" width="4.09" height="4.03" transform="translate(-38.62 166.25) rotate(-88.13)"/><rect class="cls-1" x="60.5" y="100.93" width="4.09" height="4.03" transform="translate(-42.38 162.1) rotate(-88.13)"/><rect class="cls-1" x="56.47" y="100.79" width="4.09" height="4.03" transform="translate(-46.15 157.94) rotate(-88.13)"/><rect class="cls-1" x="52.43" y="100.66" width="4.09" height="4.03" transform="translate(-49.92 153.79) rotate(-88.13)"/><rect class="cls-1" x="48.4" y="100.53" width="4.09" height="4.03" transform="translate(-53.69 149.63) rotate(-88.13)"/><rect class="cls-1" x="44.37" y="100.4" width="4.09" height="4.03" transform="translate(-57.46 145.48) rotate(-88.13)"/><rect class="cls-1" x="20.19" y="99.61" width="4.09" height="4.03" transform="translate(-80.06 120.54) rotate(-88.13)"/><rect class="cls-1" x="16.16" y="99.48" width="4.09" height="4.03" transform="translate(-83.83 116.39) rotate(-88.13)"/><rect class="cls-1" x="12.13" y="99.35" width="4.09" height="4.03" transform="translate(-87.6 112.23) rotate(-88.13)"/><rect class="cls-1" x=".04" y="98.96" width="4.09" height="4.03" transform="translate(-98.9 99.77) rotate(-88.13)"/><rect class="cls-1" x="68.69" y="97.1" width="4.09" height="4.03" transform="translate(-30.64 166.59) rotate(-88.13)"/><rect class="cls-1" x="64.66" y="96.97" width="4.09" height="4.03" transform="translate(-34.4 162.43) rotate(-88.13)"/><rect class="cls-1" x="60.63" y="96.84" width="4.09" height="4.03" transform="translate(-38.17 158.28) rotate(-88.13)"/><rect class="cls-1" x="56.6" y="96.71" width="4.09" height="4.03" transform="translate(-41.94 154.12) rotate(-88.13)"/><rect class="cls-1" x="52.57" y="96.58" width="4.09" height="4.03" transform="translate(-45.71 149.97) rotate(-88.13)"/><rect class="cls-1" x="48.54" y="96.45" width="4.09" height="4.03" transform="translate(-49.48 145.81) rotate(-88.13)"/><rect class="cls-1" x="32.42" y="95.92" width="4.09" height="4.03" transform="translate(-64.55 129.19) rotate(-88.13)"/><rect class="cls-1" x="28.38" y="95.79" width="4.09" height="4.03" transform="translate(-68.32 125.03) rotate(-88.13)"/><rect class="cls-1" x="24.35" y="95.66" width="4.09" height="4.03" transform="translate(-72.08 120.88) rotate(-88.13)"/><rect class="cls-1" x="20.32" y="95.53" width="4.09" height="4.03" transform="translate(-75.85 116.72) rotate(-88.13)"/><rect class="cls-1" x="16.29" y="95.4" width="4.09" height="4.03" transform="translate(-79.62 112.57) rotate(-88.13)"/><rect class="cls-1" x="12.26" y="95.26" width="4.09" height="4.03" transform="translate(-83.39 108.41) rotate(-88.13)"/><rect class="cls-1" x="8.23" y="95.13" width="4.09" height="4.03" transform="translate(-87.16 104.26) rotate(-88.13)"/><rect class="cls-1" x="68.82" y="93.02" width="4.09" height="4.03" transform="translate(-26.42 162.77) rotate(-88.13)"/><rect class="cls-1" x="64.79" y="92.89" width="4.09" height="4.03" transform="translate(-30.19 158.61) rotate(-88.13)"/><rect class="cls-1" x="60.76" y="92.75" width="4.09" height="4.03" transform="translate(-33.96 154.46) rotate(-88.13)"/><rect class="cls-1" x="56.73" y="92.62" width="4.09" height="4.03" transform="translate(-37.73 150.3) rotate(-88.13)"/><rect class="cls-1" x="52.7" y="92.49" width="4.09" height="4.03" transform="translate(-41.49 146.15) rotate(-88.13)"/><rect class="cls-1" x="48.67" y="92.36" width="4.09" height="4.03" transform="translate(-45.26 141.99) rotate(-88.13)"/><rect class="cls-1" x="36.58" y="91.97" width="4.09" height="4.03" transform="translate(-56.57 129.52) rotate(-88.13)"/><rect class="cls-1" x="32.55" y="91.83" width="4.09" height="4.03" transform="translate(-60.34 125.37) rotate(-88.13)"/><rect class="cls-1" x="28.52" y="91.7" width="4.09" height="4.03" transform="translate(-64.1 121.21) rotate(-88.13)"/><rect class="cls-1" x="24.49" y="91.57" width="4.09" height="4.03" transform="translate(-67.87 117.06) rotate(-88.13)"/><rect class="cls-1" x="20.46" y="91.44" width="4.09" height="4.03" transform="translate(-71.64 112.9) rotate(-88.13)"/><rect class="cls-1" x="16.43" y="91.31" width="4.09" height="4.03" transform="translate(-75.41 108.75) rotate(-88.13)"/><rect class="cls-1" x="12.4" y="91.18" width="4.09" height="4.03" transform="translate(-79.18 104.59) rotate(-88.13)"/><rect class="cls-1" x="8.37" y="91.05" width="4.09" height="4.03" transform="translate(-82.94 100.44) rotate(-88.13)"/><rect class="cls-1" x="4.33" y="90.92" width="4.09" height="4.03" transform="translate(-86.71 96.28) rotate(-88.13)"/><rect class="cls-1" x="145.54" y="91.43" width="4.09" height="4.03" transform="translate(49.38 237.9) rotate(-88.13)"/><rect class="cls-1" x="141.51" y="91.29" width="4.09" height="4.03" transform="translate(45.62 233.75) rotate(-88.13)"/><rect class="cls-1" x="137.48" y="91.16" width="4.09" height="4.03" transform="translate(41.85 229.59) rotate(-88.13)"/><rect class="cls-1" x="72.99" y="89.06" width="4.09" height="4.03" transform="translate(-18.44 163.1) rotate(-88.13)"/><rect class="cls-1" x="68.96" y="88.93" width="4.09" height="4.03" transform="translate(-22.21 158.95) rotate(-88.13)"/><rect class="cls-1" x="64.93" y="88.8" width="4.09" height="4.03" transform="translate(-25.98 154.79) rotate(-88.13)"/><rect class="cls-1" x="60.9" y="88.67" width="4.09" height="4.03" transform="translate(-29.75 150.64) rotate(-88.13)"/><rect class="cls-1" x="56.86" y="88.54" width="4.09" height="4.03" transform="translate(-33.51 146.48) rotate(-88.13)"/><rect class="cls-1" x="52.83" y="88.41" width="4.09" height="4.03" transform="translate(-37.28 142.33) rotate(-88.13)"/><rect class="cls-1" x="48.8" y="88.27" width="4.09" height="4.03" transform="translate(-41.05 138.17) rotate(-88.13)"/><rect class="cls-1" x="36.71" y="87.88" width="4.09" height="4.03" transform="translate(-52.35 125.7) rotate(-88.13)"/><rect class="cls-1" x="32.68" y="87.75" width="4.09" height="4.03" transform="translate(-56.12 121.55) rotate(-88.13)"/><rect class="cls-1" x="28.65" y="87.62" width="4.09" height="4.03" transform="translate(-59.89 117.39) rotate(-88.13)"/><rect class="cls-1" x="24.62" y="87.49" width="4.09" height="4.03" transform="translate(-63.66 113.24) rotate(-88.13)"/><rect class="cls-1" x="20.59" y="87.35" width="4.09" height="4.03" transform="translate(-67.43 109.08) rotate(-88.13)"/><rect class="cls-1" x="16.56" y="87.22" width="4.09" height="4.03" transform="translate(-71.2 104.93) rotate(-88.13)"/><rect class="cls-1" x="149.7" y="87.47" width="4.09" height="4.03" transform="translate(57.36 238.24) rotate(-88.13)"/><rect class="cls-1" x="145.67" y="87.34" width="4.09" height="4.03" transform="translate(53.6 234.08) rotate(-88.13)"/><rect class="cls-1" x="141.64" y="87.21" width="4.09" height="4.03" transform="translate(49.83 229.93) rotate(-88.13)"/><rect class="cls-1" x="121.49" y="86.55" width="4.09" height="4.03" transform="translate(30.99 209.15) rotate(-88.13)"/><rect class="cls-1" x="77.15" y="85.11" width="4.09" height="4.03" transform="translate(-10.46 163.44) rotate(-88.13)"/><rect class="cls-1" x="73.12" y="84.98" width="4.09" height="4.03" transform="translate(-14.23 159.28) rotate(-88.13)"/><rect class="cls-1" x="69.09" y="84.84" width="4.09" height="4.03" transform="translate(-18 155.13) rotate(-88.13)"/><rect class="cls-1" x="65.06" y="84.71" width="4.09" height="4.03" transform="translate(-21.77 150.97) rotate(-88.13)"/><rect class="cls-1" x="61.03" y="84.58" width="4.09" height="4.03" transform="translate(-25.53 146.82) rotate(-88.13)"/><rect class="cls-1" x="57" y="84.45" width="4.09" height="4.03" transform="translate(-29.3 142.66) rotate(-88.13)"/><rect class="cls-1" x="52.97" y="84.32" width="4.09" height="4.03" transform="translate(-33.07 138.51) rotate(-88.13)"/><rect class="cls-1" x="48.94" y="84.19" width="4.09" height="4.03" transform="translate(-36.84 134.35) rotate(-88.13)"/><rect class="cls-1" x="36.85" y="83.79" width="4.09" height="4.03" transform="translate(-48.14 121.89) rotate(-88.13)"/><rect class="cls-1" x="32.81" y="83.66" width="4.09" height="4.03" transform="translate(-51.91 117.73) rotate(-88.13)"/><rect class="cls-1" x="28.78" y="83.53" width="4.09" height="4.03" transform="translate(-55.68 113.57) rotate(-88.13)"/><rect class="cls-1" x="24.75" y="83.4" width="4.09" height="4.03" transform="translate(-59.45 109.42) rotate(-88.13)"/><rect class="cls-1" x="20.72" y="83.27" width="4.09" height="4.03" transform="translate(-63.21 105.26) rotate(-88.13)"/><rect class="cls-1" x="16.69" y="83.14" width="4.09" height="4.03" transform="translate(-66.98 101.11) rotate(-88.13)"/><rect class="cls-1" x="12.66" y="83.01" width="4.09" height="4.03" transform="translate(-70.75 96.95) rotate(-88.13)"/><rect class="cls-1" x="8.63" y="82.88" width="4.09" height="4.03" transform="translate(-74.52 92.8) rotate(-88.13)"/><rect class="cls-1" x="4.6" y="82.74" width="4.09" height="4.03" transform="translate(-78.29 88.64) rotate(-88.13)"/><rect class="cls-1" x=".57" y="82.61" width="4.09" height="4.03" transform="translate(-82.05 84.49) rotate(-88.13)"/><rect class="cls-1" x="149.83" y="83.39" width="4.09" height="4.03" transform="translate(61.58 234.42) rotate(-88.13)"/><rect class="cls-1" x="133.71" y="82.86" width="4.09" height="4.03" transform="translate(46.5 217.8) rotate(-88.13)"/><rect class="cls-1" x="129.68" y="82.73" width="4.09" height="4.03" transform="translate(42.74 213.64) rotate(-88.13)"/><rect class="cls-1" x="125.65" y="82.6" width="4.09" height="4.03" transform="translate(38.97 209.49) rotate(-88.13)"/><rect class="cls-1" x="121.62" y="82.47" width="4.09" height="4.03" transform="translate(35.2 205.33) rotate(-88.13)"/><rect class="cls-1" x="89.38" y="81.42" width="4.09" height="4.03" transform="translate(5.06 172.09) rotate(-88.13)"/><rect class="cls-1" x="85.34" y="81.28" width="4.09" height="4.03" transform="translate(1.29 167.93) rotate(-88.13)"/><rect class="cls-1" x="81.31" y="81.15" width="4.09" height="4.03" transform="translate(-2.48 163.78) rotate(-88.13)"/><rect class="cls-1" x="77.28" y="81.02" width="4.09" height="4.03" transform="translate(-6.25 159.62) rotate(-88.13)"/><rect class="cls-1" x="73.25" y="80.89" width="4.09" height="4.03" transform="translate(-10.02 155.46) rotate(-88.13)"/><rect class="cls-1" x="69.22" y="80.76" width="4.09" height="4.03" transform="translate(-13.79 151.31) rotate(-88.13)"/><rect class="cls-1" x="65.19" y="80.63" width="4.09" height="4.03" transform="translate(-17.55 147.15) rotate(-88.13)"/><rect class="cls-1" x="61.16" y="80.5" width="4.09" height="4.03" transform="translate(-21.32 143) rotate(-88.13)"/><rect class="cls-1" x="57.13" y="80.37" width="4.09" height="4.03" transform="translate(-25.09 138.84) rotate(-88.13)"/><rect class="cls-1" x="53.1" y="80.23" width="4.09" height="4.03" transform="translate(-28.86 134.69) rotate(-88.13)"/><rect class="cls-1" x="49.07" y="80.1" width="4.09" height="4.03" transform="translate(-32.63 130.53) rotate(-88.13)"/><rect class="cls-1" x="45.04" y="79.97" width="4.09" height="4.03" transform="translate(-36.39 126.38) rotate(-88.13)"/><rect class="cls-1" x="36.98" y="79.71" width="4.09" height="4.03" transform="translate(-43.93 118.07) rotate(-88.13)"/><rect class="cls-1" x="32.95" y="79.58" width="4.09" height="4.03" transform="translate(-47.7 113.91) rotate(-88.13)"/><rect class="cls-1" x="28.92" y="79.45" width="4.09" height="4.03" transform="translate(-51.47 109.75) rotate(-88.13)"/><rect class="cls-1" x="24.89" y="79.31" width="4.09" height="4.03" transform="translate(-55.23 105.6) rotate(-88.13)"/><rect class="cls-1" x="149.97" y="79.3" width="4.09" height="4.03" transform="translate(65.79 230.6) rotate(-88.13)"/><rect class="cls-1" x="133.84" y="78.77" width="4.09" height="4.03" transform="translate(50.72 213.98) rotate(-88.13)"/><rect class="cls-1" x="129.81" y="78.64" width="4.09" height="4.03" transform="translate(46.95 209.82) rotate(-88.13)"/><rect class="cls-1" x="97.57" y="77.59" width="4.09" height="4.03" transform="translate(16.8 176.58) rotate(-88.13)"/><rect class="cls-1" x="93.54" y="77.46" width="4.09" height="4.03" transform="translate(13.04 172.42) rotate(-88.13)"/><rect class="cls-1" x="89.51" y="77.33" width="4.09" height="4.03" transform="translate(9.27 168.27) rotate(-88.13)"/><rect class="cls-1" x="85.48" y="77.2" width="4.09" height="4.03" transform="translate(5.5 164.11) rotate(-88.13)"/><rect class="cls-1" x="81.45" y="77.07" width="4.09" height="4.03" transform="translate(1.73 159.96) rotate(-88.13)"/><rect class="cls-1" x="77.42" y="76.94" width="4.09" height="4.03" transform="translate(-2.04 155.8) rotate(-88.13)"/><rect class="cls-1" x="73.39" y="76.8" width="4.09" height="4.03" transform="translate(-5.8 151.64) rotate(-88.13)"/><rect class="cls-1" x="69.36" y="76.67" width="4.09" height="4.03" transform="translate(-9.57 147.49) rotate(-88.13)"/><rect class="cls-1" x="65.33" y="76.54" width="4.09" height="4.03" transform="translate(-13.34 143.33) rotate(-88.13)"/><rect class="cls-1" x="61.29" y="76.41" width="4.09" height="4.03" transform="translate(-17.11 139.18) rotate(-88.13)"/><rect class="cls-1" x="57.26" y="76.28" width="4.09" height="4.03" transform="translate(-20.88 135.02) rotate(-88.13)"/><rect class="cls-1" x="53.23" y="76.15" width="4.09" height="4.03" transform="translate(-24.65 130.87) rotate(-88.13)"/><rect class="cls-1" x="49.2" y="76.02" width="4.09" height="4.03" transform="translate(-28.41 126.71) rotate(-88.13)"/><rect class="cls-1" x="45.17" y="75.89" width="4.09" height="4.03" transform="translate(-32.18 122.56) rotate(-88.13)"/><rect class="cls-1" x="37.11" y="75.62" width="4.09" height="4.03" transform="translate(-39.72 114.25) rotate(-88.13)"/><rect class="cls-1" x="33.08" y="75.49" width="4.09" height="4.03" transform="translate(-43.49 110.09) rotate(-88.13)"/><rect class="cls-1" x="29.05" y="75.36" width="4.09" height="4.03" transform="translate(-47.25 105.93) rotate(-88.13)"/><rect class="cls-1" x="25.02" y="75.23" width="4.09" height="4.03" transform="translate(-51.02 101.78) rotate(-88.13)"/><rect class="cls-1" x="150.1" y="75.21" width="4.09" height="4.03" transform="translate(70 226.78) rotate(-88.13)"/><rect class="cls-1" x="146.07" y="75.08" width="4.09" height="4.03" transform="translate(66.23 222.62) rotate(-88.13)"/><rect class="cls-1" x="133.98" y="74.69" width="4.09" height="4.03" transform="translate(54.93 210.16) rotate(-88.13)"/><rect class="cls-1" x="101.73" y="73.64" width="4.09" height="4.03" transform="translate(24.78 176.91) rotate(-88.13)"/><rect class="cls-1" x="97.7" y="73.51" width="4.09" height="4.03" transform="translate(21.02 172.76) rotate(-88.13)"/><rect class="cls-1" x="93.67" y="73.38" width="4.09" height="4.03" transform="translate(17.25 168.6) rotate(-88.13)"/><rect class="cls-1" x="89.64" y="73.24" width="4.09" height="4.03" transform="translate(13.48 164.45) rotate(-88.13)"/><rect class="cls-1" x="85.61" y="73.11" width="4.09" height="4.03" transform="translate(9.71 160.29) rotate(-88.13)"/><rect class="cls-1" x="81.58" y="72.98" width="4.09" height="4.03" transform="translate(5.94 156.14) rotate(-88.13)"/><rect class="cls-1" x="77.55" y="72.85" width="4.09" height="4.03" transform="translate(2.18 151.98) rotate(-88.13)"/><rect class="cls-1" x="73.52" y="72.72" width="4.09" height="4.03" transform="translate(-1.59 147.82) rotate(-88.13)"/><rect class="cls-1" x="69.49" y="72.59" width="4.09" height="4.03" transform="translate(-5.36 143.67) rotate(-88.13)"/><rect class="cls-1" x="65.46" y="72.46" width="4.09" height="4.03" transform="translate(-9.13 139.51) rotate(-88.13)"/><rect class="cls-1" x="61.43" y="72.32" width="4.09" height="4.03" transform="translate(-12.9 135.36) rotate(-88.13)"/><rect class="cls-1" x="57.4" y="72.19" width="4.09" height="4.03" transform="translate(-16.66 131.2) rotate(-88.13)"/><rect class="cls-1" x="53.37" y="72.06" width="4.09" height="4.03" transform="translate(-20.43 127.05) rotate(-88.13)"/><rect class="cls-1" x="49.34" y="71.93" width="4.09" height="4.03" transform="translate(-24.2 122.89) rotate(-88.13)"/><rect class="cls-1" x="45.31" y="71.8" width="4.09" height="4.03" transform="translate(-27.97 118.74) rotate(-88.13)"/><rect class="cls-1" x="37.24" y="71.54" width="4.09" height="4.03" transform="translate(-35.5 110.43) rotate(-88.13)"/><rect class="cls-1" x="33.21" y="71.41" width="4.09" height="4.03" transform="translate(-39.27 106.27) rotate(-88.13)"/><rect class="cls-1" x="29.18" y="71.27" width="4.09" height="4.03" transform="translate(-43.04 102.11) rotate(-88.13)"/><rect class="cls-1" x="25.15" y="71.14" width="4.09" height="4.03" transform="translate(-46.81 97.96) rotate(-88.13)"/><rect class="cls-1" x="146.2" y="71" width="4.09" height="4.03" transform="translate(70.45 218.8) rotate(-88.13)"/><rect class="cls-1" x="134.11" y="70.6" width="4.09" height="4.03" transform="translate(59.14 206.34) rotate(-88.13)"/><rect class="cls-1" x="113.96" y="69.95" width="4.09" height="4.03" transform="translate(40.3 185.56) rotate(-88.13)"/><rect class="cls-1" x="109.93" y="69.81" width="4.09" height="4.03" transform="translate(36.53 181.4) rotate(-88.13)"/><rect class="cls-1" x="105.9" y="69.68" width="4.09" height="4.03" transform="translate(32.76 177.25) rotate(-88.13)"/><rect class="cls-1" x="101.87" y="69.55" width="4.09" height="4.03" transform="translate(29 173.09) rotate(-88.13)"/><rect class="cls-1" x="97.84" y="69.42" width="4.09" height="4.03" transform="translate(25.23 168.94) rotate(-88.13)"/><rect class="cls-1" x="93.81" y="69.29" width="4.09" height="4.03" transform="translate(21.46 164.78) rotate(-88.13)"/><rect class="cls-1" x="89.77" y="69.16" width="4.09" height="4.03" transform="translate(17.69 160.63) rotate(-88.13)"/><rect class="cls-1" x="85.74" y="69.03" width="4.09" height="4.03" transform="translate(13.92 156.47) rotate(-88.13)"/><rect class="cls-1" x="81.71" y="68.9" width="4.09" height="4.03" transform="translate(10.16 152.32) rotate(-88.13)"/><rect class="cls-1" x="77.68" y="68.76" width="4.09" height="4.03" transform="translate(6.39 148.16) rotate(-88.13)"/><rect class="cls-1" x="73.65" y="68.63" width="4.09" height="4.03" transform="translate(2.62 144.01) rotate(-88.13)"/><rect class="cls-1" x="69.62" y="68.5" width="4.09" height="4.03" transform="translate(-1.15 139.85) rotate(-88.13)"/><rect class="cls-1" x="65.59" y="68.37" width="4.09" height="4.03" transform="translate(-4.92 135.69) rotate(-88.13)"/><rect class="cls-1" x="61.56" y="68.24" width="4.09" height="4.03" transform="translate(-8.68 131.54) rotate(-88.13)"/><rect class="cls-1" x="57.53" y="68.11" width="4.09" height="4.03" transform="translate(-12.45 127.38) rotate(-88.13)"/><rect class="cls-1" x="53.5" y="67.98" width="4.09" height="4.03" transform="translate(-16.22 123.23) rotate(-88.13)"/><rect class="cls-1" x="49.47" y="67.84" width="4.09" height="4.03" transform="translate(-19.99 119.07) rotate(-88.13)"/><rect class="cls-1" x="45.44" y="67.71" width="4.09" height="4.03" transform="translate(-23.76 114.92) rotate(-88.13)"/><rect class="cls-1" x="37.38" y="67.45" width="4.09" height="4.03" transform="translate(-31.29 106.61) rotate(-88.13)"/><rect class="cls-1" x="33.35" y="67.32" width="4.09" height="4.03" transform="translate(-35.06 102.45) rotate(-88.13)"/><rect class="cls-1" x="29.32" y="67.19" width="4.09" height="4.03" transform="translate(-38.83 98.3) rotate(-88.13)"/><rect class="cls-1" x="25.29" y="67.06" width="4.09" height="4.03" transform="translate(-42.6 94.14) rotate(-88.13)"/><rect class="cls-1" x="146.34" y="66.91" width="4.09" height="4.03" transform="translate(74.66 214.98) rotate(-88.13)"/><rect class="cls-1" x="134.24" y="66.52" width="4.09" height="4.03" transform="translate(63.35 202.52) rotate(-88.13)"/><rect class="cls-1" x="130.21" y="66.39" width="4.09" height="4.03" transform="translate(59.59 198.36) rotate(-88.13)"/><rect class="cls-1" x="126.18" y="66.25" width="4.09" height="4.03" transform="translate(55.82 194.21) rotate(-88.13)"/><rect class="cls-1" x="122.15" y="66.12" width="4.09" height="4.03" transform="translate(52.05 190.05) rotate(-88.13)"/><rect class="cls-1" x="118.12" y="65.99" width="4.09" height="4.03" transform="translate(48.28 185.9) rotate(-88.13)"/><rect class="cls-1" x="114.09" y="65.86" width="4.09" height="4.03" transform="translate(44.51 181.74) rotate(-88.13)"/><rect class="cls-1" x="110.06" y="65.73" width="4.09" height="4.03" transform="translate(40.75 177.58) rotate(-88.13)"/><rect class="cls-1" x="106.03" y="65.6" width="4.09" height="4.03" transform="translate(36.98 173.43) rotate(-88.13)"/><rect class="cls-1" x="102" y="65.47" width="4.09" height="4.03" transform="translate(33.21 169.27) rotate(-88.13)"/><rect class="cls-1" x="97.97" y="65.33" width="4.09" height="4.03" transform="translate(29.44 165.12) rotate(-88.13)"/><rect class="cls-1" x="93.94" y="65.2" width="4.09" height="4.03" transform="translate(25.67 160.96) rotate(-88.13)"/><rect class="cls-1" x="89.91" y="65.07" width="4.09" height="4.03" transform="translate(21.9 156.81) rotate(-88.13)"/><rect class="cls-1" x="85.88" y="64.94" width="4.09" height="4.03" transform="translate(18.14 152.65) rotate(-88.13)"/><rect class="cls-1" x="81.85" y="64.81" width="4.09" height="4.03" transform="translate(14.37 148.5) rotate(-88.13)"/><rect class="cls-1" x="77.82" y="64.68" width="4.09" height="4.03" transform="translate(10.6 144.34) rotate(-88.13)"/><rect class="cls-1" x="73.79" y="64.55" width="4.09" height="4.03" transform="translate(6.83 140.19) rotate(-88.13)"/><rect class="cls-1" x="69.76" y="64.42" width="4.09" height="4.03" transform="translate(3.06 136.03) rotate(-88.13)"/><rect class="cls-1" x="65.72" y="64.28" width="4.09" height="4.03" transform="translate(-.7 131.87) rotate(-88.13)"/><rect class="cls-1" x="61.69" y="64.15" width="4.09" height="4.03" transform="translate(-4.47 127.72) rotate(-88.13)"/><rect class="cls-1" x="57.66" y="64.02" width="4.09" height="4.03" transform="translate(-8.24 123.56) rotate(-88.13)"/><rect class="cls-1" x="53.63" y="63.89" width="4.09" height="4.03" transform="translate(-12.01 119.41) rotate(-88.13)"/><rect class="cls-1" x="49.6" y="63.76" width="4.09" height="4.03" transform="translate(-15.78 115.25) rotate(-88.13)"/><rect class="cls-1" x="41.54" y="63.5" width="4.09" height="4.03" transform="translate(-23.31 106.94) rotate(-88.13)"/><rect class="cls-1" x="37.51" y="63.37" width="4.09" height="4.03" transform="translate(-27.08 102.79) rotate(-88.13)"/><rect class="cls-1" x="33.48" y="63.23" width="4.09" height="4.03" transform="translate(-30.85 98.63) rotate(-88.13)"/><rect class="cls-1" x="29.45" y="63.1" width="4.09" height="4.03" transform="translate(-34.62 94.48) rotate(-88.13)"/><rect class="cls-1" x="142.44" y="62.69" width="4.09" height="4.03" transform="translate(75.1 207.01) rotate(-88.13)"/><rect class="cls-1" x="134.38" y="62.43" width="4.09" height="4.03" transform="translate(67.57 198.7) rotate(-88.13)"/><rect class="cls-1" x="130.35" y="62.3" width="4.09" height="4.03" transform="translate(63.8 194.54) rotate(-88.13)"/><rect class="cls-1" x="126.32" y="62.17" width="4.09" height="4.03" transform="translate(60.03 190.39) rotate(-88.13)"/><rect class="cls-1" x="122.29" y="62.04" width="4.09" height="4.03" transform="translate(56.26 186.23) rotate(-88.13)"/><rect class="cls-1" x="118.25" y="61.91" width="4.09" height="4.03" transform="translate(52.49 182.08) rotate(-88.13)"/><rect class="cls-1" x="114.22" y="61.77" width="4.09" height="4.03" transform="translate(48.73 177.92) rotate(-88.13)"/><rect class="cls-1" x="110.19" y="61.64" width="4.09" height="4.03" transform="translate(44.96 173.76) rotate(-88.13)"/><rect class="cls-1" x="106.16" y="61.51" width="4.09" height="4.03" transform="translate(41.19 169.61) rotate(-88.13)"/><rect class="cls-1" x="102.13" y="61.38" width="4.09" height="4.03" transform="translate(37.42 165.45) rotate(-88.13)"/><rect class="cls-1" x="98.1" y="61.25" width="4.09" height="4.03" transform="translate(33.65 161.3) rotate(-88.13)"/><rect class="cls-1" x="94.07" y="61.12" width="4.09" height="4.03" transform="translate(29.89 157.14) rotate(-88.13)"/><rect class="cls-1" x="90.04" y="60.99" width="4.09" height="4.03" transform="translate(26.12 152.99) rotate(-88.13)"/><rect class="cls-1" x="86.01" y="60.85" width="4.09" height="4.03" transform="translate(22.35 148.83) rotate(-88.13)"/><rect class="cls-1" x="81.98" y="60.72" width="4.09" height="4.03" transform="translate(18.58 144.68) rotate(-88.13)"/><rect class="cls-1" x="77.95" y="60.59" width="4.09" height="4.03" transform="translate(14.81 140.52) rotate(-88.13)"/><rect class="cls-1" x="73.92" y="60.46" width="4.09" height="4.03" transform="translate(11.05 136.37) rotate(-88.13)"/><rect class="cls-1" x="69.89" y="60.33" width="4.09" height="4.03" transform="translate(7.28 132.21) rotate(-88.13)"/><rect class="cls-1" x="65.86" y="60.2" width="4.09" height="4.03" transform="translate(3.51 128.05) rotate(-88.13)"/><rect class="cls-1" x="61.83" y="60.07" width="4.09" height="4.03" transform="translate(-.26 123.9) rotate(-88.13)"/><rect class="cls-1" x="57.8" y="59.94" width="4.09" height="4.03" transform="translate(-4.03 119.74) rotate(-88.13)"/><rect class="cls-1" x="53.77" y="59.8" width="4.09" height="4.03" transform="translate(-7.8 115.59) rotate(-88.13)"/><rect class="cls-1" x="49.74" y="59.67" width="4.09" height="4.03" transform="translate(-11.56 111.43) rotate(-88.13)"/><rect class="cls-1" x="41.67" y="59.41" width="4.09" height="4.03" transform="translate(-19.1 103.12) rotate(-88.13)"/><rect class="cls-1" x="37.64" y="59.28" width="4.09" height="4.03" transform="translate(-22.87 98.97) rotate(-88.13)"/><rect class="cls-1" x="33.61" y="59.15" width="4.09" height="4.03" transform="translate(-26.64 94.81) rotate(-88.13)"/><rect class="cls-1" x="142.57" y="58.61" width="4.09" height="4.03" transform="translate(79.31 203.19) rotate(-88.13)"/><rect class="cls-1" x="138.54" y="58.48" width="4.09" height="4.03" transform="translate(75.55 199.03) rotate(-88.13)"/><rect class="cls-1" x="130.48" y="58.21" width="4.09" height="4.03" transform="translate(68.01 190.72) rotate(-88.13)"/><rect class="cls-1" x="126.45" y="58.08" width="4.09" height="4.03" transform="translate(64.24 186.57) rotate(-88.13)"/><rect class="cls-1" x="122.42" y="57.95" width="4.09" height="4.03" transform="translate(60.47 182.41) rotate(-88.13)"/><rect class="cls-1" x="118.39" y="57.82" width="4.09" height="4.03" transform="translate(56.71 178.26) rotate(-88.13)"/><rect class="cls-1" x="114.36" y="57.69" width="4.09" height="4.03" transform="translate(52.94 174.1) rotate(-88.13)"/><rect class="cls-1" x="110.33" y="57.56" width="4.09" height="4.03" transform="translate(49.17 169.94) rotate(-88.13)"/><rect class="cls-1" x="106.3" y="57.43" width="4.09" height="4.03" transform="translate(45.4 165.79) rotate(-88.13)"/><rect class="cls-1" x="102.27" y="57.29" width="4.09" height="4.03" transform="translate(41.63 161.63) rotate(-88.13)"/><rect class="cls-1" x="98.24" y="57.16" width="4.09" height="4.03" transform="translate(37.87 157.48) rotate(-88.13)"/><rect class="cls-1" x="94.2" y="57.03" width="4.09" height="4.03" transform="translate(34.1 153.32) rotate(-88.13)"/><rect class="cls-1" x="90.17" y="56.9" width="4.09" height="4.03" transform="translate(30.33 149.17) rotate(-88.13)"/><rect class="cls-1" x="86.14" y="56.77" width="4.09" height="4.03" transform="translate(26.56 145.01) rotate(-88.13)"/><rect class="cls-1" x="82.11" y="56.64" width="4.09" height="4.03" transform="translate(22.79 140.86) rotate(-88.13)"/><rect class="cls-1" x="78.08" y="56.51" width="4.09" height="4.03" transform="translate(19.03 136.7) rotate(-88.13)"/><rect class="cls-1" x="74.05" y="56.38" width="4.09" height="4.03" transform="translate(15.26 132.55) rotate(-88.13)"/><rect class="cls-1" x="70.02" y="56.24" width="4.09" height="4.03" transform="translate(11.49 128.39) rotate(-88.13)"/><rect class="cls-1" x="65.99" y="56.11" width="4.09" height="4.03" transform="translate(7.72 124.23) rotate(-88.13)"/><rect class="cls-1" x="61.96" y="55.98" width="4.09" height="4.03" transform="translate(3.95 120.08) rotate(-88.13)"/><rect class="cls-1" x="57.93" y="55.85" width="4.09" height="4.03" transform="translate(.19 115.92) rotate(-88.13)"/><rect class="cls-1" x="138.67" y="54.39" width="4.09" height="4.03" transform="translate(79.76 195.21) rotate(-88.13)"/><rect class="cls-1" x="134.64" y="54.26" width="4.09" height="4.03" transform="translate(75.99 191.06) rotate(-88.13)"/><rect class="cls-1" x="130.61" y="54.13" width="4.09" height="4.03" transform="translate(72.22 186.9) rotate(-88.13)"/><rect class="cls-1" x="126.58" y="54" width="4.09" height="4.03" transform="translate(68.46 182.75) rotate(-88.13)"/><rect class="cls-1" x="122.55" y="53.86" width="4.09" height="4.03" transform="translate(64.69 178.59) rotate(-88.13)"/><rect class="cls-1" x="118.52" y="53.73" width="4.09" height="4.03" transform="translate(60.92 174.44) rotate(-88.13)"/><rect class="cls-1" x="114.49" y="53.6" width="4.09" height="4.03" transform="translate(57.15 170.28) rotate(-88.13)"/><rect class="cls-1" x="110.46" y="53.47" width="4.09" height="4.03" transform="translate(53.38 166.12) rotate(-88.13)"/><rect class="cls-1" x="106.43" y="53.34" width="4.09" height="4.03" transform="translate(49.61 161.97) rotate(-88.13)"/><rect class="cls-1" x="102.4" y="53.21" width="4.09" height="4.03" transform="translate(45.85 157.81) rotate(-88.13)"/><rect class="cls-1" x="98.37" y="53.08" width="4.09" height="4.03" transform="translate(42.08 153.66) rotate(-88.13)"/><rect class="cls-1" x="94.34" y="52.95" width="4.09" height="4.03" transform="translate(38.31 149.5) rotate(-88.13)"/><rect class="cls-1" x="90.31" y="52.81" width="4.09" height="4.03" transform="translate(34.54 145.35) rotate(-88.13)"/><rect class="cls-1" x="86.28" y="52.68" width="4.09" height="4.03" transform="translate(30.77 141.19) rotate(-88.13)"/><rect class="cls-1" x="82.25" y="52.55" width="4.09" height="4.03" transform="translate(27.01 137.04) rotate(-88.13)"/><rect class="cls-1" x="78.22" y="52.42" width="4.09" height="4.03" transform="translate(23.24 132.88) rotate(-88.13)"/><rect class="cls-1" x="134.78" y="50.17" width="4.09" height="4.03" transform="translate(80.2 187.24) rotate(-88.13)"/><rect class="cls-1" x="118.65" y="49.65" width="4.09" height="4.03" transform="translate(65.13 170.62) rotate(-88.13)"/><rect class="cls-1" x="114.62" y="49.52" width="4.09" height="4.03" transform="translate(61.36 166.46) rotate(-88.13)"/><rect class="cls-1" x="110.59" y="49.39" width="4.09" height="4.03" transform="translate(57.6 162.31) rotate(-88.13)"/><rect class="cls-1" x="106.56" y="49.25" width="4.09" height="4.03" transform="translate(53.83 158.15) rotate(-88.13)"/><rect class="cls-1" x="102.53" y="49.12" width="4.09" height="4.03" transform="translate(50.06 153.99) rotate(-88.13)"/><rect class="cls-1" x="98.5" y="48.99" width="4.09" height="4.03" transform="translate(46.29 149.84) rotate(-88.13)"/><rect class="cls-1" x="94.47" y="48.86" width="4.09" height="4.03" transform="translate(42.52 145.68) rotate(-88.13)"/><rect class="cls-1" x="90.44" y="48.73" width="4.09" height="4.03" transform="translate(38.75 141.53) rotate(-88.13)"/><rect class="cls-1" x="86.41" y="48.6" width="4.09" height="4.03" transform="translate(34.99 137.37) rotate(-88.13)"/><rect class="cls-1" x="82.38" y="48.47" width="4.09" height="4.03" transform="translate(31.22 133.22) rotate(-88.13)"/><rect class="cls-1" x="118.79" y="45.56" width="4.09" height="4.03" transform="translate(69.34 166.8) rotate(-88.13)"/><rect class="cls-1" x="114.76" y="45.43" width="4.09" height="4.03" transform="translate(65.58 162.64) rotate(-88.13)"/><rect class="cls-1" x="110.73" y="45.3" width="4.09" height="4.03" transform="translate(61.81 158.49) rotate(-88.13)"/><rect class="cls-1" x="106.7" y="45.17" width="4.09" height="4.03" transform="translate(58.04 154.33) rotate(-88.13)"/><rect class="cls-1" x="102.67" y="45.04" width="4.09" height="4.03" transform="translate(54.27 150.17) rotate(-88.13)"/><rect class="cls-1" x="98.63" y="44.91" width="4.09" height="4.03" transform="translate(50.5 146.02) rotate(-88.13)"/><rect class="cls-1" x="94.6" y="44.77" width="4.09" height="4.03" transform="translate(46.74 141.86) rotate(-88.13)"/><rect class="cls-1" x="90.57" y="44.64" width="4.09" height="4.03" transform="translate(42.97 137.71) rotate(-88.13)"/><rect class="cls-1" x="86.54" y="44.51" width="4.09" height="4.03" transform="translate(39.2 133.55) rotate(-88.13)"/><rect class="cls-1" x="114.89" y="41.34" width="4.09" height="4.03" transform="translate(69.79 158.82) rotate(-88.13)"/><rect class="cls-1" x="110.86" y="41.21" width="4.09" height="4.03" transform="translate(66.02 154.67) rotate(-88.13)"/><rect class="cls-1" x="106.83" y="41.08" width="4.09" height="4.03" transform="translate(62.25 150.51) rotate(-88.13)"/><rect class="cls-1" x="102.8" y="40.95" width="4.09" height="4.03" transform="translate(58.48 146.35) rotate(-88.13)"/><rect class="cls-1" x="98.77" y="40.82" width="4.09" height="4.03" transform="translate(54.72 142.2) rotate(-88.13)"/><rect class="cls-1" x="94.74" y="40.69" width="4.09" height="4.03" transform="translate(50.95 138.04) rotate(-88.13)"/><rect class="cls-1" x="90.71" y="40.56" width="4.09" height="4.03" transform="translate(47.18 133.89) rotate(-88.13)"/><rect class="cls-1" x="86.68" y="40.43" width="4.09" height="4.03" transform="translate(43.41 129.73) rotate(-88.13)"/><rect class="cls-1" x="110.99" y="37.13" width="4.09" height="4.03" transform="translate(70.23 150.85) rotate(-88.13)"/><rect class="cls-1" x="106.96" y="37" width="4.09" height="4.03" transform="translate(66.46 146.69) rotate(-88.13)"/><rect class="cls-1" x="102.93" y="36.86" width="4.09" height="4.03" transform="translate(62.7 142.53) rotate(-88.13)"/><rect class="cls-1" x="98.9" y="36.73" width="4.09" height="4.03" transform="translate(58.93 138.38) rotate(-88.13)"/><rect class="cls-1" x="94.87" y="36.6" width="4.09" height="4.03" transform="translate(55.16 134.22) rotate(-88.13)"/><rect class="cls-1" x="90.84" y="36.47" width="4.09" height="4.03" transform="translate(51.39 130.07) rotate(-88.13)"/><rect class="cls-1" x="86.81" y="36.34" width="4.09" height="4.03" transform="translate(47.62 125.91) rotate(-88.13)"/><rect class="cls-1" x="82.78" y="36.21" width="4.09" height="4.03" transform="translate(43.86 121.76) rotate(-88.13)"/><rect class="cls-1" x="78.75" y="36.08" width="4.09" height="4.03" transform="translate(40.09 117.6) rotate(-88.13)"/><rect class="cls-1" x="74.72" y="35.95" width="4.09" height="4.03" transform="translate(36.32 113.45) rotate(-88.13)"/><rect class="cls-1" x="111.13" y="33.04" width="4.09" height="4.03" transform="translate(74.45 147.03) rotate(-88.13)"/><rect class="cls-1" x="107.09" y="32.91" width="4.09" height="4.03" transform="translate(70.68 142.87) rotate(-88.13)"/><rect class="cls-1" x="103.06" y="32.78" width="4.09" height="4.03" transform="translate(66.91 138.72) rotate(-88.13)"/><rect class="cls-1" x="99.03" y="32.65" width="4.09" height="4.03" transform="translate(63.14 134.56) rotate(-88.13)"/><rect class="cls-1" x="95" y="32.52" width="4.09" height="4.03" transform="translate(59.37 130.4) rotate(-88.13)"/><rect class="cls-1" x="90.97" y="32.39" width="4.09" height="4.03" transform="translate(55.6 126.25) rotate(-88.13)"/><rect class="cls-1" x="86.94" y="32.25" width="4.09" height="4.03" transform="translate(51.84 122.09) rotate(-88.13)"/><rect class="cls-1" x="82.91" y="32.12" width="4.09" height="4.03" transform="translate(48.07 117.94) rotate(-88.13)"/><rect class="cls-1" x="78.88" y="31.99" width="4.09" height="4.03" transform="translate(44.3 113.78) rotate(-88.13)"/><rect class="cls-1" x="74.85" y="31.86" width="4.09" height="4.03" transform="translate(40.53 109.63) rotate(-88.13)"/><rect class="cls-1" x="70.82" y="31.73" width="4.09" height="4.03" transform="translate(36.76 105.47) rotate(-88.13)"/><rect class="cls-1" x="66.79" y="31.6" width="4.09" height="4.03" transform="translate(33 101.32) rotate(-88.13)"/><rect class="cls-1" x="111.26" y="28.96" width="4.09" height="4.03" transform="translate(78.66 143.21) rotate(-88.13)"/><rect class="cls-1" x="107.23" y="28.82" width="4.09" height="4.03" transform="translate(74.89 139.05) rotate(-88.13)"/><rect class="cls-1" x="103.2" y="28.69" width="4.09" height="4.03" transform="translate(71.12 134.9) rotate(-88.13)"/><rect class="cls-1" x="99.17" y="28.56" width="4.09" height="4.03" transform="translate(67.35 130.74) rotate(-88.13)"/><rect class="cls-1" x="95.14" y="28.43" width="4.09" height="4.03" transform="translate(63.59 126.58) rotate(-88.13)"/><rect class="cls-1" x="91.11" y="28.3" width="4.09" height="4.03" transform="translate(59.82 122.43) rotate(-88.13)"/><rect class="cls-1" x="87.08" y="28.17" width="4.09" height="4.03" transform="translate(56.05 118.27) rotate(-88.13)"/><rect class="cls-1" x="83.04" y="28.04" width="4.09" height="4.03" transform="translate(52.28 114.12) rotate(-88.13)"/><rect class="cls-1" x="79.01" y="27.91" width="4.09" height="4.03" transform="translate(48.51 109.96) rotate(-88.13)"/><rect class="cls-1" x="74.98" y="27.77" width="4.09" height="4.03" transform="translate(44.74 105.81) rotate(-88.13)"/><rect class="cls-1" x="70.95" y="27.64" width="4.09" height="4.03" transform="translate(40.98 101.65) rotate(-88.13)"/><rect class="cls-1" x="131.54" y="25.53" width="4.09" height="4.03" transform="translate(101.71 160.16) rotate(-88.13)"/><rect class="cls-1" x="127.51" y="25.4" width="4.09" height="4.03" transform="translate(97.94 156.01) rotate(-88.13)"/><rect class="cls-1" x="107.36" y="24.74" width="4.09" height="4.03" transform="translate(79.1 135.23) rotate(-88.13)"/><rect class="cls-1" x="103.33" y="24.61" width="4.09" height="4.03" transform="translate(75.33 131.08) rotate(-88.13)"/><rect class="cls-1" x="99.3" y="24.48" width="4.09" height="4.03" transform="translate(71.57 126.92) rotate(-88.13)"/><rect class="cls-1" x="95.27" y="24.34" width="4.09" height="4.03" transform="translate(67.8 122.76) rotate(-88.13)"/><rect class="cls-1" x="91.24" y="24.21" width="4.09" height="4.03" transform="translate(64.03 118.61) rotate(-88.13)"/><rect class="cls-1" x="87.21" y="24.08" width="4.09" height="4.03" transform="translate(60.26 114.45) rotate(-88.13)"/><rect class="cls-1" x="83.18" y="23.95" width="4.09" height="4.03" transform="translate(56.49 110.3) rotate(-88.13)"/><rect class="cls-1" x="79.15" y="23.82" width="4.09" height="4.03" transform="translate(52.73 106.14) rotate(-88.13)"/><rect class="cls-1" x="75.12" y="23.69" width="4.09" height="4.03" transform="translate(48.96 101.99) rotate(-88.13)"/><rect class="cls-1" x="71.09" y="23.56" width="4.09" height="4.03" transform="translate(45.19 97.83) rotate(-88.13)"/><rect class="cls-1" x="131.68" y="21.44" width="4.09" height="4.03" transform="translate(105.92 156.34) rotate(-88.13)"/><rect class="cls-1" x="127.65" y="21.31" width="4.09" height="4.03" transform="translate(102.15 152.19) rotate(-88.13)"/><rect class="cls-1" x="123.62" y="21.18" width="4.09" height="4.03" transform="translate(98.39 148.03) rotate(-88.13)"/><rect class="cls-1" x="119.59" y="21.05" width="4.09" height="4.03" transform="translate(94.62 143.88) rotate(-88.13)"/><rect class="cls-1" x="115.56" y="20.92" width="4.09" height="4.03" transform="translate(90.85 139.72) rotate(-88.13)"/><rect class="cls-1" x="111.52" y="20.78" width="4.09" height="4.03" transform="translate(87.08 135.57) rotate(-88.13)"/><rect class="cls-1" x="107.49" y="20.65" width="4.09" height="4.03" transform="translate(83.31 131.41) rotate(-88.13)"/><rect class="cls-1" x="103.46" y="20.52" width="4.09" height="4.03" transform="translate(79.55 127.26) rotate(-88.13)"/><rect class="cls-1" x="99.43" y="20.39" width="4.09" height="4.03" transform="translate(75.78 123.1) rotate(-88.13)"/><rect class="cls-1" x="95.4" y="20.26" width="4.09" height="4.03" transform="translate(72.01 118.94) rotate(-88.13)"/><rect class="cls-1" x="91.37" y="20.13" width="4.09" height="4.03" transform="translate(68.24 114.79) rotate(-88.13)"/><rect class="cls-1" x="87.34" y="20" width="4.09" height="4.03" transform="translate(64.47 110.63) rotate(-88.13)"/><rect class="cls-1" x="83.31" y="19.86" width="4.09" height="4.03" transform="translate(60.71 106.48) rotate(-88.13)"/><rect class="cls-1" x="71.22" y="19.47" width="4.09" height="4.03" transform="translate(49.4 94.01) rotate(-88.13)"/><rect class="cls-1" x="131.81" y="17.35" width="4.09" height="4.03" transform="translate(110.14 152.52) rotate(-88.13)"/><rect class="cls-1" x="127.78" y="17.22" width="4.09" height="4.03" transform="translate(106.37 148.37) rotate(-88.13)"/><rect class="cls-1" x="123.75" y="17.09" width="4.09" height="4.03" transform="translate(102.6 144.21) rotate(-88.13)"/><rect class="cls-1" x="119.72" y="16.96" width="4.09" height="4.03" transform="translate(98.83 140.06) rotate(-88.13)"/><rect class="cls-1" x="115.69" y="16.83" width="4.09" height="4.03" transform="translate(95.06 135.9) rotate(-88.13)"/><rect class="cls-1" x="111.66" y="16.7" width="4.09" height="4.03" transform="translate(91.29 131.75) rotate(-88.13)"/><rect class="cls-1" x="107.63" y="16.57" width="4.09" height="4.03" transform="translate(87.53 127.59) rotate(-88.13)"/><rect class="cls-1" x="103.6" y="16.44" width="4.09" height="4.03" transform="translate(83.76 123.44) rotate(-88.13)"/><rect class="cls-1" x="99.57" y="16.3" width="4.09" height="4.03" transform="translate(79.99 119.28) rotate(-88.13)"/><rect class="cls-1" x="95.54" y="16.17" width="4.09" height="4.03" transform="translate(76.22 115.13) rotate(-88.13)"/><rect class="cls-1" x="91.51" y="16.04" width="4.09" height="4.03" transform="translate(72.45 110.97) rotate(-88.13)"/><rect class="cls-1" x="87.47" y="15.91" width="4.09" height="4.03" transform="translate(68.69 106.81) rotate(-88.13)"/><rect class="cls-1" x="83.44" y="15.78" width="4.09" height="4.03" transform="translate(64.92 102.66) rotate(-88.13)"/><rect class="cls-1" x="75.38" y="15.52" width="4.09" height="4.03" transform="translate(57.38 94.35) rotate(-88.13)"/><rect class="cls-1" x="127.91" y="13.14" width="4.09" height="4.03" transform="translate(110.58 144.55) rotate(-88.13)"/><rect class="cls-1" x="123.88" y="13.01" width="4.09" height="4.03" transform="translate(106.81 140.39) rotate(-88.13)"/><rect class="cls-1" x="119.85" y="12.88" width="4.09" height="4.03" transform="translate(103.04 136.24) rotate(-88.13)"/><rect class="cls-1" x="115.82" y="12.74" width="4.09" height="4.03" transform="translate(99.28 132.08) rotate(-88.13)"/><rect class="cls-1" x="111.79" y="12.61" width="4.09" height="4.03" transform="translate(95.51 127.93) rotate(-88.13)"/><rect class="cls-1" x="107.76" y="12.48" width="4.09" height="4.03" transform="translate(91.74 123.77) rotate(-88.13)"/><rect class="cls-1" x="103.73" y="12.35" width="4.09" height="4.03" transform="translate(87.97 119.62) rotate(-88.13)"/><rect class="cls-1" x="99.7" y="12.22" width="4.09" height="4.03" transform="translate(84.2 115.46) rotate(-88.13)"/><rect class="cls-1" x="95.67" y="12.09" width="4.09" height="4.03" transform="translate(80.44 111.31) rotate(-88.13)"/><rect class="cls-1" x="91.64" y="11.96" width="4.09" height="4.03" transform="translate(76.67 107.15) rotate(-88.13)"/><rect class="cls-1" x="87.61" y="11.82" width="4.09" height="4.03" transform="translate(72.9 102.99) rotate(-88.13)"/><rect class="cls-1" x="83.58" y="11.69" width="4.09" height="4.03" transform="translate(69.13 98.84) rotate(-88.13)"/><rect class="cls-1" x="124.02" y="8.92" width="4.09" height="4.03" transform="translate(111.02 136.57) rotate(-88.13)"/><rect class="cls-1" x="119.99" y="8.79" width="4.09" height="4.03" transform="translate(107.26 132.42) rotate(-88.13)"/><rect class="cls-1" x="115.95" y="8.66" width="4.09" height="4.03" transform="translate(103.49 128.26) rotate(-88.13)"/><rect class="cls-1" x="111.92" y="8.53" width="4.09" height="4.03" transform="translate(99.72 124.11) rotate(-88.13)"/><rect class="cls-1" x="107.89" y="8.4" width="4.09" height="4.03" transform="translate(95.95 119.95) rotate(-88.13)"/><rect class="cls-1" x="103.86" y="8.26" width="4.09" height="4.03" transform="translate(92.18 115.8) rotate(-88.13)"/><rect class="cls-1" x="99.83" y="8.13" width="4.09" height="4.03" transform="translate(88.42 111.64) rotate(-88.13)"/><rect class="cls-1" x="95.8" y="8" width="4.09" height="4.03" transform="translate(84.65 107.49) rotate(-88.13)"/><rect class="cls-1" x="91.77" y="7.87" width="4.09" height="4.03" transform="translate(80.88 103.33) rotate(-88.13)"/><rect class="cls-1" x="79.68" y="7.48" width="4.09" height="4.03" transform="translate(69.58 90.86) rotate(-88.13)"/><rect class="cls-1" x="124.15" y="4.83" width="4.09" height="4.03" transform="translate(115.24 132.75) rotate(-88.13)"/><rect class="cls-1" x="120.12" y="4.7" width="4.09" height="4.03" transform="translate(111.47 128.6) rotate(-88.13)"/><rect class="cls-1" x="116.09" y="4.57" width="4.09" height="4.03" transform="translate(107.7 124.44) rotate(-88.13)"/><rect class="cls-1" x="112.06" y="4.44" width="4.09" height="4.03" transform="translate(103.93 120.29) rotate(-88.13)"/><rect class="cls-1" x="108.03" y="4.31" width="4.09" height="4.03" transform="translate(100.16 116.13) rotate(-88.13)"/><rect class="cls-1" x="104" y="4.18" width="4.09" height="4.03" transform="translate(96.4 111.98) rotate(-88.13)"/><rect class="cls-1" x="99.97" y="4.05" width="4.09" height="4.03" transform="translate(92.63 107.82) rotate(-88.13)"/><rect class="cls-1" x="95.94" y="3.92" width="4.09" height="4.03" transform="translate(88.86 103.67) rotate(-88.13)"/><rect class="cls-1" x="120.25" y=".62" width="4.09" height="4.03" transform="translate(115.68 124.78) rotate(-88.13)"/><rect class="cls-1" x="116.22" y=".49" width="4.09" height="4.03" transform="translate(111.91 120.62) rotate(-88.13)"/><rect class="cls-1" x="112.19" y=".35" width="4.09" height="4.03" transform="translate(108.14 116.47) rotate(-88.13)"/><rect class="cls-1" x="108.16" y=".22" width="4.09" height="4.03" transform="translate(104.38 112.31) rotate(-88.13)"/><rect class="cls-1" x="104.13" y=".09" width="4.09" height="4.03" transform="translate(100.61 108.16) rotate(-88.13)"/></g></g></svg>